<svg width="31" height="30" viewBox="0 0 31 30" fill="none" xmlns="http://www.w3.org/2000/svg">
<path d="M5.32338 6.51611H13.8055C14.2554 6.51611 14.6869 6.69484 15.0051 7.01299C15.3232 7.33113 15.502 7.76262 15.502 8.21254C15.502 8.66246 15.3232 9.09396 15.0051 9.4121C14.6869 9.73024 14.2554 9.90897 13.8055 9.90897H5.32338C4.87346 9.90897 4.44197 9.73024 4.12383 9.4121C3.80568 9.09396 3.62695 8.66246 3.62695 8.21254C3.62695 7.76262 3.80568 7.33113 4.12383 7.01299C4.44197 6.69484 4.87346 6.51611 5.32338 6.51611ZM17.1984 20.0875H25.6805C26.1304 20.0875 26.5619 20.2663 26.8801 20.5844C27.1982 20.9026 27.3769 21.334 27.3769 21.784C27.3769 22.2339 27.1982 22.6654 26.8801 22.9835C26.5619 23.3017 26.1304 23.4804 25.6805 23.4804H17.1984C16.7485 23.4804 16.317 23.3017 15.9988 22.9835C15.6807 22.6654 15.502 22.2339 15.502 21.784C15.502 21.334 15.6807 20.9026 15.9988 20.5844C16.317 20.2663 16.7485 20.0875 17.1984 20.0875ZM5.32338 13.3018H25.6805C26.1304 13.3018 26.5619 13.4806 26.8801 13.7987C27.1982 14.1168 27.3769 14.5483 27.3769 14.9983C27.3769 15.4482 27.1982 15.8797 26.8801 16.1978C26.5619 16.516 26.1304 16.6947 25.6805 16.6947H5.32338C4.87346 16.6947 4.44197 16.516 4.12383 16.1978C3.80568 15.8797 3.62695 15.4482 3.62695 14.9983C3.62695 14.5483 3.80568 14.1168 4.12383 13.7987C4.44197 13.4806 4.87346 13.3018 5.32338 13.3018Z" fill="url(#paint0_linear_1_295)"/>
<defs>
<linearGradient id="paint0_linear_1_295" x1="3.62695" y1="6.51611" x2="16.9838" y2="29.5161" gradientUnits="userSpaceOnUse">
<stop stop-color="#2755F3"/>
<stop offset="0.5" stop-color="#1475EE"/>
<stop offset="1" stop-color="#0095E9"/>
</linearGradient>
</defs>
</svg>
