<svg width="47" height="32" viewBox="0 0 47 32" fill="none" xmlns="http://www.w3.org/2000/svg">
<path d="M12.2617 10.6705L23.5329 10.6676C23.5667 10.6676 23.5992 10.6542 23.6232 10.6302C23.6471 10.6063 23.6606 10.5738 23.6606 10.5399L23.7186 0.136393C23.7186 0.102528 23.7321 0.0700508 23.756 0.0461049C23.78 0.022159 23.8124 0.00870555 23.8463 0.00870555L35.164 0.0029048C35.1978 0.0029048 35.2303 0.0163582 35.2542 0.0403041C35.2782 0.06425 35.2916 0.0967275 35.2916 0.130592L35.3178 10.5371C35.3178 10.5709 35.3312 10.6034 35.3552 10.6273C35.3791 10.6513 35.4116 10.6647 35.4454 10.6647L46.7805 10.6676C46.8144 10.6676 46.8469 10.6811 46.8708 10.705C46.8947 10.729 46.9082 10.7615 46.9082 10.7953L46.856 21.2279C46.856 21.2618 46.8425 21.2942 46.8186 21.3182C46.7946 21.3421 46.7621 21.3556 46.7283 21.3556H35.4309C35.4142 21.3556 35.3976 21.3589 35.3821 21.3653C35.3666 21.3717 35.3525 21.3811 35.3406 21.393C35.3288 21.4048 35.3194 21.4189 35.313 21.4344C35.3065 21.4499 35.3033 21.4665 35.3033 21.4833L35.2684 31.8723C35.2684 31.9062 35.255 31.9387 35.231 31.9626C35.2071 31.9866 35.1746 32 35.1407 32L23.8521 31.9971C23.8182 31.9971 23.7858 31.9837 23.7618 31.9597C23.7379 31.9358 23.7244 31.9033 23.7244 31.8694L23.6635 21.5326C23.6635 21.4987 23.65 21.4663 23.6261 21.4423C23.6021 21.4184 23.5696 21.4049 23.5358 21.4049L12.2501 21.3556C12.2162 21.3556 12.1837 21.3421 12.1598 21.3182C12.1358 21.2942 12.1224 21.2618 12.1224 21.2279L12.0817 10.8679C12.0817 10.834 12.0683 10.8015 12.0443 10.7776C12.0204 10.7536 11.9879 10.7402 11.9541 10.7402L0.627687 10.6879C0.593823 10.6879 0.561345 10.6745 0.537399 10.6506C0.513453 10.6266 0.5 10.5941 0.5 10.5603L0.50581 0.136393C0.50581 0.102528 0.519263 0.0700508 0.543209 0.0461049C0.567155 0.022159 0.599632 0.00870555 0.633497 0.00870555L11.9918 0C12.0256 0 12.0581 0.0134534 12.0821 0.0373993C12.106 0.0613452 12.1195 0.0938227 12.1195 0.127687L12.134 10.5428C12.134 10.5767 12.1474 10.6092 12.1714 10.6331C12.1953 10.6571 12.2278 10.6705 12.2617 10.6705ZM35.2219 10.945C35.2218 10.9164 35.2161 10.8881 35.2052 10.8617C35.1942 10.8353 35.1781 10.8113 35.1579 10.7912C35.1376 10.771 35.1136 10.755 35.0872 10.7441C35.0607 10.7332 35.0324 10.7276 35.0039 10.7277L23.9764 10.7469C23.9478 10.747 23.9195 10.7526 23.8932 10.7636C23.8668 10.7746 23.8428 10.7907 23.8226 10.8109C23.8025 10.8312 23.7865 10.8552 23.7756 10.8816C23.7647 10.9081 23.7591 10.9364 23.7592 10.9649L23.7768 21.0638C23.7768 21.0923 23.7825 21.1206 23.7935 21.147C23.8045 21.1734 23.8205 21.1974 23.8408 21.2176C23.861 21.2377 23.885 21.2537 23.9115 21.2646C23.9379 21.2755 23.9662 21.2811 23.9948 21.281L35.0222 21.2618C35.0508 21.2617 35.0791 21.2561 35.1055 21.2451C35.1319 21.2341 35.1558 21.218 35.176 21.1978C35.1962 21.1775 35.2122 21.1535 35.2231 21.1271C35.234 21.1007 35.2395 21.0723 35.2395 21.0438L35.2219 10.945Z" fill="url(#paint0_linear_1_293)"/>
<defs>
<linearGradient id="paint0_linear_1_293" x1="0.5" y1="0" x2="243.862" y2="-30.5989" gradientUnits="userSpaceOnUse">
<stop stop-color="#2755F3"/>
<stop offset="0.5" stop-color="#1475EE"/>
<stop offset="1" stop-color="#0095E9"/>
</linearGradient>
</defs>
</svg>
