<svg width="35" height="35" viewBox="0 0 35 35" fill="none" xmlns="http://www.w3.org/2000/svg">
<rect x="1.45833" y="1.16341" width="32.6732" height="32.6732" rx="16.3366" fill="#1F1F1F"/>
<rect x="1.45833" y="1.16341" width="32.6732" height="32.6732" rx="16.3366" stroke="#1F1F1F" stroke-width="1.42057"/>
<path d="M26.5486 9.66789C26.5486 9.15898 26.136 8.74643 25.6271 8.74643L17.334 8.74643C16.8251 8.74643 16.4126 9.15898 16.4126 9.66789C16.4126 10.1768 16.8251 10.5893 17.334 10.5893H24.7056V17.961C24.7056 18.4699 25.1182 18.8824 25.6271 18.8824C26.136 18.8824 26.5486 18.4699 26.5485 17.961L26.5486 9.66789ZM10.614 25.9841L26.2787 10.3195L24.9755 9.01632L9.31084 24.681L10.614 25.9841Z" fill="white"/>
</svg>
