<svg width="205" height="58" viewBox="0 0 205 58" fill="none" xmlns="http://www.w3.org/2000/svg">
<path d="M203.82 29.1794C203.82 32.5914 201.326 36.0756 196.234 39.4282C191.181 42.7543 183.805 45.7882 174.6 48.3514C156.204 53.4739 130.734 56.655 102.559 56.655C74.3849 56.655 48.9144 53.4739 30.5187 48.3514C21.3138 45.7882 13.9372 42.7543 8.88508 39.4282C3.79276 36.0756 1.29907 32.5914 1.29907 29.1794C1.29907 25.7674 3.79276 22.2833 8.88508 18.9307C13.9372 15.6046 21.3138 12.5707 30.5187 10.0075C48.9144 4.88501 74.3849 1.70386 102.559 1.70386C130.734 1.70386 156.204 4.88501 174.6 10.0075C183.805 12.5707 191.181 15.6046 196.234 18.9307C201.326 22.2833 203.82 25.7674 203.82 29.1794Z" stroke="url(#paint0_linear_1_205)" stroke-width="2"/>
<defs>
<linearGradient id="paint0_linear_1_205" x1="0.299072" y1="0.703857" x2="22.5356" y2="98.9234" gradientUnits="userSpaceOnUse">
<stop stop-color="#2755F3"/>
<stop offset="0.5" stop-color="#1475EE"/>
<stop offset="1" stop-color="#0095E9"/>
</linearGradient>
</defs>
</svg>
