<svg width="73" height="48" viewBox="0 0 73 48" fill="none" xmlns="http://www.w3.org/2000/svg">
<rect opacity="0.8" x="0.766602" y="0.5" width="70.959" height="45.875" rx="22.9375" stroke="black"/>
<rect x="13.6865" y="0.497559" width="57.9453" height="45.88" rx="22.94" fill="url(#paint0_linear_1_101)" stroke="black"/>
<path d="M42.698 36.25C45.8924 36.25 48.5911 35.1011 50.794 32.8033C52.9994 30.5055 54.1213 27.7286 54.1596 24.4726V12.75H42.6865C39.4984 12.7892 36.7806 13.9354 34.533 16.1888C32.2841 18.4396 31.1596 21.1969 31.1596 24.4608C31.1596 27.7247 32.2815 30.5055 34.5253 32.8033C36.7665 35.1011 39.4901 36.25 42.6961 36.25H42.698ZM40.3596 31.9417L48.1547 24.827L47.7024 23.5247L41.9447 22.9901L45.7014 17.7555L45.0076 16.9604L37.2489 24.0848L37.6648 25.4263L43.4225 25.9609L39.6926 31.1838L40.3596 31.9417ZM42.698 38.2083C41.0062 38.2083 39.4128 37.91 37.9178 37.3134C36.4228 36.718 35.0767 35.8981 33.8794 34.8537L30.2013 38.6254L28.8347 37.2292L32.5262 33.4692C31.504 32.2472 30.7015 30.8724 30.1189 29.3449C29.5349 27.8174 29.243 26.19 29.243 24.4628C29.243 20.6466 30.5501 17.4141 33.1645 14.7651C35.7788 12.1161 38.9541 10.7917 42.6903 10.7917H56.0763V24.4667C56.0763 28.2854 54.78 31.5298 52.1874 34.1996C49.5948 36.8721 46.4316 38.2083 42.698 38.2083Z" fill="white"/>
<defs>
<linearGradient id="paint0_linear_1_101" x1="13.1865" y1="-0.00244141" x2="51.9413" y2="59.9329" gradientUnits="userSpaceOnUse">
<stop stop-color="#2755F3"/>
<stop offset="0.5" stop-color="#1475EE"/>
<stop offset="1" stop-color="#0095E9"/>
</linearGradient>
</defs>
</svg>
