<svg width="245" height="32" viewBox="0 0 245 32" fill="none" xmlns="http://www.w3.org/2000/svg">
<path d="M11.458 10.3951L22.4383 10.3922C22.4713 10.3922 22.5029 10.3791 22.5262 10.3558C22.5496 10.3325 22.5627 10.3008 22.5627 10.2678L22.6192 0.132872C22.6192 0.0998814 22.6323 0.0682424 22.6556 0.0449147C22.679 0.021587 22.7106 0.00848081 22.7436 0.00848081L33.7691 0.00282981C33.8021 0.00282981 33.8337 0.0159359 33.857 0.0392637C33.8804 0.0625914 33.8935 0.0942304 33.8935 0.127221L33.9189 10.265C33.9189 10.298 33.932 10.3297 33.9554 10.353C33.9787 10.3763 34.0103 10.3894 34.0433 10.3894L45.0858 10.3922C45.1187 10.3922 45.1504 10.4054 45.1737 10.4287C45.197 10.452 45.2101 10.4836 45.2101 10.5166L45.1593 20.6799C45.1593 20.7129 45.1462 20.7445 45.1228 20.7679C45.0995 20.7912 45.0679 20.8043 45.0349 20.8043H34.0292C34.0128 20.8043 33.9967 20.8075 33.9816 20.8138C33.9665 20.82 33.9528 20.8292 33.9412 20.8407C33.9297 20.8523 33.9205 20.866 33.9143 20.8811C33.908 20.8962 33.9048 20.9123 33.9048 20.9287L33.8709 31.0495C33.8709 31.0825 33.8577 31.1142 33.8344 31.1375C33.8111 31.1608 33.7795 31.1739 33.7465 31.1739L22.7493 31.1711C22.7163 31.1711 22.6846 31.158 22.6613 31.1346C22.638 31.1113 22.6249 31.0797 22.6249 31.0467L22.5655 20.9767C22.5655 20.9437 22.5524 20.9121 22.5291 20.8888C22.5057 20.8654 22.4741 20.8523 22.4411 20.8523L11.4467 20.8043C11.4137 20.8043 11.3821 20.7912 11.3588 20.7679C11.3354 20.7445 11.3223 20.7129 11.3223 20.6799L11.2827 10.5873C11.2827 10.5543 11.2696 10.5227 11.2463 10.4994C11.223 10.476 11.1913 10.4629 11.1584 10.4629L0.124391 10.412C0.0914005 10.412 0.0597615 10.3989 0.0364338 10.3756C0.0131061 10.3523 0 10.3206 0 10.2876L0.00565962 0.132872C0.00565962 0.0998814 0.0187657 0.0682424 0.0420934 0.0449147C0.0654211 0.021587 0.0970601 0.00848081 0.13005 0.00848081L11.1951 0C11.2281 0 11.2597 0.0131061 11.2831 0.0364338C11.3064 0.0597616 11.3195 0.0914006 11.3195 0.124391L11.3336 10.2707C11.3336 10.3037 11.3467 10.3353 11.3701 10.3586C11.3934 10.382 11.425 10.3951 11.458 10.3951ZM33.8255 10.6624C33.8255 10.6346 33.8199 10.607 33.8092 10.5813C33.7985 10.5556 33.7829 10.5322 33.7632 10.5126C33.7434 10.4929 33.72 10.4773 33.6943 10.4667C33.6685 10.4561 33.641 10.4507 33.6131 10.4507L22.8704 10.4695C22.8425 10.4695 22.815 10.4751 22.7893 10.4858C22.7636 10.4965 22.7402 10.5121 22.7206 10.5318C22.7009 10.5516 22.6853 10.575 22.6747 10.6007C22.6641 10.6265 22.6587 10.654 22.6587 10.6819L22.6759 20.52C22.6759 20.5478 22.6814 20.5754 22.6921 20.6011C22.7028 20.6268 22.7185 20.6502 22.7382 20.6698C22.7579 20.6895 22.7813 20.705 22.8071 20.7157C22.8328 20.7263 22.8604 20.7317 22.8883 20.7317L33.631 20.7129C33.6589 20.7129 33.6864 20.7073 33.7121 20.6966C33.7378 20.6859 33.7612 20.6703 33.7808 20.6506C33.8005 20.6308 33.8161 20.6074 33.8267 20.5817C33.8373 20.5559 33.8427 20.5283 33.8427 20.5005L33.8255 10.6624Z" fill="url(#paint0_linear_1_25)"/>
<path d="M166.804 28.2762C168.023 27.0719 168.39 24.7141 166.793 23.5748C166.147 23.115 165.446 22.7936 164.693 22.6108C162.612 22.1076 160.477 21.6751 158.575 20.7534C156.79 19.8902 155.912 18.4758 155.94 16.51C155.98 13.6434 158.072 11.7295 160.777 11.3026C164.766 10.6722 168.181 11.9811 169.482 16.1142C169.487 16.1293 169.482 16.1387 169.467 16.1425C168.751 16.3234 167.99 16.4629 167.183 16.5609C167.14 16.5647 167.112 16.5468 167.098 16.5072C166.463 14.6583 165.2 13.6302 163.31 13.4229C161.28 13.1996 158.725 13.8809 158.363 16.1538C158.191 17.2413 158.529 18.0263 159.375 18.5088C160.157 18.9554 161.082 19.2937 162.151 19.5237C164.004 19.927 165.651 20.4114 167.093 20.9768C168.625 21.5789 169.925 22.6504 170.143 24.3438C170.731 28.8784 168.204 31.3747 164.008 31.9231C162.617 32.1059 161.224 31.9627 159.827 31.4934C157.19 30.6114 155.96 28.5137 155.352 25.8619C155.295 25.615 155.392 25.4746 155.643 25.4407L157.314 25.2117C157.589 25.174 157.739 25.2937 157.763 25.5707C157.79 25.9024 157.93 26.3595 158.185 26.9419C158.962 28.7229 160.353 29.5314 162.202 29.6615C163.963 29.7859 165.512 29.5484 166.804 28.2762Z" fill="url(#paint1_linear_1_25)"/>
<path d="M179.181 31.5415C173.552 29.834 171.339 23.9424 172.704 18.5286C173.807 14.1608 177.177 11.3168 181.723 11.1867C188.284 11.0001 191.973 15.58 191.971 21.7882C191.968 25.8987 189.774 29.8735 185.81 31.3267C183.592 32.1371 181.382 32.2087 179.181 31.5415ZM181.301 29.6615C192.12 30.6001 192.383 13.4314 182.149 13.3664C177.915 13.3381 175.042 16.6288 174.762 20.68C174.687 21.7599 174.749 22.788 174.949 23.7643C175.585 26.8571 178.104 29.3845 181.301 29.6615Z" fill="url(#paint2_linear_1_25)"/>
<path d="M63.8035 13.8329L63.7866 31.3663C63.7866 31.384 63.7831 31.4015 63.7762 31.4178C63.7693 31.4341 63.7593 31.4489 63.7467 31.4613C63.734 31.4736 63.719 31.4834 63.7026 31.4899C63.6861 31.4964 63.6686 31.4995 63.6509 31.4992L61.5673 31.4624C61.5326 31.4617 61.4995 31.4473 61.4752 31.4225C61.4509 31.3977 61.4373 31.3643 61.4373 31.3295L61.4232 13.8329C61.4232 13.7977 61.4092 13.7639 61.3842 13.739C61.3593 13.714 61.3255 13.7 61.2903 13.7L55.0284 13.7057C55.0109 13.7057 54.9937 13.7023 54.9775 13.6956C54.9614 13.6889 54.9468 13.6791 54.9344 13.6668C54.9221 13.6544 54.9123 13.6398 54.9056 13.6237C54.8989 13.6075 54.8955 13.5903 54.8955 13.5728L54.8842 11.6702C54.8842 11.635 54.8982 11.6012 54.9231 11.5763C54.948 11.5513 54.9818 11.5374 55.0171 11.5374L70.2633 11.526C70.2986 11.526 70.3324 11.54 70.3573 11.565C70.3822 11.5899 70.3962 11.6237 70.3962 11.6589L70.3877 13.5728C70.3877 13.5903 70.3843 13.6075 70.3776 13.6237C70.3709 13.6398 70.3611 13.6544 70.3488 13.6668C70.3365 13.6791 70.3218 13.6889 70.3057 13.6956C70.2896 13.7023 70.2723 13.7057 70.2549 13.7057L63.9364 13.7C63.9012 13.7 63.8674 13.714 63.8425 13.739C63.8175 13.7639 63.8035 13.7977 63.8035 13.8329Z" fill="url(#paint3_linear_1_25)"/>
<path d="M103.04 26.4981L93.417 26.4613C93.3837 26.4616 93.3512 26.472 93.3239 26.4912C93.2966 26.5104 93.2758 26.5374 93.2644 26.5687L91.4607 31.3889C91.4492 31.4202 91.4284 31.4472 91.4011 31.4664C91.3739 31.4856 91.3414 31.496 91.308 31.4963L89.2697 31.5019C89.2432 31.5022 89.217 31.496 89.1934 31.4839C89.1698 31.4718 89.1494 31.4541 89.1341 31.4325C89.1189 31.4108 89.109 31.3857 89.1056 31.3594C89.1021 31.3331 89.1051 31.3063 89.1142 31.2814L96.3826 11.6475C96.3941 11.6162 96.4149 11.5892 96.4421 11.57C96.4694 11.5508 96.5019 11.5404 96.5352 11.5401H100.032C100.066 11.5404 100.098 11.5508 100.125 11.57C100.153 11.5892 100.173 11.6162 100.185 11.6475L107.448 31.2616C107.457 31.2865 107.46 31.3133 107.456 31.3396C107.453 31.3659 107.443 31.391 107.428 31.4127C107.412 31.4344 107.392 31.452 107.369 31.4641C107.345 31.4762 107.319 31.4824 107.292 31.4822L105.093 31.4539C105.06 31.4538 105.027 31.4438 105 31.4252C104.973 31.4065 104.952 31.3801 104.94 31.3493L103.193 26.6055C103.181 26.5742 103.161 26.5471 103.133 26.5279C103.106 26.5087 103.074 26.4983 103.04 26.4981ZM94.2793 23.8548C94.2643 23.8957 94.2594 23.9397 94.265 23.983C94.2706 24.0263 94.2866 24.0676 94.3115 24.1033C94.3365 24.1391 94.3697 24.1684 94.4084 24.1886C94.4471 24.2088 94.4901 24.2194 94.5337 24.2195H101.873C101.916 24.2194 101.959 24.2088 101.998 24.1886C102.037 24.1684 102.07 24.1391 102.095 24.1033C102.12 24.0676 102.136 24.0263 102.141 23.983C102.147 23.9397 102.142 23.8957 102.127 23.8548L98.4576 13.8215C98.4384 13.7696 98.4036 13.7248 98.3582 13.6932C98.3127 13.6616 98.2586 13.6446 98.2032 13.6446C98.1478 13.6446 98.0937 13.6616 98.0482 13.6932C98.0028 13.7248 97.968 13.7696 97.9488 13.8215L94.2793 23.8548Z" fill="url(#paint4_linear_1_25)"/>
<path d="M109.873 11.7833C109.873 11.7181 109.899 11.6555 109.945 11.6094C109.991 11.5633 110.054 11.5374 110.119 11.5374L116.407 11.5148C118.964 11.5063 121.419 12.4958 123.234 14.2654C125.048 16.0351 126.072 18.4401 126.081 20.9515L126.086 21.9749C126.091 23.2188 125.846 24.4513 125.365 25.6022C124.884 26.7531 124.177 27.7997 123.285 28.6823C122.392 29.5649 121.331 30.2662 120.163 30.7462C118.994 31.2261 117.741 31.4753 116.474 31.4794L110.187 31.502C110.122 31.502 110.059 31.4761 110.013 31.43C109.967 31.3839 109.941 31.3213 109.941 31.2561L109.873 11.7833ZM112.276 13.8443L112.327 29.1612C112.327 29.1793 112.331 29.1972 112.338 29.2138C112.345 29.2305 112.355 29.2456 112.368 29.2582C112.381 29.2708 112.396 29.2808 112.413 29.2874C112.43 29.2941 112.448 29.2973 112.466 29.2969L116.144 29.2828C118.165 29.2751 120.101 28.4864 121.526 27.09C122.95 25.6936 123.747 23.8039 123.74 21.8363V21.09C123.737 20.1152 123.536 19.1505 123.15 18.2512C122.763 17.3519 122.199 16.5355 121.488 15.8488C120.777 15.162 119.935 14.6182 119.008 14.2486C118.081 13.8789 117.089 13.6906 116.087 13.6944L112.409 13.7086C112.374 13.7093 112.34 13.7239 112.315 13.7493C112.29 13.7747 112.276 13.8088 112.276 13.8443Z" fill="url(#paint5_linear_1_25)"/>
<path d="M131.362 22.413L131.336 29.1442C131.336 29.1795 131.35 29.2133 131.375 29.2382C131.4 29.2631 131.434 29.2771 131.469 29.2771L142.347 29.2715C142.365 29.2715 142.382 29.2749 142.398 29.2816C142.414 29.2882 142.429 29.298 142.441 29.3104C142.454 29.3227 142.463 29.3373 142.47 29.3535C142.477 29.3696 142.48 29.3869 142.48 29.4043L142.486 31.3465C142.486 31.3817 142.472 31.4155 142.447 31.4405C142.422 31.4654 142.388 31.4794 142.353 31.4794L129.097 31.4624C129.062 31.4624 129.028 31.4484 129.003 31.4235C128.978 31.3986 128.964 31.3648 128.964 31.3295L128.975 11.6759C128.975 11.6406 128.989 11.6068 129.014 11.5819C129.039 11.557 129.073 11.543 129.108 11.543L142.353 11.5374C142.388 11.5374 142.422 11.5513 142.447 11.5763C142.472 11.6012 142.486 11.635 142.486 11.6702L142.492 13.5785C142.492 13.6137 142.478 13.6475 142.453 13.6724C142.428 13.6974 142.394 13.7113 142.359 13.7113L131.492 13.6916C131.456 13.6916 131.423 13.7056 131.398 13.7305C131.373 13.7554 131.359 13.7892 131.359 13.8244L131.35 19.9506C131.35 19.9859 131.364 20.0197 131.389 20.0446C131.414 20.0695 131.448 20.0835 131.483 20.0835H141.236C141.272 20.0835 141.305 20.0975 141.33 20.1224C141.355 20.1474 141.369 20.1812 141.369 20.2164L141.352 22.1953C141.352 22.2306 141.338 22.2644 141.313 22.2893C141.288 22.3142 141.255 22.3282 141.219 22.3282L131.494 22.2802C131.477 22.2802 131.46 22.2836 131.444 22.2903C131.427 22.2969 131.413 22.3067 131.4 22.3191C131.388 22.3314 131.378 22.346 131.372 22.3622C131.365 22.3783 131.362 22.3956 131.362 22.413Z" fill="url(#paint6_linear_1_25)"/>
<path d="M207.728 29.3421L207.734 31.338C207.734 31.3785 207.718 31.4173 207.689 31.4459C207.661 31.4745 207.622 31.4906 207.581 31.4906L194.877 31.4652C194.836 31.4652 194.797 31.4491 194.769 31.4205C194.74 31.3918 194.724 31.353 194.724 31.3125L194.727 11.6928C194.727 11.6523 194.743 11.6135 194.771 11.5848C194.8 11.5562 194.839 11.5401 194.879 11.5401H197.053C197.094 11.5401 197.133 11.5562 197.161 11.5848C197.19 11.6135 197.206 11.6523 197.206 11.6928V29.0509C197.206 29.0914 197.222 29.1302 197.251 29.1588C197.279 29.1875 197.318 29.2036 197.359 29.2036L207.576 29.1894C207.616 29.1894 207.655 29.2055 207.684 29.2341C207.712 29.2628 207.728 29.3016 207.728 29.3421Z" fill="url(#paint7_linear_1_25)"/>
<path d="M224.078 26.4555L214.474 26.4527C214.443 26.4524 214.414 26.4614 214.388 26.4786C214.363 26.4958 214.344 26.5203 214.333 26.5488L212.509 31.4255C212.498 31.454 212.479 31.4785 212.454 31.4956C212.428 31.5128 212.398 31.5219 212.368 31.5216L210.307 31.4848C210.283 31.4844 210.26 31.4784 210.239 31.4671C210.218 31.4559 210.2 31.4397 210.186 31.4201C210.173 31.4005 210.164 31.3779 210.161 31.3542C210.158 31.3306 210.16 31.3065 210.168 31.2841L217.445 11.6333C217.456 11.6042 217.475 11.5791 217.5 11.5614C217.526 11.5437 217.556 11.5342 217.587 11.5343H221.106C221.137 11.5342 221.167 11.5437 221.193 11.5614C221.218 11.5791 221.237 11.6042 221.248 11.6333L228.505 31.2784C228.513 31.3011 228.515 31.3254 228.512 31.3493C228.509 31.3732 228.5 31.3959 228.486 31.4156C228.472 31.4353 228.454 31.4514 228.433 31.4624C228.411 31.4735 228.387 31.4792 228.363 31.4792L226.164 31.4481C226.134 31.4478 226.105 31.4385 226.08 31.4213C226.055 31.4042 226.036 31.38 226.025 31.3519L224.219 26.5516C224.208 26.5231 224.188 26.4986 224.163 26.4814C224.138 26.4642 224.108 26.4552 224.078 26.4555ZM215.353 23.9338C215.341 23.9661 215.338 24.0008 215.342 24.035C215.346 24.0692 215.359 24.1018 215.379 24.13C215.398 24.1583 215.425 24.1814 215.455 24.1974C215.486 24.2135 215.52 24.2219 215.554 24.2221H223.029C223.063 24.2219 223.097 24.2135 223.127 24.1974C223.158 24.1814 223.184 24.1583 223.204 24.13C223.224 24.1018 223.236 24.0692 223.241 24.035C223.245 24.0008 223.241 23.9661 223.229 23.9338L219.492 13.7535C219.477 13.7129 219.449 13.6779 219.413 13.6532C219.377 13.6285 219.335 13.6153 219.291 13.6153C219.248 13.6153 219.205 13.6285 219.169 13.6532C219.134 13.6779 219.106 13.7129 219.091 13.7535L215.353 23.9338Z" fill="url(#paint8_linear_1_25)"/>
<path d="M75.191 23.8942L75.1995 31.4142C75.1995 31.4321 75.1924 31.4494 75.1796 31.4621C75.1669 31.4748 75.1497 31.482 75.1317 31.482L72.8474 31.499C72.8059 31.499 72.7852 31.4782 72.7852 31.4368L72.7711 11.7463C72.7711 11.7246 72.7755 11.703 72.784 11.6829C72.7926 11.6629 72.8051 11.6447 72.8209 11.6294C72.8367 11.6141 72.8554 11.6021 72.876 11.594C72.8966 11.586 72.9185 11.582 72.9407 11.5824C74.701 11.6219 76.5716 11.621 78.5524 11.5795C80.488 11.54 81.8402 11.6653 82.6092 11.9555C84.5966 12.7019 86.143 14.3331 86.4823 16.4732C86.8894 19.0571 85.9734 21.4149 83.7626 22.7719C83.6901 22.8163 83.6352 22.8846 83.6073 22.965C83.5795 23.0455 83.5804 23.1331 83.61 23.2129L86.6462 31.4198C86.648 31.4252 86.6485 31.431 86.6476 31.4366C86.6467 31.4423 86.6446 31.4477 86.6413 31.4523C86.638 31.457 86.6337 31.4608 86.6286 31.4635C86.6236 31.4662 86.618 31.4677 86.6123 31.4679L84.2093 31.5018C84.1893 31.5018 84.1696 31.4956 84.153 31.484C84.1363 31.4724 84.1234 31.4559 84.116 31.4368L81.2381 23.8207C81.1985 23.7189 81.1241 23.6699 81.0147 23.6737C79.0999 23.7604 77.2246 23.7707 75.3889 23.7048C75.257 23.701 75.191 23.7641 75.191 23.8942ZM75.191 13.8073V21.3951C75.191 21.4213 75.2014 21.4465 75.22 21.465C75.2386 21.4836 75.2637 21.494 75.29 21.494H80.3193C81.36 21.494 82.358 21.0875 83.0939 20.3638C83.8298 19.6401 84.2432 18.6585 84.2432 17.6351V17.5672C84.2432 16.5438 83.8298 15.5623 83.0939 14.8386C82.358 14.1149 81.36 13.7083 80.3193 13.7083H75.29C75.2637 13.7083 75.2386 13.7187 75.22 13.7373C75.2014 13.7558 75.191 13.781 75.191 13.8073Z" fill="url(#paint9_linear_1_25)"/>
<path d="M233.401 23.8718L233.39 31.4003C233.39 31.4719 233.354 31.5067 233.282 31.5049L231.089 31.4596C231.024 31.4577 230.992 31.4248 230.992 31.3607L230.998 11.6872C230.998 11.667 231.006 11.6476 231.02 11.6333C231.035 11.6189 231.054 11.6109 231.074 11.6109C232.793 11.6052 234.522 11.6052 236.259 11.6109C238.223 11.6184 239.269 11.6307 239.397 11.6476C241.732 11.9586 243.723 13.2732 244.472 15.6112C245.343 18.3308 244.441 21.449 241.812 22.8286C241.78 22.845 241.755 22.8725 241.742 22.9058C241.729 22.9391 241.729 22.976 241.741 23.0096L244.848 31.4483C244.851 31.4569 244.852 31.4662 244.851 31.4753C244.85 31.4844 244.846 31.4931 244.841 31.5007C244.836 31.5082 244.829 31.5143 244.821 31.5185C244.812 31.5227 244.803 31.5248 244.794 31.5247L242.419 31.4625C242.392 31.4615 242.365 31.4525 242.342 31.4364C242.32 31.4203 242.302 31.3979 242.292 31.372L239.426 23.7729C239.409 23.7302 239.38 23.694 239.342 23.6696C239.303 23.6451 239.258 23.6338 239.214 23.6372C237.374 23.7672 235.505 23.7804 233.607 23.6768C233.581 23.6752 233.554 23.6791 233.529 23.6882C233.504 23.6973 233.481 23.7115 233.462 23.7297C233.443 23.748 233.427 23.77 233.417 23.7945C233.406 23.8189 233.401 23.8452 233.401 23.8718ZM233.39 13.7708V21.4264C233.39 21.4437 233.397 21.4602 233.409 21.4724C233.421 21.4846 233.438 21.4914 233.455 21.4914H238.501C239.54 21.4914 240.537 21.0929 241.272 20.3836C242.007 19.6742 242.419 18.7121 242.419 17.7088V17.4883C242.419 16.4851 242.007 15.523 241.272 14.8136C240.537 14.1043 239.54 13.7057 238.501 13.7057H233.455C233.438 13.7057 233.421 13.7126 233.409 13.7248C233.397 13.737 233.39 13.7535 233.39 13.7708Z" fill="url(#paint10_linear_1_25)"/>
<defs>
<linearGradient id="paint0_linear_1_25" x1="0" y1="0" x2="237.08" y2="-29.8089" gradientUnits="userSpaceOnUse">
<stop stop-color="#2755F3"/>
<stop offset="0.5" stop-color="#1475EE"/>
<stop offset="1" stop-color="#0095E9"/>
</linearGradient>
<linearGradient id="paint1_linear_1_25" x1="0" y1="0" x2="237.08" y2="-29.8089" gradientUnits="userSpaceOnUse">
<stop stop-color="#2755F3"/>
<stop offset="0.5" stop-color="#1475EE"/>
<stop offset="1" stop-color="#0095E9"/>
</linearGradient>
<linearGradient id="paint2_linear_1_25" x1="0" y1="0" x2="237.08" y2="-29.8089" gradientUnits="userSpaceOnUse">
<stop stop-color="#2755F3"/>
<stop offset="0.5" stop-color="#1475EE"/>
<stop offset="1" stop-color="#0095E9"/>
</linearGradient>
<linearGradient id="paint3_linear_1_25" x1="0" y1="0" x2="237.08" y2="-29.8089" gradientUnits="userSpaceOnUse">
<stop stop-color="#2755F3"/>
<stop offset="0.5" stop-color="#1475EE"/>
<stop offset="1" stop-color="#0095E9"/>
</linearGradient>
<linearGradient id="paint4_linear_1_25" x1="0" y1="0" x2="237.08" y2="-29.8089" gradientUnits="userSpaceOnUse">
<stop stop-color="#2755F3"/>
<stop offset="0.5" stop-color="#1475EE"/>
<stop offset="1" stop-color="#0095E9"/>
</linearGradient>
<linearGradient id="paint5_linear_1_25" x1="0" y1="0" x2="237.08" y2="-29.8089" gradientUnits="userSpaceOnUse">
<stop stop-color="#2755F3"/>
<stop offset="0.5" stop-color="#1475EE"/>
<stop offset="1" stop-color="#0095E9"/>
</linearGradient>
<linearGradient id="paint6_linear_1_25" x1="0" y1="0" x2="237.08" y2="-29.8089" gradientUnits="userSpaceOnUse">
<stop stop-color="#2755F3"/>
<stop offset="0.5" stop-color="#1475EE"/>
<stop offset="1" stop-color="#0095E9"/>
</linearGradient>
<linearGradient id="paint7_linear_1_25" x1="0" y1="0" x2="237.08" y2="-29.8089" gradientUnits="userSpaceOnUse">
<stop stop-color="#2755F3"/>
<stop offset="0.5" stop-color="#1475EE"/>
<stop offset="1" stop-color="#0095E9"/>
</linearGradient>
<linearGradient id="paint8_linear_1_25" x1="0" y1="0" x2="237.08" y2="-29.8089" gradientUnits="userSpaceOnUse">
<stop stop-color="#2755F3"/>
<stop offset="0.5" stop-color="#1475EE"/>
<stop offset="1" stop-color="#0095E9"/>
</linearGradient>
<linearGradient id="paint9_linear_1_25" x1="0" y1="0" x2="237.08" y2="-29.8089" gradientUnits="userSpaceOnUse">
<stop stop-color="#2755F3"/>
<stop offset="0.5" stop-color="#1475EE"/>
<stop offset="1" stop-color="#0095E9"/>
</linearGradient>
<linearGradient id="paint10_linear_1_25" x1="0" y1="0" x2="237.08" y2="-29.8089" gradientUnits="userSpaceOnUse">
<stop stop-color="#2755F3"/>
<stop offset="0.5" stop-color="#1475EE"/>
<stop offset="1" stop-color="#0095E9"/>
</linearGradient>
</defs>
</svg>
