<svg width="185" height="38" viewBox="0 0 185 38" fill="none" xmlns="http://www.w3.org/2000/svg">
<path d="M181.532 6.55445C181.171 6.55759 180.813 6.48806 180.479 6.34982C180.144 6.21158 179.839 6.00734 179.582 5.74876C179.324 5.49017 179.119 5.18231 178.978 4.84275C178.837 4.50319 178.763 4.13858 178.76 3.76973C178.753 3.02482 179.036 2.30789 179.547 1.77666C180.058 1.24543 180.754 0.943415 181.483 0.937053C181.844 0.933903 182.202 1.00343 182.537 1.14167C182.871 1.27991 183.176 1.48416 183.434 1.74274C183.691 2.00133 183.896 2.30919 184.037 2.64875C184.178 2.98831 184.253 3.35292 184.256 3.72176C184.262 4.46668 183.979 5.18361 183.468 5.71484C182.958 6.24607 182.261 6.54808 181.532 6.55445ZM183.661 4.75758C184.016 3.91829 183.951 3.11578 183.465 2.35004C183.106 1.7848 182.431 1.38657 181.762 1.33216C180.86 1.25962 180.117 1.56969 179.532 2.26238C178.679 3.27346 178.925 4.747 179.872 5.57597C181.105 6.65581 183.018 6.27647 183.661 4.75758Z" fill="#1F1F1F" fill-opacity="0.25"/>
<path d="M181.913 3.8062C181.91 3.80644 181.907 3.80736 181.905 3.80889C181.903 3.81041 181.901 3.81249 181.9 3.81491C181.899 3.81734 181.898 3.82003 181.898 3.82274C181.898 3.82545 181.899 3.82808 181.901 3.83038C182.22 4.31451 182.545 4.80569 182.878 5.30393C182.882 5.31048 182.881 5.31375 182.872 5.31375L182.412 5.31904C182.395 5.31954 182.383 5.31274 182.374 5.29864L181.531 3.84172C181.517 3.81804 181.496 3.8062 181.469 3.8062H180.93C180.899 3.8062 180.884 3.82131 180.884 3.85154V5.29713C180.884 5.31073 180.877 5.31753 180.863 5.31753H180.536C180.518 5.31753 180.51 5.30871 180.51 5.29108L180.51 2.22309C180.51 2.19538 180.524 2.18152 180.552 2.18152C181.051 2.17951 181.537 2.18052 182.013 2.18455C182.522 2.18908 182.809 2.44601 182.871 2.95532C182.95 3.59537 182.427 3.7654 181.913 3.8062ZM180.889 2.44979L180.878 3.53492C180.878 3.5412 180.88 3.54724 180.884 3.55176C180.889 3.55627 180.895 3.5589 180.901 3.5591L181.923 3.56968C182.076 3.57127 182.223 3.51874 182.332 3.42365C182.442 3.32856 182.504 3.1987 182.505 3.06263L182.507 2.95532C182.507 2.88794 182.493 2.82105 182.465 2.75849C182.436 2.69593 182.395 2.63891 182.341 2.59071C182.288 2.5425 182.225 2.50404 182.155 2.47753C182.085 2.45101 182.011 2.43696 181.935 2.43618L180.913 2.4256C180.907 2.4256 180.9 2.42815 180.896 2.43269C180.891 2.43722 180.889 2.44337 180.889 2.44979Z" fill="#1F1F1F" fill-opacity="0.25"/>
<path d="M160.675 6.18956C160.466 6.66009 160.156 7.04926 159.744 7.35707C159.21 7.75454 158.636 8.05303 158.019 8.25253C156.983 8.58729 155.892 8.75958 154.803 8.64169C153.91 8.54572 153.041 8.05908 152.713 7.18704C152.454 6.49863 152.423 5.67874 152.767 5.0198C153.015 4.54524 153.334 4.15658 153.724 3.85381C155.335 2.60545 157.112 2.26062 159.056 2.81931C159.588 2.97195 160.033 3.25935 160.389 3.68152C160.939 4.32988 161.011 5.42937 160.675 6.18956Z" fill="#1F1F1F" fill-opacity="0.25"/>
<path d="M46.9898 12.615C46.9561 12.5762 46.9127 12.5565 46.8598 12.556C46.2362 12.5515 45.6304 12.5512 45.0425 12.5553C45.0237 12.5554 45.005 12.5517 44.9876 12.5446C44.9702 12.5374 44.9543 12.5268 44.941 12.5135C44.9277 12.5001 44.9171 12.4843 44.9098 12.4668C44.9026 12.4493 44.8989 12.4306 44.8989 12.4117L44.8974 10.4356C44.8974 10.3739 44.9174 10.3139 44.9545 10.2646C44.9916 10.2152 45.0437 10.1793 45.1029 10.1621C46.6664 9.70642 48.0689 9.03162 49.3732 7.99938C50.6946 6.95404 51.7064 5.66992 52.4087 4.14701C52.4198 4.12383 52.4364 4.10645 52.4586 4.09487C52.5477 4.04801 52.6404 4.03416 52.7366 4.0533C53.4188 4.18781 54.1001 4.31804 54.7807 4.44398C54.821 4.45154 54.8553 4.47169 54.8835 4.50444C54.9538 4.5868 54.9024 4.6533 54.891 4.74474C54.7399 5.90846 54.6601 6.76135 54.6515 7.30341C54.6409 7.96034 54.6412 8.61046 54.6522 9.25378C54.6525 9.26548 54.6553 9.27699 54.6606 9.28744C54.6659 9.29788 54.6734 9.30701 54.6826 9.31412C54.6918 9.32124 54.7025 9.32617 54.7139 9.32855C54.7252 9.33092 54.737 9.33068 54.7482 9.32784C54.8011 9.31474 54.8533 9.30794 54.9046 9.30743C56.0351 9.30139 57.1578 9.30114 58.2726 9.30668C58.3925 9.30718 58.4401 9.36612 58.4155 9.4835C58.2104 10.4497 58.0306 11.3931 57.8759 12.3135C57.8646 12.3804 57.8301 12.4413 57.7783 12.4851C57.7266 12.529 57.661 12.553 57.5933 12.553H54.7981C54.758 12.553 54.7196 12.5689 54.6912 12.5973C54.6629 12.6256 54.647 12.6641 54.647 12.7041C54.646 16.5903 54.6462 20.4746 54.6477 24.3572C54.6482 24.9053 54.8522 25.3222 55.2598 25.6079C55.751 25.9517 56.422 25.9691 56.991 25.9086C57.2505 25.8814 57.5142 25.7721 57.7822 25.5806C57.7899 25.5752 57.7987 25.5715 57.808 25.57C57.8173 25.5684 57.8269 25.569 57.8359 25.5717C57.8449 25.5744 57.8532 25.5791 57.8602 25.5855C57.8671 25.5919 57.8725 25.5998 57.8759 25.6086C58.1464 26.2963 58.4253 26.9927 58.7124 27.698C58.7366 27.7577 58.7933 27.8099 58.8023 27.8741C58.8042 27.8869 58.8029 27.8999 58.7985 27.9119C58.7942 27.9239 58.7869 27.9345 58.7774 27.9429C58.653 28.0522 58.5162 28.1602 58.3671 28.267C57.4278 28.9403 56.6223 29.5131 55.587 29.8199C55.2812 29.9106 54.8951 29.9723 54.4286 30.0051C53.1157 30.0978 51.9563 30.0849 50.9503 29.9665C50.4508 29.9076 49.8961 29.761 49.4163 29.5486C47.4644 28.6872 47.0216 26.6756 47.0208 24.6701C47.0198 20.7089 47.0195 16.7177 47.02 12.6966C47.0201 12.6664 47.0093 12.6374 46.9898 12.615Z" fill="#1F1F1F" fill-opacity="0.25"/>
<path d="M90.0785 25.9358C90.9838 26.0114 91.9606 26.1386 93.009 26.3174C94.2926 26.5371 95.4684 26.8398 96.5364 27.2257C97.2306 27.4766 97.8749 27.7935 98.4694 28.1764C99.4911 28.8345 100.25 29.7527 100.452 30.9806C100.746 32.7723 99.8606 34.3297 98.3893 35.3408C97.122 36.2113 95.5926 36.6904 94.0488 36.9723C93.7052 37.0352 93.3604 37.0647 93.0143 37.0607C92.1075 37.0491 91.1929 37.0496 90.2705 37.0622C89.7767 37.0688 89.3286 37.0373 88.9261 36.9677C86.737 36.5899 84.1964 35.6219 84.2765 32.9385C84.3098 31.8028 85.1788 30.8597 86.1294 30.2945C86.7601 29.9192 87.4352 29.6718 88.1546 29.5524C88.4171 29.5086 88.4171 29.4655 88.1546 29.4232C87.6412 29.3411 87.1075 29.2889 86.5533 29.2668C86.3231 29.2577 86.0959 29.2444 85.8717 29.2267C85.1614 29.1708 84.4397 29.1889 83.7196 29.2146C83.5236 29.2222 83.343 29.2444 83.1778 29.2811C82.9292 29.3371 82.7183 29.2698 82.6224 29.0265C82.4193 28.5071 82.2057 27.9577 81.9816 27.3784C81.9282 27.2408 81.8627 27.0995 81.7851 26.9544C81.6793 26.7587 81.7503 26.5857 81.9687 26.5441C82.7864 26.389 83.5138 26.2043 84.1511 25.9902C84.9637 25.7177 85.912 25.3252 86.9962 24.8129C87.2757 24.6807 87.5659 24.5673 87.8644 24.4925C87.8746 24.4899 87.884 24.4847 87.8915 24.4773C87.899 24.4699 87.9044 24.4606 87.9071 24.4504C87.9098 24.4402 87.9097 24.4295 87.9068 24.4194C87.904 24.4092 87.8985 24.4 87.8909 24.3927C87.8506 24.354 87.805 24.3305 87.7541 24.3225C84.4435 23.7935 81.1171 21.6346 80.6962 18.0202C80.5549 16.8006 80.6728 15.522 81.0634 14.3568C82.2302 10.8807 85.537 9.03766 89.1022 8.72859C90.6294 8.5956 92.1868 8.74975 93.7019 9.04295C94.0223 9.10567 94.348 9.12532 94.6654 9.20013C94.7797 9.22733 94.8478 9.18325 94.8694 9.06789C94.9767 8.49812 95.1626 7.89283 95.4271 7.25203C95.8178 6.30518 96.4994 5.80418 97.5067 5.65607C98.3994 5.52458 99.2523 5.52559 100.065 5.65909C100.115 5.66715 100.163 5.66891 100.209 5.66438C100.313 5.6538 100.383 5.75884 100.387 5.85027C100.389 5.89813 100.378 5.95455 100.355 6.01954C100.267 6.26286 100.19 6.50392 100.124 6.74271C99.8981 7.56336 99.68 8.41928 99.4699 9.31045C99.466 9.32726 99.4577 9.34272 99.4459 9.35525C99.434 9.36777 99.419 9.37689 99.4024 9.38167C99.3859 9.38645 99.3683 9.38671 99.3516 9.38242C99.3349 9.37814 99.3197 9.36947 99.3074 9.35731C99.115 9.16587 98.9047 9.05328 98.6765 9.01952C98.4895 8.99232 98.252 8.99786 97.9639 9.03615C97.4492 9.10491 97.1749 9.30894 97.1424 9.83866C97.1296 10.0495 97.2407 10.2361 97.3911 10.3699C97.7392 10.6797 98.1031 10.9931 98.483 11.3099C99.8039 12.4125 100.703 13.7726 101.002 15.4691C101.449 17.9991 100.769 20.5993 98.7966 22.3079C97.7372 23.2252 96.5039 23.8736 95.1944 24.3482C93.9581 24.7955 92.9231 25.1187 92.0893 25.3177C91.3916 25.4839 90.7183 25.6552 90.0694 25.8315C89.876 25.8839 89.879 25.9187 90.0785 25.9358ZM90.5999 11.4641C90.1042 11.2827 89.582 11.2563 89.0334 11.3848C88.011 11.6235 87.7004 12.5727 87.6566 13.5112C87.6045 14.6386 87.7533 15.7404 87.9914 16.8565C88.3375 18.4797 88.9427 20.2487 90.0286 21.4691C90.7047 22.2293 91.5269 22.5401 92.4951 22.4016C92.9324 22.3391 93.2677 22.2154 93.5009 22.0305C94.3397 21.3678 94.3163 19.9411 94.2218 18.995C94.0546 17.3155 93.6593 15.7517 93.0362 14.3039C92.5752 13.2339 91.7531 11.8858 90.5999 11.4641ZM90.6037 30.9595C90.2243 32.1073 89.8775 34.2972 91.2558 35.003C91.7175 35.2388 92.2669 35.2191 92.7422 35.0484C93.3024 34.8468 93.5989 34.432 93.6316 33.8038C93.6876 32.7156 93.276 31.8335 92.3969 31.1574C92.0332 30.8773 91.6206 30.601 91.1591 30.3285C91.1329 30.3134 91.1057 30.3109 91.0775 30.3209C90.8077 30.4184 90.6853 30.7116 90.6037 30.9595Z" fill="#1F1F1F" fill-opacity="0.25"/>
<path d="M36.6486 16.1273C36.6501 14.9288 36.7151 13.6434 35.3413 13.1507C35.0063 13.0308 34.666 12.9618 34.3204 12.9437C33.6342 12.9084 32.9617 12.9593 32.3027 13.0963C31.034 13.3601 30.0093 14.2064 29.2506 15.2197C29.2206 15.2599 29.1783 15.2891 29.1301 15.3029C29.0819 15.3167 29.0306 15.3143 28.9839 15.2961L26.6859 14.4014C26.6103 14.3721 26.5884 14.32 26.6202 14.2449C27.4942 12.184 28.3713 10.1016 29.2514 7.99787C29.2786 7.93288 29.2733 7.86941 29.299 7.80669C29.3086 7.78502 29.3244 7.77797 29.3466 7.78553C29.8428 7.95681 30.3589 8.1228 30.8949 8.28351C31.1332 8.35505 31.3514 8.4019 31.5493 8.42406C31.7556 8.44749 31.8652 8.61071 31.7715 8.80416C31.665 9.02557 31.4692 9.31877 31.4881 9.56587C31.4889 9.57574 31.492 9.58527 31.4973 9.59365C31.5025 9.60202 31.5098 9.60897 31.5183 9.61389C31.5269 9.61882 31.5366 9.62156 31.5465 9.62188C31.5563 9.62221 31.5662 9.6201 31.575 9.61574C31.9514 9.43489 32.3778 9.28199 32.8544 9.15706C34.7602 8.65781 36.7085 8.55177 38.6994 8.83892C39.1513 8.90391 39.6009 9.03464 40.0422 9.1563C40.8029 9.36688 41.5289 9.74421 42.2201 10.2883C43.3657 11.189 44.0216 12.5069 44.2528 13.9495C44.3485 14.5449 44.3964 15.1197 44.3964 15.6739C44.3979 19.3661 44.3987 23.0519 44.3987 26.7315C44.3987 26.8635 44.4646 26.9295 44.5966 26.9295H45.5201C45.5859 26.9295 45.6491 26.9556 45.6959 27.002C45.7426 27.0485 45.769 27.1115 45.7694 27.1774C45.7719 27.8489 45.7717 28.5063 45.7687 29.1496C45.7672 29.5169 45.5337 29.4481 45.2767 29.4481C42.5735 29.4441 39.9637 29.4421 37.4473 29.4421C37.4136 29.4421 37.3809 29.4306 37.3545 29.4096C37.3282 29.3886 37.3097 29.3593 37.3022 29.3265C37.2256 29.002 37.1279 28.6774 37.009 28.3524C36.9501 28.1907 36.9191 28.0116 36.9002 27.8393C36.8972 27.8107 36.8909 27.7826 36.8813 27.7554C36.8239 27.5872 36.7511 27.5514 36.6629 27.6481C36.611 27.7056 36.5544 27.759 36.4929 27.8083C35.6546 28.4844 34.7614 29.0212 33.8133 29.4187C32.4879 29.9741 31.1035 30.1645 29.6685 29.9922C28.4156 29.8418 27.0834 29.3114 26.1229 28.4559C24.9501 27.4116 24.2995 26.0446 24.171 24.355C23.9451 21.3754 25.1179 18.3172 27.9743 17.0333C28.7647 16.6777 29.5962 16.4812 30.4687 16.4439C32.5645 16.3537 34.6063 16.2668 36.5942 16.1832C36.6304 16.1817 36.6486 16.1631 36.6486 16.1273ZM35.3322 18.8114C33.7937 18.8492 32.4781 19.7235 31.9574 21.1661C31.8083 21.5797 31.7488 22.0731 31.7791 22.6464C31.8516 24.0353 32.2944 25.422 33.802 25.7408C34.6529 25.9214 35.6322 25.7537 36.137 25.0056C36.5488 24.395 36.6501 23.5849 36.6486 22.8633C36.6465 21.5872 36.6465 20.3449 36.6486 19.1363C36.6486 19.0562 36.672 18.9799 36.6697 18.9013C36.6693 18.8783 36.66 18.8564 36.6437 18.84C36.6273 18.8237 36.6053 18.8143 36.5821 18.8137C36.1508 18.8021 35.7342 18.8013 35.3322 18.8114Z" fill="#1F1F1F" fill-opacity="0.25"/>
<path d="M71.5768 27.6043C71.4846 27.667 71.4393 27.7622 71.3517 27.825C70.0164 28.7884 68.5481 29.6643 66.8879 29.9408C64.7713 30.2945 62.3479 29.8373 60.7232 28.3078C59.6018 27.2529 58.9961 25.8706 58.9059 24.1608C58.7086 20.4013 60.7958 16.9547 64.7222 16.3895C65.0653 16.3401 65.4754 16.3109 65.9524 16.3019C67.7867 16.2676 69.5932 16.2265 71.3721 16.1787C71.4072 16.1776 71.4406 16.1635 71.4657 16.1392C71.4909 16.1149 71.506 16.082 71.5081 16.0472C71.5746 15.0187 71.5285 13.8452 70.5378 13.2988C70.1746 13.0983 69.7323 12.9815 69.2109 12.9482C68.5459 12.9059 67.8958 12.95 67.2605 13.0805C65.9011 13.3593 65.0147 14.1233 64.157 15.16C64.1351 15.1865 64.1061 15.2061 64.0735 15.2167C64.0408 15.2273 64.0058 15.2283 63.9726 15.2197C63.1988 15.0208 62.3897 14.7628 61.5454 14.4459C61.4683 14.4172 61.4452 14.3648 61.4759 14.2888C62.3293 12.1739 63.1648 10.0911 63.9824 8.04018C64.021 7.94346 64.0142 7.81197 64.1252 7.77721C64.1499 7.76915 64.1741 7.76991 64.1978 7.77948C64.956 8.07469 65.6862 8.29787 66.3885 8.449C66.4344 8.45885 66.4754 8.48493 66.5038 8.52251C66.5322 8.56009 66.5463 8.60666 66.5434 8.65378C66.5252 8.94597 66.4532 9.21625 66.3272 9.46461C66.3076 9.5029 66.3051 9.54194 66.3197 9.58174C66.323 9.59096 66.3282 9.59939 66.3349 9.60651C66.3416 9.61363 66.3497 9.61929 66.3588 9.62312C66.3678 9.62695 66.3775 9.62888 66.3873 9.62878C66.3971 9.62868 66.4067 9.62656 66.4157 9.62254C66.866 9.42255 67.3016 9.26763 67.7222 9.15781C69.5328 8.68426 71.3784 8.56361 73.2589 8.79585C73.9625 8.88275 74.6864 9.06487 75.331 9.29232C75.7239 9.43136 76.1375 9.63841 76.5718 9.91348C78.5879 11.1913 79.2627 13.3245 79.2657 15.6187C79.2698 19.1709 79.2708 22.7381 79.2687 26.3204C79.2687 26.4769 79.2483 26.6272 79.24 26.7822C79.2391 26.8008 79.242 26.8195 79.2485 26.837C79.255 26.8545 79.2649 26.8705 79.2778 26.8841C79.2906 26.8976 79.3061 26.9085 79.3233 26.9159C79.3404 26.9233 79.3589 26.9272 79.3776 26.9272L80.3675 26.9333C80.441 26.9337 80.5113 26.9632 80.5631 27.0153C80.615 27.0674 80.6441 27.1379 80.6441 27.2114C80.6441 27.9156 80.643 28.5867 80.641 29.2245C80.6395 29.529 80.2753 29.4421 80.0977 29.4421C77.5249 29.4421 74.9403 29.4418 72.3438 29.4413C72.1859 29.4413 72.0726 29.3174 72.0287 29.1761C71.8962 28.7439 71.8088 28.2889 71.7665 27.8114C71.7585 27.7182 71.7169 27.6486 71.6418 27.6028C71.6197 27.5892 71.598 27.5897 71.5768 27.6043ZM69.8381 18.8356C67.9829 18.9981 66.6507 20.424 66.6446 22.2973C66.6409 23.5147 66.922 25.0086 68.0736 25.5648C68.6751 25.8557 69.4179 25.8799 70.0549 25.6728C71.1847 25.3063 71.5119 24.1237 71.5156 23.0439C71.5212 21.4469 71.5212 20.1217 71.5156 19.0683C71.5146 18.9061 71.4378 18.8215 71.2852 18.8144C70.7607 18.7898 70.2784 18.7968 69.8381 18.8356Z" fill="#1F1F1F" fill-opacity="0.25"/>
<path d="M169.306 9.58098C169.32 9.61272 169.343 9.62229 169.375 9.6097C170.706 9.08426 172.096 8.78451 173.545 8.71046C174.836 8.64396 175.953 8.70844 176.895 8.90391C177.145 8.95529 177.402 9.01575 177.667 9.08527C179.158 9.47443 180.513 10.3646 181.304 11.6711C182.071 12.9361 182.259 14.4293 182.259 15.921C182.26 19.5935 182.261 23.1935 182.261 26.7209C182.261 26.86 182.331 26.9295 182.47 26.9295H183.389C183.454 26.9297 183.516 26.9554 183.562 27.0011C183.608 27.0468 183.634 27.1088 183.635 27.1736C183.639 27.8864 183.639 28.5529 183.633 29.1731C183.63 29.5078 183.401 29.4428 183.176 29.4428C180.578 29.4408 177.968 29.4413 175.348 29.4444C175.183 29.4444 175.064 29.3242 175.019 29.1746C174.883 28.7252 174.795 28.2701 174.757 27.8091C174.752 27.7512 174.731 27.7003 174.695 27.6565C174.628 27.5753 174.561 27.5759 174.495 27.658C174.434 27.7343 174.383 27.7985 174.302 27.856C172.874 28.8716 171.327 29.7731 169.561 29.9899C168.86 30.0766 168.158 30.0756 167.455 29.9869C164.626 29.6318 162.383 27.7834 161.969 24.8749C161.409 20.9424 163.509 17.0099 167.674 16.394C168.013 16.3437 168.423 16.3137 168.903 16.3041C170.79 16.2658 172.607 16.2245 174.354 16.1802C174.392 16.1791 174.428 16.164 174.455 16.1377C174.482 16.1114 174.499 16.0759 174.501 16.0381C174.58 14.8427 174.473 13.5467 173.126 13.1228C172.326 12.8711 171.487 12.9014 170.669 13.0064C169.151 13.1999 168.076 13.988 167.147 15.1661C167.126 15.193 167.096 15.2124 167.063 15.2213C167.03 15.2303 166.995 15.2284 166.963 15.216C166.849 15.1714 166.727 15.1653 166.607 15.1276C165.897 14.9074 165.211 14.6674 164.549 14.4074C164.534 14.4017 164.521 14.3931 164.509 14.382C164.498 14.371 164.489 14.3578 164.483 14.3431C164.476 14.3285 164.473 14.3128 164.473 14.2968C164.473 14.2808 164.476 14.265 164.482 14.2502C165.291 12.2447 166.122 10.1717 166.976 8.03112C166.995 7.98427 167.009 7.93565 167.019 7.88527C167.038 7.78326 167.122 7.75454 167.211 7.78855C167.925 8.06613 168.644 8.28603 169.367 8.44824C169.559 8.49132 169.691 8.74144 169.588 8.91902C169.478 9.10895 169.383 9.30542 169.305 9.50844C169.295 9.53262 169.296 9.5568 169.306 9.58098ZM171.751 19.0955C170.656 19.5605 169.977 20.3698 169.714 21.5235C169.645 21.8263 169.621 22.1948 169.642 22.629C169.711 24.0542 170.161 25.5126 171.729 25.7711C172.691 25.9298 173.727 25.6222 174.173 24.6814C174.522 23.9461 174.524 23.1006 174.519 22.2822C174.511 21.0782 174.51 20.0162 174.516 19.0963C174.517 18.9149 174.43 18.8205 174.257 18.8129C173.433 18.7767 172.512 18.7729 171.751 19.0955Z" fill="#1F1F1F" fill-opacity="0.25"/>
<path d="M10.1762 10.5664C10.1782 10.5708 10.1812 10.5748 10.1849 10.5781C10.1886 10.5813 10.193 10.5837 10.1977 10.5852C10.2024 10.5866 10.2074 10.587 10.2123 10.5864C10.2171 10.5857 10.2218 10.5841 10.226 10.5815C11.1379 10.0208 11.9628 9.5772 12.7008 9.25076C13.6439 8.83439 14.6784 8.6432 15.7469 8.68703C16.9847 8.73791 18.1446 9.04144 19.2267 9.59761C22.5154 11.2895 24.0872 14.8102 24.137 18.42C24.1847 21.8719 22.9174 25.4628 20.296 27.7849C18.5867 29.2988 16.5678 30.0562 14.2394 30.0572C12.8958 30.058 11.4812 29.9151 10.3076 29.3257C10.2913 29.3174 10.2731 29.3135 10.2547 29.3143C10.2364 29.3151 10.2186 29.3205 10.203 29.3302C10.1874 29.3398 10.1745 29.3533 10.1655 29.3693C10.1566 29.3853 10.1519 29.4033 10.152 29.4217V33.0572C10.152 33.1255 10.1791 33.1911 10.2275 33.2394C10.2758 33.2877 10.3413 33.3149 10.4097 33.3149H12.6517C12.6841 33.3149 12.7161 33.3212 12.746 33.3336C12.7759 33.346 12.803 33.3641 12.8259 33.387C12.8488 33.4099 12.8669 33.437 12.8793 33.4669C12.8917 33.4968 12.8981 33.5289 12.8981 33.5612V35.5055C12.8981 35.5859 12.8661 35.663 12.8093 35.7198C12.7525 35.7766 12.6754 35.8086 12.595 35.8086H1.18376C1.10861 35.8086 1.03653 35.7787 0.983389 35.7256C0.930246 35.6724 0.900391 35.6003 0.900391 35.5252V33.5605C0.900391 33.4953 0.926265 33.4329 0.972323 33.3868C1.01838 33.3407 1.08085 33.3149 1.14598 33.3149H2.15026C2.21639 33.3149 2.27982 33.2887 2.32659 33.242C2.37335 33.1954 2.39963 33.1322 2.39963 33.0662V13.4213C2.39965 13.4022 2.39531 13.3835 2.38696 13.3664C2.3786 13.3493 2.36645 13.3343 2.35143 13.3227C2.3364 13.311 2.31891 13.3029 2.30028 13.299C2.28165 13.2952 2.26239 13.2956 2.24396 13.3004L1.17545 13.5709C1.143 13.5792 1.10907 13.5799 1.07628 13.573C1.04348 13.5662 1.01268 13.5519 0.986217 13.5312C0.959755 13.5106 0.938335 13.4842 0.923592 13.454C0.908848 13.4238 0.901171 13.3906 0.901146 13.357V11.3092C0.901146 11.1853 0.961096 11.1079 1.08099 11.0772C3.94798 10.3427 6.84117 9.59887 9.76055 8.84572C9.84115 8.82456 9.921 8.80769 10.0001 8.79509C10.0181 8.79216 10.0366 8.79317 10.0542 8.79807C10.0718 8.80296 10.0882 8.81163 10.1022 8.82346C10.1162 8.8353 10.1274 8.85003 10.1353 8.86666C10.1431 8.88328 10.1472 8.9014 10.1474 8.91978C10.152 9.40743 10.1522 9.91196 10.1482 10.4334C10.1477 10.4812 10.157 10.5256 10.1762 10.5664ZM12.184 26.8728C12.857 26.9822 13.5036 26.933 14.1237 26.7255C15.4741 26.2728 16.0031 24.8771 16.2033 23.5887C16.4603 21.9353 16.4497 20.1928 16.2358 18.4903C16.0106 16.6993 15.3132 14.5978 13.653 13.6442C13.0152 13.2779 12.324 13.086 11.5794 13.0684C11.2311 13.0601 10.8903 13.1326 10.5404 13.1553C10.3084 13.1704 10.1497 13.3502 10.1505 13.5747C10.1545 17.0013 10.154 20.3215 10.149 23.5351C10.1467 24.9738 10.4875 26.5978 12.184 26.8728Z" fill="#1F1F1F" fill-opacity="0.25"/>
<path d="M108.316 29.0083C105.549 27.8658 103.445 25.6842 102.53 22.8036C102.174 21.6882 102.038 20.5336 102.014 19.354C102.006 18.9419 102.017 18.5699 102.049 18.2379C102.304 15.585 103.384 13.3946 105.289 11.6666C106.688 10.3979 108.55 9.50013 110.336 9.09131C112.714 8.54774 115.093 8.54925 117.472 9.09585C118.773 9.39509 120.029 9.92607 121.239 10.6888C123.483 12.1041 125.06 14.3356 125.62 16.9343C125.954 18.484 125.972 20.0348 125.673 21.587C125.029 24.9429 122.752 27.6277 119.61 28.9464C118.485 29.4184 117.359 29.733 116.234 29.8902C114.608 30.1174 113.003 30.1121 111.418 29.8743C110.367 29.7166 109.333 29.428 108.316 29.0083ZM115.425 26.9174C116.938 26.8026 117.639 25.663 117.944 24.2741C118.074 23.6791 118.137 23.0905 118.133 22.5081C118.118 20.6502 117.846 18.8091 117.314 16.985C116.645 14.6847 115.124 11.5971 112.217 11.8283C110.239 11.9863 109.795 14.0515 109.761 15.6505C109.708 18.1389 110.129 20.8691 111.084 23.2207C111.562 24.398 112.21 25.4741 113.193 26.2215C113.819 26.6968 114.645 26.9771 115.425 26.9174Z" fill="#1F1F1F" fill-opacity="0.25"/>
<path d="M148.405 26.9288L149.653 26.9303C149.666 26.9303 149.679 26.9343 149.69 26.9417C149.701 26.949 149.71 26.9595 149.715 26.9718C149.747 27.0504 149.763 27.1323 149.764 27.2174C149.769 27.9151 149.767 28.6232 149.758 29.3416C149.758 29.3549 149.755 29.368 149.749 29.3802C149.744 29.3923 149.736 29.4031 149.726 29.4119C149.716 29.4208 149.704 29.4274 149.691 29.4314C149.679 29.4355 149.665 29.4368 149.652 29.4353C149.614 29.4308 149.577 29.4285 149.541 29.4285C146.039 29.4209 142.563 29.4202 139.113 29.4262C139.087 29.4262 139.063 29.4161 139.045 29.3981C139.027 29.3801 139.017 29.3557 139.017 29.3302V27.1562C139.017 27.0961 139.041 27.0384 139.083 26.9959C139.126 26.9534 139.183 26.9295 139.243 26.9295H140.543C140.569 26.9295 140.594 26.9193 140.612 26.9012C140.63 26.883 140.641 26.8584 140.641 26.8328C140.643 23.0746 140.643 19.2741 140.639 15.4313C140.638 14.2729 139.6 13.722 138.586 13.6925C137.534 13.6613 136.569 13.9764 135.693 14.6379C135.475 14.8026 135.256 14.9764 135.036 15.1593C134.939 15.2404 134.891 15.3414 134.891 15.4623C134.891 19.2356 134.891 23.0293 134.892 26.8434C134.892 26.8662 134.901 26.8881 134.917 26.9043C134.933 26.9204 134.954 26.9295 134.977 26.9295H136.349C136.393 26.9295 136.436 26.947 136.467 26.9782C136.498 27.0094 136.516 27.0517 136.516 27.0958L136.516 29.3234C136.516 29.3894 136.483 29.4224 136.417 29.4224C132.726 29.4144 129.241 29.4197 125.963 29.4383C125.93 29.4383 125.898 29.4388 125.865 29.4398C125.802 29.4413 125.77 29.4101 125.77 29.3461L125.769 27.0829C125.769 27.0422 125.785 27.0032 125.813 26.9744C125.842 26.9457 125.881 26.9295 125.922 26.9295H127.119C127.149 26.9295 127.162 26.9146 127.16 26.8849C127.155 26.8305 127.153 26.7781 127.153 26.7277C127.133 23.1404 127.13 18.7323 127.145 13.5036C127.145 13.4412 127.15 13.3797 127.162 13.3193C127.166 13.298 127.164 13.2761 127.157 13.2557C127.15 13.2353 127.137 13.2172 127.121 13.2031C127.105 13.1889 127.085 13.1793 127.064 13.1752C127.043 13.171 127.021 13.1725 127 13.1795L125.819 13.5807C125.813 13.5826 125.807 13.5831 125.801 13.5822C125.795 13.5813 125.79 13.579 125.785 13.5754C125.78 13.5719 125.776 13.5673 125.773 13.5619C125.77 13.5565 125.769 13.5505 125.769 13.5444L125.768 11.2147C125.768 11.182 125.784 11.1676 125.816 11.1717C125.878 11.18 125.934 11.18 125.994 11.1633C128.903 10.388 131.794 9.6102 134.668 8.82985C134.724 8.81474 134.782 8.79786 134.84 8.77922C134.86 8.77292 134.881 8.77139 134.902 8.77475C134.922 8.77811 134.942 8.78627 134.958 8.79857C134.975 8.81087 134.989 8.82695 134.998 8.84552C135.008 8.86409 135.013 8.88461 135.013 8.90542L135.013 11.9258C135.013 12.0251 135.048 12.0389 135.116 11.9674C135.154 11.9281 135.194 11.8913 135.237 11.857C136.206 11.0848 137.123 10.4432 137.989 9.93237C139.329 9.1427 140.839 8.6621 142.386 8.68552C142.987 8.69459 143.528 8.74094 144.009 8.82456C145.206 9.03086 146.42 9.62103 147.179 10.5777C148.235 11.9077 148.388 13.4893 148.389 15.1351C148.392 19.3426 148.389 23.2011 148.38 26.7104C148.38 26.7617 148.375 26.8192 148.365 26.8827C148.361 26.9134 148.374 26.9288 148.405 26.9288Z" fill="#1F1F1F" fill-opacity="0.25"/>
<path d="M160.518 26.9295H161.632C161.666 26.9295 161.7 26.9363 161.731 26.9494C161.763 26.9625 161.791 26.9817 161.815 27.006C161.839 27.0302 161.858 27.0589 161.871 27.0906C161.884 27.1222 161.891 27.156 161.891 27.1902C161.888 27.7796 161.888 28.4104 161.892 29.0824C161.892 29.1519 161.9 29.2217 161.914 29.2917C161.917 29.3076 161.917 29.3241 161.913 29.3398C161.909 29.3556 161.902 29.3703 161.892 29.3829C161.881 29.3955 161.868 29.4056 161.854 29.4126C161.839 29.4196 161.823 29.4232 161.807 29.4232C158.249 29.4242 154.824 29.424 151.531 29.4224C151.427 29.4224 151.336 29.4428 151.237 29.4542C151.225 29.4556 151.213 29.4543 151.201 29.4506C151.189 29.4469 151.178 29.4407 151.169 29.4325C151.16 29.4243 151.153 29.4143 151.148 29.403C151.143 29.3918 151.14 29.3796 151.14 29.3673L151.139 27.1592C151.139 27.1292 151.145 27.0994 151.157 27.0716C151.168 27.0438 151.185 27.0186 151.206 26.9973C151.228 26.9761 151.253 26.9592 151.281 26.9477C151.309 26.9362 151.339 26.9303 151.369 26.9303L152.75 26.9295C152.779 26.9295 152.79 26.9157 152.783 26.8879C152.777 26.86 152.767 26.8305 152.767 26.8018C152.76 22.4391 152.762 18.0835 152.773 13.7349C152.773 13.6477 152.777 13.5543 152.786 13.4545C152.788 13.4336 152.785 13.4125 152.778 13.393C152.77 13.3735 152.758 13.3561 152.742 13.3423C152.726 13.3284 152.707 13.3185 152.687 13.3133C152.667 13.3081 152.645 13.3078 152.625 13.3125L151.386 13.5905C151.371 13.594 151.356 13.594 151.341 13.5906C151.327 13.5873 151.313 13.5806 151.301 13.5712C151.289 13.5617 151.28 13.5497 151.273 13.5361C151.266 13.5224 151.263 13.5075 151.263 13.4923L151.262 11.3485C151.262 11.3079 151.276 11.2685 151.3 11.2364C151.325 11.2043 151.36 11.1812 151.399 11.1709C154.302 10.3986 157.215 9.62355 160.138 8.84572C160.209 8.82658 160.27 8.80618 160.322 8.78451C160.343 8.77569 160.366 8.77224 160.389 8.77448C160.412 8.77673 160.434 8.78459 160.453 8.79737C160.472 8.81015 160.487 8.82746 160.498 8.84776C160.509 8.86806 160.515 8.89072 160.515 8.91373C160.516 14.8658 160.516 20.8054 160.515 26.7323C160.515 26.7776 160.502 26.8403 160.487 26.8834C160.476 26.9141 160.486 26.9295 160.518 26.9295Z" fill="#1F1F1F" fill-opacity="0.25"/>
</svg>
