<svg width="30" height="30" viewBox="0 0 30 30" fill="none" xmlns="http://www.w3.org/2000/svg">
<rect x="0.447957" y="1.20443" width="28.4375" height="28.4375" rx="14.2188" fill="url(#paint0_linear_1_288)"/>
<rect x="0.447957" y="1.20443" width="28.4375" height="28.4375" rx="14.2188" stroke="url(#paint1_linear_1_288)" stroke-width="0.729167"/>
<path d="M8.35221 10.1278C8.86634 10.7025 9.43808 11.2229 10.0585 11.6809C10.6376 12.0647 11.259 12.3803 11.9105 12.6215C12.4332 12.8129 12.9727 12.9545 13.522 13.0445L14.2512 13.1028C14.0748 12.3096 14.233 11.4787 14.6887 10.8059C15.1639 10.1598 15.8732 9.72532 16.6647 9.5955C17.2589 9.5614 17.8518 9.68199 18.3855 9.9455C19.0564 10.3392 19.1147 10.4851 19.1147 10.4851C19.5119 10.4134 19.8988 10.2934 20.2668 10.1278L20.8939 9.79237C20.7836 10.1706 20.5863 10.5177 20.3178 10.8059C19.9605 11.134 19.6324 11.3747 19.6324 11.3747C19.9567 11.3704 20.2776 11.3087 20.5803 11.1924L21.3095 10.9299C21.0712 11.2758 20.7975 11.5959 20.4928 11.8851C20.1428 12.1622 19.8585 12.4174 19.8585 12.4174C19.9464 13.9066 19.6047 15.3897 18.8741 16.6903C18.3257 17.7481 17.5364 18.6622 16.5699 19.359C15.6297 20.0448 14.5487 20.5131 13.4053 20.7299C12.5154 20.8925 11.6065 20.9244 10.7074 20.8247C9.98583 20.7149 9.27893 20.5241 8.60012 20.2559C8.15601 20.1152 7.741 19.8953 7.37512 19.607C8.21136 19.7221 9.06294 19.6397 9.86158 19.3663C10.4766 19.1254 11.0595 18.8095 11.597 18.4257C11.1899 18.4221 10.7888 18.3275 10.423 18.1486C9.97071 17.935 9.58505 17.6023 9.30741 17.1861C9.18927 17.0082 9.0868 16.8203 9.00116 16.6247L8.95012 16.4424C9.14793 16.4911 9.35217 16.5083 9.55533 16.4934L10.2262 16.3913C9.64382 16.2827 9.11341 15.9855 8.71679 15.5455C8.28742 15.0816 8.03006 14.4845 7.98762 13.8538V13.5549C8.21341 13.6907 8.45963 13.7892 8.71679 13.8465C8.8922 13.896 9.07421 13.9182 9.25637 13.9122C8.69736 13.5539 8.28387 13.0086 8.08971 12.3736C7.87166 11.6202 7.96628 10.8106 8.35221 10.1278Z" fill="#FAFAFA"/>
<defs>
<linearGradient id="paint0_linear_1_288" x1="0.083374" y1="0.839844" x2="25.9668" y2="32.6758" gradientUnits="userSpaceOnUse">
<stop stop-color="#2755F3"/>
<stop offset="0.5" stop-color="#1475EE"/>
<stop offset="1" stop-color="#0095E9"/>
</linearGradient>
<linearGradient id="paint1_linear_1_288" x1="0.083374" y1="0.839844" x2="25.9668" y2="32.6758" gradientUnits="userSpaceOnUse">
<stop stop-color="#2755F3"/>
<stop offset="0.5" stop-color="#1475EE"/>
<stop offset="1" stop-color="#0095E9"/>
</linearGradient>
</defs>
</svg>
