<svg width="51" height="46" viewBox="0 0 51 46" fill="none" xmlns="http://www.w3.org/2000/svg">
<path d="M22.3426 7.99917e-06L15.1463 0.0376881C14.8309 0.03934 14.5764 0.296438 14.5781 0.611932L14.5786 0.700958C14.5802 1.01645 14.8373 1.27087 15.1528 1.26922L22.3491 1.23154C22.6646 1.22989 22.919 0.97279 22.9174 0.657296L22.9169 0.568269C22.9152 0.252775 22.6581 -0.00164394 22.3426 7.99917e-06Z" fill="url(#paint0_linear_1_144)"/>
<path d="M26.3776 3.90312L2.74088 3.82061C2.33934 3.81921 2.01269 4.14359 2.01129 4.54513L2.00994 4.93091C2.00854 5.33245 2.33292 5.6591 2.73446 5.6605L26.3711 5.74301C26.7727 5.74441 27.0993 5.42004 27.1007 5.01849L27.1021 4.63271C27.1035 4.23117 26.7791 3.90452 26.3776 3.90312Z" fill="url(#paint1_linear_1_144)"/>
<path d="M16.0015 8.10009L9.05754 8.05162C8.68469 8.04901 8.38032 8.34916 8.37772 8.72201L8.37451 9.18198C8.3719 9.55483 8.67205 9.8592 9.0449 9.8618L15.9889 9.91028C16.3617 9.91288 16.6661 9.61273 16.6687 9.23988L16.6719 8.77992C16.6745 8.40707 16.3744 8.1027 16.0015 8.10009Z" fill="url(#paint2_linear_1_144)"/>
<path d="M41.1159 28.656C31.6419 25.8517 34.8543 12.4901 44.3209 14.3374C50.2635 15.5022 52.8156 24.6943 45.7824 26.601C45.4511 26.69 45.1221 26.7123 44.7957 26.6678C44.311 26.5985 44.2863 26.4551 44.7215 26.2375C47.7707 24.724 48.7426 21.3187 46.873 18.5737C44.5657 15.1906 39.6766 15.5393 37.9777 19.3452C36.2565 23.1957 39.3502 27.6174 43.1932 28.4928C43.6037 28.5868 43.804 28.844 43.7942 29.2644L43.72 32.5658C43.7002 33.3077 43.3663 33.4981 42.7184 33.1371L42.251 32.87C41.8207 32.6326 41.613 32.2691 41.6278 31.7794L41.6946 29.4573C41.6991 29.2779 41.6448 29.1021 41.5402 28.9573C41.4356 28.8124 41.2865 28.7066 41.1159 28.656Z" fill="url(#paint3_linear_1_144)"/>
<path d="M23.5701 19.5381L17.1823 23.7373C17.0229 23.8419 16.892 23.9848 16.8013 24.1532C16.7107 24.3215 16.6631 24.51 16.663 24.7017L16.5962 37.1211C16.5962 37.7195 16.3366 38.1721 15.8172 38.4788L15.2905 38.7903C14.8058 39.0723 14.561 38.9338 14.556 38.3749L14.4892 23.715C14.4893 23.4757 14.549 23.24 14.6629 23.0289C14.7769 22.8179 14.9415 22.6381 15.1421 22.5057L23.2065 17.2531C23.4219 17.1099 23.6749 17.0335 23.9336 17.0335C24.1923 17.0335 24.4452 17.1099 24.6606 17.2531L32.6286 22.4835C33.0688 22.7753 33.2889 23.1833 33.2889 23.7076L33.2666 30.2066C33.2666 30.6072 33.0663 30.8298 32.6657 30.8743L31.8867 30.9559C31.8064 30.9642 31.7253 30.9559 31.6486 30.9314C31.5718 30.9069 31.5011 30.8668 31.441 30.8137C31.3809 30.7606 31.3328 30.6956 31.2997 30.623C31.2665 30.5504 31.2492 30.4717 31.2487 30.3921C31.219 28.8984 31.2363 27.3083 31.3006 25.6217C31.3352 24.6275 30.9668 23.8906 30.1952 23.4108C28.2415 22.1941 26.2805 20.9057 24.312 19.5455C24.2045 19.4711 24.0767 19.4307 23.9446 19.4294C23.8126 19.428 23.6822 19.4659 23.5701 19.5381Z" fill="url(#paint4_linear_1_144)"/>
<path d="M1.9957 31.4233V39.688C1.99475 39.7357 1.97988 39.7821 1.95292 39.8215C1.92596 39.8609 1.88808 39.8915 1.84394 39.9096C1.7998 39.9278 1.75133 39.9326 1.70448 39.9236C1.65763 39.9145 1.61445 39.892 1.58024 39.8587L0.0816091 38.3601C0.05783 38.337 0.0389938 38.3093 0.0262408 38.2786C0.0134878 38.248 0.00708491 38.2152 0.00742055 38.182L0 30.3921C0.000282668 30.3547 0.00912369 30.3179 0.0258417 30.2844C0.0425598 30.251 0.0667116 30.2219 0.0964473 30.1992L8.12377 24.1453C8.16559 24.1118 8.21728 24.0928 8.27089 24.0915C8.32451 24.0902 8.37708 24.1065 8.42053 24.1379L12.449 27.0907C12.4833 27.1147 12.5108 27.147 12.529 27.1847C12.5472 27.2224 12.5554 27.264 12.5529 27.3058L12.4268 29.3015C12.4238 29.3457 12.4089 29.3883 12.3837 29.4247C12.3585 29.4611 12.3238 29.49 12.2835 29.5083C12.2431 29.5265 12.1986 29.5335 12.1545 29.5285C12.1105 29.5234 12.0687 29.5065 12.0336 29.4796L8.49472 26.742C8.45207 26.7095 8.39995 26.6919 8.34634 26.6919C8.29273 26.6919 8.2406 26.7095 8.19796 26.742L2.09215 31.223C2.0614 31.2464 2.03664 31.2768 2.01988 31.3116C2.00312 31.3464 1.99483 31.3847 1.9957 31.4233Z" fill="url(#paint5_linear_1_144)"/>
<path d="M20.226 25.5483L19.2616 25.5467C18.9092 25.546 18.6231 25.8312 18.6224 26.1836L18.6208 27.1332C18.6202 27.4856 18.9053 27.7717 19.2577 27.7723L20.2222 27.774C20.5745 27.7746 20.8607 27.4895 20.8613 27.1371L20.863 26.1875C20.8636 25.8351 20.5784 25.549 20.226 25.5483Z" fill="url(#paint6_linear_1_144)"/>
<path d="M24.431 25.5298L23.5118 25.4928C23.1515 25.4784 22.8477 25.7587 22.8333 26.119L22.7952 27.0678C22.7807 27.4281 23.061 27.7319 23.4213 27.7464L24.3405 27.7833C24.7008 27.7978 25.0046 27.5174 25.0191 27.1572L25.0572 26.2083C25.0716 25.848 24.7913 25.5442 24.431 25.5298Z" fill="url(#paint7_linear_1_144)"/>
<path d="M28.0882 27.8399C28.7479 27.8399 29.2827 27.3052 29.2827 26.6455C29.2827 25.9858 28.7479 25.451 28.0882 25.451C27.4285 25.451 26.8937 25.9858 26.8937 26.6455C26.8937 27.3052 27.4285 27.8399 28.0882 27.8399Z" fill="url(#paint8_linear_1_144)"/>
<path d="M19.7493 32.0317C20.4213 32.0317 20.966 31.4869 20.966 30.815C20.966 30.143 20.4213 29.5983 19.7493 29.5983C19.0773 29.5983 18.5326 30.143 18.5326 30.815C18.5326 31.4869 19.0773 32.0317 19.7493 32.0317Z" fill="url(#paint9_linear_1_144)"/>
<path d="M24.3729 29.7201L23.4532 29.7442C23.0928 29.7536 22.8082 30.0535 22.8177 30.4139L22.8394 31.2446C22.8489 31.605 23.1487 31.8896 23.5091 31.8801L24.4288 31.8561C24.7892 31.8466 25.0738 31.5468 25.0643 31.1863L25.0426 30.3557C25.0331 29.9952 24.7333 29.7107 24.3729 29.7201Z" fill="url(#paint10_linear_1_144)"/>
<path d="M7.76575 31.829L4.6205 31.8784C4.31323 31.8833 4.06806 32.1363 4.07289 32.4435L4.0885 33.4376C4.09333 33.7448 4.34633 33.99 4.65359 33.9852L7.79885 33.9358C8.10611 33.9309 8.35129 33.6779 8.34646 33.3707L8.33085 32.3767C8.32602 32.0694 8.07302 31.8242 7.76575 31.829Z" fill="url(#paint11_linear_1_144)"/>
<path d="M1.20929 42.0176C2.13666 42.5072 3.14564 42.9895 4.16946 43.1008C8.40322 43.5459 12.3204 42.7174 15.9211 40.6154C18.6711 39.0129 21.2875 37.4549 23.7704 35.9415C30.7689 31.678 37.8887 31.861 45.1296 36.4905C46.4452 37.3362 47.5061 38.2117 48.3123 39.1168C48.3989 39.2146 48.4502 39.3386 48.4583 39.4689C48.4664 39.5993 48.4307 39.7287 48.3568 39.8364C48.065 40.2717 47.6817 40.514 47.2069 40.5635C46.9596 40.5882 46.7444 40.514 46.5614 40.3409C41.7762 35.7708 33.7785 33.2558 27.7247 36.2531C20.7063 39.7326 14.7341 45.1484 6.61772 45.371C4.12 45.4353 2.1787 44.4733 0.793828 42.485C0.289339 41.7629 0.427827 41.6071 1.20929 42.0176Z" fill="url(#paint12_linear_1_144)"/>
<path d="M7.70641 36.0099L4.67959 36.0363C4.35181 36.0392 4.08841 36.3072 4.09127 36.635L4.09943 37.5697C4.10229 37.8975 4.37032 38.1609 4.6981 38.1581L7.72492 38.1316C8.0527 38.1288 8.3161 37.8607 8.31324 37.533L8.30508 36.5982C8.30222 36.2704 8.03419 36.007 7.70641 36.0099Z" fill="url(#paint13_linear_1_144)"/>
<defs>
<linearGradient id="paint0_linear_1_144" x1="0" y1="0" x2="39.2938" y2="53.2911" gradientUnits="userSpaceOnUse">
<stop stop-color="#2755F3"/>
<stop offset="0.5" stop-color="#1475EE"/>
<stop offset="1" stop-color="#0095E9"/>
</linearGradient>
<linearGradient id="paint1_linear_1_144" x1="0" y1="0" x2="39.2938" y2="53.2911" gradientUnits="userSpaceOnUse">
<stop stop-color="#2755F3"/>
<stop offset="0.5" stop-color="#1475EE"/>
<stop offset="1" stop-color="#0095E9"/>
</linearGradient>
<linearGradient id="paint2_linear_1_144" x1="0" y1="0" x2="39.2938" y2="53.2911" gradientUnits="userSpaceOnUse">
<stop stop-color="#2755F3"/>
<stop offset="0.5" stop-color="#1475EE"/>
<stop offset="1" stop-color="#0095E9"/>
</linearGradient>
<linearGradient id="paint3_linear_1_144" x1="0" y1="0" x2="39.2938" y2="53.2911" gradientUnits="userSpaceOnUse">
<stop stop-color="#2755F3"/>
<stop offset="0.5" stop-color="#1475EE"/>
<stop offset="1" stop-color="#0095E9"/>
</linearGradient>
<linearGradient id="paint4_linear_1_144" x1="0" y1="0" x2="39.2938" y2="53.2911" gradientUnits="userSpaceOnUse">
<stop stop-color="#2755F3"/>
<stop offset="0.5" stop-color="#1475EE"/>
<stop offset="1" stop-color="#0095E9"/>
</linearGradient>
<linearGradient id="paint5_linear_1_144" x1="0" y1="0" x2="39.2938" y2="53.2911" gradientUnits="userSpaceOnUse">
<stop stop-color="#2755F3"/>
<stop offset="0.5" stop-color="#1475EE"/>
<stop offset="1" stop-color="#0095E9"/>
</linearGradient>
<linearGradient id="paint6_linear_1_144" x1="0" y1="0" x2="39.2938" y2="53.2911" gradientUnits="userSpaceOnUse">
<stop stop-color="#2755F3"/>
<stop offset="0.5" stop-color="#1475EE"/>
<stop offset="1" stop-color="#0095E9"/>
</linearGradient>
<linearGradient id="paint7_linear_1_144" x1="0" y1="0" x2="39.2938" y2="53.2911" gradientUnits="userSpaceOnUse">
<stop stop-color="#2755F3"/>
<stop offset="0.5" stop-color="#1475EE"/>
<stop offset="1" stop-color="#0095E9"/>
</linearGradient>
<linearGradient id="paint8_linear_1_144" x1="0" y1="0" x2="39.2938" y2="53.2911" gradientUnits="userSpaceOnUse">
<stop stop-color="#2755F3"/>
<stop offset="0.5" stop-color="#1475EE"/>
<stop offset="1" stop-color="#0095E9"/>
</linearGradient>
<linearGradient id="paint9_linear_1_144" x1="0" y1="0" x2="39.2938" y2="53.2911" gradientUnits="userSpaceOnUse">
<stop stop-color="#2755F3"/>
<stop offset="0.5" stop-color="#1475EE"/>
<stop offset="1" stop-color="#0095E9"/>
</linearGradient>
<linearGradient id="paint10_linear_1_144" x1="0" y1="0" x2="39.2938" y2="53.2911" gradientUnits="userSpaceOnUse">
<stop stop-color="#2755F3"/>
<stop offset="0.5" stop-color="#1475EE"/>
<stop offset="1" stop-color="#0095E9"/>
</linearGradient>
<linearGradient id="paint11_linear_1_144" x1="0" y1="0" x2="39.2938" y2="53.2911" gradientUnits="userSpaceOnUse">
<stop stop-color="#2755F3"/>
<stop offset="0.5" stop-color="#1475EE"/>
<stop offset="1" stop-color="#0095E9"/>
</linearGradient>
<linearGradient id="paint12_linear_1_144" x1="0" y1="0" x2="39.2938" y2="53.2911" gradientUnits="userSpaceOnUse">
<stop stop-color="#2755F3"/>
<stop offset="0.5" stop-color="#1475EE"/>
<stop offset="1" stop-color="#0095E9"/>
</linearGradient>
<linearGradient id="paint13_linear_1_144" x1="0" y1="0" x2="39.2938" y2="53.2911" gradientUnits="userSpaceOnUse">
<stop stop-color="#2755F3"/>
<stop offset="0.5" stop-color="#1475EE"/>
<stop offset="1" stop-color="#0095E9"/>
</linearGradient>
</defs>
</svg>
