<svg width="48" height="46" viewBox="0 0 48 46" fill="none" xmlns="http://www.w3.org/2000/svg">
<path d="M12.6459 0.0086387L12.0319 6.5005e-05C11.6711 -0.00497236 11.3746 0.283391 11.3695 0.644142L11.3352 3.10016C11.3302 3.46091 11.6186 3.75744 11.9793 3.76248L12.5933 3.77106C12.9541 3.77609 13.2506 3.48773 13.2556 3.12698L13.2899 0.670957C13.295 0.310206 13.0066 0.0136761 12.6459 0.0086387Z" fill="url(#paint0_linear_1_153)"/>
<path d="M6.67959 5.09264L4.93698 3.38019C4.67708 3.12478 4.25933 3.12842 4.00393 3.38833L3.59184 3.80767C3.33643 4.06758 3.34008 4.48532 3.59998 4.74073L5.34259 6.45319C5.6025 6.70859 6.02024 6.70495 6.27565 6.44504L6.68774 6.0257C6.94314 5.76579 6.9395 5.34805 6.67959 5.09264Z" fill="url(#paint1_linear_1_153)"/>
<path d="M20.929 3.68998L20.5556 3.32433C20.2927 3.06685 19.8708 3.07127 19.6133 3.33419L17.8491 5.1358C17.5916 5.39873 17.596 5.8206 17.8589 6.07808L18.2323 6.44373C18.4952 6.7012 18.9171 6.69678 19.1746 6.43386L20.9388 4.63225C21.1963 4.36932 21.1919 3.94745 20.929 3.68998Z" fill="url(#paint2_linear_1_153)"/>
<path d="M18.6819 12.0176C18.6819 13.7207 18.0053 15.3541 16.8011 16.5584C15.5968 17.7626 13.9634 18.4392 12.2603 18.4392C10.5572 18.4392 8.92389 17.7626 7.71961 16.5584C6.51533 15.3541 5.83878 13.7207 5.83878 12.0176C5.83878 10.3145 6.51533 8.68119 7.71961 7.47691C8.92389 6.27264 10.5572 5.59608 12.2603 5.59608C13.9634 5.59608 15.5968 6.27264 16.8011 7.47691C18.0053 8.68119 18.6819 10.3145 18.6819 12.0176ZM16.8397 12.0242C16.8397 10.8114 16.3579 9.64826 15.5004 8.79069C14.6428 7.93312 13.4797 7.45134 12.2669 7.45134C11.0541 7.45134 9.89096 7.93312 9.03339 8.79069C8.17582 9.64826 7.69404 10.8114 7.69404 12.0242C7.69404 13.237 8.17582 14.4001 9.03339 15.2577C9.89096 16.1152 11.0541 16.597 12.2669 16.597C13.4797 16.597 14.6428 16.1152 15.5004 15.2577C16.3579 14.4001 16.8397 13.237 16.8397 12.0242Z" fill="url(#paint3_linear_1_153)"/>
<path d="M3.54478 11.0627L0.879804 11.1045C0.573173 11.1093 0.328505 11.3618 0.333322 11.6684L0.343788 12.3347C0.348605 12.6413 0.601083 12.886 0.907713 12.8812L3.57269 12.8393C3.87932 12.8345 4.12399 12.582 4.11917 12.2754L4.10871 11.6091C4.10389 11.3025 3.85141 11.0578 3.54478 11.0627Z" fill="url(#paint4_linear_1_153)"/>
<path d="M23.6582 11.0458L21.0061 11.069C20.7067 11.0716 20.466 11.3164 20.4687 11.6159L20.4752 12.3606C20.4778 12.66 20.7226 12.9006 21.0221 12.898L23.6742 12.8749C23.9737 12.8723 24.2143 12.6274 24.2117 12.328L24.2052 11.5833C24.2026 11.2838 23.9577 11.0432 23.6582 11.0458Z" fill="url(#paint5_linear_1_153)"/>
<path d="M44.4792 17.6683C40.9342 17.5246 38.6804 17.5312 37.7179 17.688C37.6657 17.6967 37.6286 17.725 37.6069 17.7729L28.9708 33.3009C28.6746 33.8279 28.2239 34.1 27.6185 34.1175L27.2919 34.124C26.6473 34.1414 26.4818 33.8692 26.7954 33.3074C29.7525 28.0595 32.6334 22.8683 35.438 17.7337C35.4438 17.7214 35.4466 17.7079 35.4462 17.6944C35.4457 17.681 35.442 17.668 35.4354 17.6568C35.4288 17.6456 35.4196 17.6365 35.4086 17.6306C35.3976 17.6246 35.3852 17.6218 35.3727 17.6226L28.7029 17.5965C28.6554 17.5967 28.609 17.6096 28.5687 17.6337C28.5284 17.6579 28.4958 17.6925 28.4743 17.7337L19.7402 33.4315C19.5007 33.8627 19.1326 34.0826 18.6362 34.0913L17.9764 34.1044C17.4886 34.1131 17.3623 33.9019 17.5975 33.4707L27.0959 16.3618C27.2144 16.1445 27.39 15.9634 27.604 15.838C27.818 15.7126 28.0624 15.6475 28.311 15.6498L46.354 15.689C46.4516 15.689 46.548 15.7081 46.6377 15.7451C46.7274 15.7821 46.8086 15.8363 46.8766 15.9045C47.2033 16.2268 47.2686 16.5687 47.0726 16.9302C43.9587 22.7137 40.9646 28.225 38.0903 33.4642C37.8464 33.9041 37.4762 34.1175 36.9797 34.1044L36.3003 34.0848C35.8256 34.0717 35.7015 33.8583 35.928 33.4446L44.5314 17.7598C44.536 17.7497 44.5382 17.7386 44.5378 17.7276C44.5374 17.7166 44.5345 17.706 44.5292 17.6968C44.524 17.6877 44.5167 17.6802 44.5079 17.6753C44.4991 17.6703 44.4893 17.6679 44.4792 17.6683Z" fill="url(#paint6_linear_1_153)"/>
<path d="M6.72417 18.0969L6.13508 17.522C5.93109 17.3229 5.60436 17.3269 5.40529 17.5309L3.5073 19.4758C3.30824 19.6798 3.31223 20.0066 3.51622 20.2056L4.10531 20.7805C4.3093 20.9796 4.63604 20.9756 4.8351 20.7716L6.73309 18.8266C6.93215 18.6227 6.92816 18.2959 6.72417 18.0969Z" fill="url(#paint7_linear_1_153)"/>
<path d="M18.2574 17.5801L17.8387 17.9929C17.5818 18.2463 17.579 18.6599 17.8323 18.9168L19.5936 20.7029C19.847 20.9598 20.2606 20.9627 20.5175 20.7093L20.9361 20.2965C21.193 20.0432 21.1959 19.6296 20.9426 19.3727L19.1812 17.5866C18.9279 17.3297 18.5142 17.3268 18.2574 17.5801Z" fill="url(#paint8_linear_1_153)"/>
<path d="M12.8417 20.1993L11.7703 20.2068C11.543 20.2084 11.3601 20.3939 11.3617 20.6212L11.3822 23.5608C11.3838 23.7881 11.5693 23.9711 11.7966 23.9695L12.8679 23.962C13.0952 23.9604 13.2782 23.7749 13.2766 23.5476L13.2561 20.608C13.2545 20.3807 13.0689 20.1977 12.8417 20.1993Z" fill="url(#paint9_linear_1_153)"/>
<path d="M9.82367 35.8878H35.9541C36.5333 35.8878 36.6836 36.1404 36.4049 36.6456L36.2612 36.9069C36.1322 37.1424 35.9422 37.3388 35.7112 37.4756C35.4802 37.6124 35.2166 37.6844 34.9481 37.6843L7.42621 37.6973C7.30627 37.6972 7.1895 37.66 7.09227 37.5909C6.99504 37.5218 6.92221 37.4242 6.884 37.3119C6.73157 36.8677 6.77295 36.4344 7.00812 36.0119C8.6195 33.1419 10.1982 30.3068 11.7443 27.5065C12.0273 26.9926 12.4607 26.716 13.0443 26.6768L13.5865 26.6442C14.1396 26.605 14.2811 26.8271 14.0111 27.3105L9.52318 35.3783C9.33591 35.718 9.43607 35.8878 9.82367 35.8878Z" fill="url(#paint10_linear_1_153)"/>
<path d="M19.6357 43.1651C21.2557 43.1738 22.9041 43.1847 24.5808 43.1978C25.0599 43.2021 25.4518 43.3872 25.7567 43.7531C25.9048 43.9316 26.0224 44.1298 26.1095 44.3475C26.3054 44.844 26.1356 45.0835 25.5999 45.0661C23.8927 45.0008 22.1725 45.0051 20.4392 45.0792C17.3427 45.2033 15.6181 43.3154 15.899 40.1666C15.9469 39.6179 16.2452 39.374 16.794 39.435C16.8593 39.4437 16.9268 39.4481 16.9965 39.4481C17.5583 39.4611 17.7956 39.7442 17.7085 40.2973C17.5126 41.6104 18.0874 43.1586 19.6357 43.1651Z" fill="url(#paint11_linear_1_153)"/>
<path d="M28.8205 40.2973C28.5004 41.7541 29.1145 43.1847 30.728 43.2043C33.585 43.2348 36.4266 43.2457 39.2531 43.237C39.3211 43.237 39.3885 43.2506 39.4512 43.277C39.5138 43.3034 39.5706 43.3421 39.6181 43.3908C39.6656 43.4395 39.7028 43.4972 39.7277 43.5606C39.7525 43.6239 39.7644 43.6916 39.7626 43.7596L39.7561 44.3475C39.7527 44.5266 39.678 44.6971 39.5483 44.8219C39.4187 44.9466 39.2445 45.0156 39.0636 45.0139C36.603 44.979 34.0771 44.9921 31.4858 45.0531C30.3535 45.0835 29.415 44.8854 28.6703 44.4586C27.3899 43.7269 26.4884 41.6038 26.9391 39.9837C27.0175 39.6963 27.2026 39.5265 27.4944 39.4742C27.9299 39.3958 28.287 39.4546 28.5657 39.6506C28.6665 39.7228 28.7443 39.8223 28.7895 39.9371C28.8347 40.0519 28.8455 40.1771 28.8205 40.2973Z" fill="url(#paint12_linear_1_153)"/>
<path d="M6.9624 44.9943C6.91693 44.9934 6.87206 44.9836 6.83038 44.9654C6.7887 44.9472 6.75101 44.921 6.71947 44.8882C6.68792 44.8555 6.66314 44.8168 6.64653 44.7745C6.62993 44.7322 6.62183 44.687 6.6227 44.6415V44.4847C6.62817 44.1194 6.77093 43.771 7.0196 43.5162C7.26827 43.2614 7.6025 43.121 7.94882 43.1259L13.9066 43.2174C14.0782 43.2198 14.2477 43.2578 14.4054 43.3294C14.563 43.401 14.7056 43.5047 14.8251 43.6345C14.9447 43.7643 15.0387 43.9178 15.1019 44.0861C15.1651 44.2544 15.1962 44.4342 15.1935 44.6154L15.187 44.7722C15.1852 44.8628 15.148 44.9492 15.0833 45.0128C15.0185 45.0763 14.9314 45.1119 14.8407 45.1118L6.9624 44.9943Z" fill="url(#paint13_linear_1_153)"/>
<defs>
<linearGradient id="paint0_linear_1_153" x1="0.333252" y1="0" x2="40.0323" y2="50.7098" gradientUnits="userSpaceOnUse">
<stop stop-color="#2755F3"/>
<stop offset="0.5" stop-color="#1475EE"/>
<stop offset="1" stop-color="#0095E9"/>
</linearGradient>
<linearGradient id="paint1_linear_1_153" x1="0.333252" y1="0" x2="40.0323" y2="50.7098" gradientUnits="userSpaceOnUse">
<stop stop-color="#2755F3"/>
<stop offset="0.5" stop-color="#1475EE"/>
<stop offset="1" stop-color="#0095E9"/>
</linearGradient>
<linearGradient id="paint2_linear_1_153" x1="0.333252" y1="0" x2="40.0323" y2="50.7098" gradientUnits="userSpaceOnUse">
<stop stop-color="#2755F3"/>
<stop offset="0.5" stop-color="#1475EE"/>
<stop offset="1" stop-color="#0095E9"/>
</linearGradient>
<linearGradient id="paint3_linear_1_153" x1="0.333252" y1="0" x2="40.0323" y2="50.7098" gradientUnits="userSpaceOnUse">
<stop stop-color="#2755F3"/>
<stop offset="0.5" stop-color="#1475EE"/>
<stop offset="1" stop-color="#0095E9"/>
</linearGradient>
<linearGradient id="paint4_linear_1_153" x1="0.333252" y1="0" x2="40.0323" y2="50.7098" gradientUnits="userSpaceOnUse">
<stop stop-color="#2755F3"/>
<stop offset="0.5" stop-color="#1475EE"/>
<stop offset="1" stop-color="#0095E9"/>
</linearGradient>
<linearGradient id="paint5_linear_1_153" x1="0.333252" y1="0" x2="40.0323" y2="50.7098" gradientUnits="userSpaceOnUse">
<stop stop-color="#2755F3"/>
<stop offset="0.5" stop-color="#1475EE"/>
<stop offset="1" stop-color="#0095E9"/>
</linearGradient>
<linearGradient id="paint6_linear_1_153" x1="0.333252" y1="0" x2="40.0323" y2="50.7098" gradientUnits="userSpaceOnUse">
<stop stop-color="#2755F3"/>
<stop offset="0.5" stop-color="#1475EE"/>
<stop offset="1" stop-color="#0095E9"/>
</linearGradient>
<linearGradient id="paint7_linear_1_153" x1="0.333252" y1="0" x2="40.0323" y2="50.7098" gradientUnits="userSpaceOnUse">
<stop stop-color="#2755F3"/>
<stop offset="0.5" stop-color="#1475EE"/>
<stop offset="1" stop-color="#0095E9"/>
</linearGradient>
<linearGradient id="paint8_linear_1_153" x1="0.333252" y1="0" x2="40.0323" y2="50.7098" gradientUnits="userSpaceOnUse">
<stop stop-color="#2755F3"/>
<stop offset="0.5" stop-color="#1475EE"/>
<stop offset="1" stop-color="#0095E9"/>
</linearGradient>
<linearGradient id="paint9_linear_1_153" x1="0.333252" y1="0" x2="40.0323" y2="50.7098" gradientUnits="userSpaceOnUse">
<stop stop-color="#2755F3"/>
<stop offset="0.5" stop-color="#1475EE"/>
<stop offset="1" stop-color="#0095E9"/>
</linearGradient>
<linearGradient id="paint10_linear_1_153" x1="0.333252" y1="0" x2="40.0323" y2="50.7098" gradientUnits="userSpaceOnUse">
<stop stop-color="#2755F3"/>
<stop offset="0.5" stop-color="#1475EE"/>
<stop offset="1" stop-color="#0095E9"/>
</linearGradient>
<linearGradient id="paint11_linear_1_153" x1="0.333252" y1="0" x2="40.0323" y2="50.7098" gradientUnits="userSpaceOnUse">
<stop stop-color="#2755F3"/>
<stop offset="0.5" stop-color="#1475EE"/>
<stop offset="1" stop-color="#0095E9"/>
</linearGradient>
<linearGradient id="paint12_linear_1_153" x1="0.333252" y1="0" x2="40.0323" y2="50.7098" gradientUnits="userSpaceOnUse">
<stop stop-color="#2755F3"/>
<stop offset="0.5" stop-color="#1475EE"/>
<stop offset="1" stop-color="#0095E9"/>
</linearGradient>
<linearGradient id="paint13_linear_1_153" x1="0.333252" y1="0" x2="40.0323" y2="50.7098" gradientUnits="userSpaceOnUse">
<stop stop-color="#2755F3"/>
<stop offset="0.5" stop-color="#1475EE"/>
<stop offset="1" stop-color="#0095E9"/>
</linearGradient>
</defs>
</svg>
