<svg width="62" height="57" viewBox="0 0 62 57" fill="none" xmlns="http://www.w3.org/2000/svg">
<path opacity="0.04" d="M15.6575 33.0494C18.1999 33.7972 20.1441 35.2179 21.4901 37.3117C22.9856 39.2559 23.7334 41.6487 23.7334 44.4902C23.7334 48.0795 22.6117 50.9958 20.3684 53.2391C18.1251 55.4824 15.3584 56.6041 12.0682 56.6041C8.47893 56.6041 5.56263 55.4824 3.31933 53.2391C1.22558 50.8462 0.178711 47.93 0.178711 44.4902C0.178711 42.6956 0.328264 40.9757 0.627371 39.3306C1.07603 37.536 1.89858 34.9936 3.095 31.7034L12.5169 0.74585H23.2847L15.6575 33.0494ZM53.7936 33.0494C56.336 33.7972 58.2802 35.2179 59.6262 37.3117C61.1217 39.2559 61.8695 41.6487 61.8695 44.4902C61.8695 48.0795 60.7479 50.9958 58.5046 53.2391C56.2612 55.4824 53.4945 56.6041 50.2043 56.6041C46.6151 56.6041 43.6988 55.4824 41.4555 53.2391C39.3617 50.8462 38.3148 47.93 38.3148 44.4902C38.3148 42.6956 38.4644 40.9757 38.7635 39.3306C39.2122 37.536 40.0347 34.9936 41.2311 31.7034L50.653 0.74585H61.4208L53.7936 33.0494Z" fill="url(#paint0_linear_1_247)"/>
<defs>
<linearGradient id="paint0_linear_1_247" x1="0.178711" y1="0.74585" x2="48.5288" y2="66.4249" gradientUnits="userSpaceOnUse">
<stop stop-color="#2755F3"/>
<stop offset="0.5" stop-color="#1475EE"/>
<stop offset="1" stop-color="#0095E9"/>
</linearGradient>
</defs>
</svg>
