<svg width="62" height="56" viewBox="0 0 62 56" fill="none" xmlns="http://www.w3.org/2000/svg">
<path opacity="0.04" d="M11.9247 0.14917C15.3644 0.14917 18.2059 1.3456 20.4492 3.73846C22.6925 5.98176 23.8142 8.82327 23.8142 12.263C23.8142 14.0576 23.515 16.0018 22.9168 18.0956C22.4682 20.0398 21.7952 22.3579 20.8979 25.0498L11.2517 56.0074H0.483818L8.33537 23.7038C5.79296 22.9561 3.77399 21.6101 2.27846 19.6659C0.782923 17.5721 0.0351562 15.1045 0.0351562 12.263C0.0351562 8.67372 1.15681 5.75743 3.40012 3.51412C5.64342 1.27082 8.48493 0.14917 11.9247 0.14917ZM50.0608 0.14917C53.5005 0.14917 56.342 1.3456 58.5853 3.73846C60.8286 5.98176 61.9503 8.82327 61.9503 12.263C61.9503 14.0576 61.6512 16.0018 61.053 18.0956C60.6043 20.0398 59.9313 22.3579 59.034 25.0498L49.3878 56.0074H38.6199L46.4715 23.7038C43.9291 22.9561 41.9101 21.6101 40.4146 19.6659C38.9191 17.5721 38.1713 15.1045 38.1713 12.263C38.1713 8.67372 39.2929 5.75743 41.5362 3.51412C43.7795 1.27082 46.6211 0.14917 50.0608 0.14917Z" fill="url(#paint0_linear_1_246)"/>
<defs>
<linearGradient id="paint0_linear_1_246" x1="0.0351562" y1="0.14917" x2="48.3328" y2="65.9956" gradientUnits="userSpaceOnUse">
<stop stop-color="#2755F3"/>
<stop offset="0.5" stop-color="#1475EE"/>
<stop offset="1" stop-color="#0095E9"/>
</linearGradient>
</defs>
</svg>
