<svg width="32" height="33" viewBox="0 0 32 33" fill="none" xmlns="http://www.w3.org/2000/svg">
<rect x="16" y="1.08097" width="21.6846" height="21.6846" rx="10.8423" transform="rotate(45 16 1.08097)" fill="url(#paint0_linear_1_149)"/>
<rect x="16" y="1.08097" width="21.6846" height="21.6846" rx="10.8423" transform="rotate(45 16 1.08097)" stroke="#1F1F1F" stroke-width="0.942809"/>
<path d="M23.7836 16.8467C24.0224 16.6079 24.0224 16.2207 23.7836 15.9819L19.8917 12.09C19.6529 11.8512 19.2656 11.8512 19.0268 12.09C18.788 12.3288 18.788 12.716 19.0268 12.9548L22.4863 16.4143L19.0268 19.8738C18.788 20.1126 18.788 20.4998 19.0268 20.7386C19.2656 20.9775 19.6529 20.9775 19.8917 20.7386L23.7836 16.8467ZM8.64844 17.0259H23.3511V15.8028H8.64844V17.0259Z" fill="white"/>
<defs>
<linearGradient id="paint0_linear_1_149" x1="16" y1="0.414307" x2="36.0803" y2="25.1126" gradientUnits="userSpaceOnUse">
<stop stop-color="#2755F3"/>
<stop offset="0.5" stop-color="#1475EE"/>
<stop offset="1" stop-color="#0095E9"/>
</linearGradient>
</defs>
</svg>
