<svg width="118" height="40" viewBox="0 0 118 40" fill="none" xmlns="http://www.w3.org/2000/svg">
<path d="M24.7525 0.208466C20.8888 0.74332 18.0156 3.69564 17.2297 7.44927C17.1165 7.98734 17.0991 8.57562 17.1776 9.21409C17.1879 9.29519 17.2336 9.33703 17.3147 9.3396C20.1879 9.42456 22.7945 7.47823 24.1037 4.97195C24.9237 3.4015 25.2712 1.81367 25.1464 0.208466" stroke="#1F1F1F" stroke-opacity="0.28" stroke-width="0.386176"/>
<path d="M116.951 23.196C116.879 22.7853 116.797 22.3805 116.706 21.9814C116.082 19.2473 114.111 17.1774 111.218 16.9341C107.111 16.5866 104.088 19.1179 103.244 23.0318C102.056 28.5503 104.777 33.476 110.828 33.4798C112.582 33.4818 114.372 33.2269 115.976 32.5395C116.049 32.5086 116.077 32.4533 116.059 32.3734L115.611 30.4928C115.609 30.4847 115.606 30.4772 115.601 30.4707C115.595 30.4642 115.589 30.4588 115.582 30.455C115.574 30.4511 115.566 30.4489 115.558 30.4484C115.55 30.4479 115.542 30.4492 115.534 30.4522C114.007 31.0572 112.428 31.3134 110.797 31.2207C107.521 31.0334 105.914 28.9423 105.756 25.8471C105.755 25.8329 105.757 25.8187 105.762 25.8054C105.767 25.7921 105.775 25.7799 105.784 25.7696C105.794 25.7593 105.806 25.7511 105.819 25.7455C105.832 25.7399 105.846 25.737 105.86 25.737L116.951 25.71" stroke="#1F1F1F" stroke-opacity="0.28" stroke-width="0.386176"/>
<path d="M24.6462 39.7915C27.0559 39.6119 28.5157 37.8857 29.8828 36.0205C31.403 33.9441 32.5628 31.7326 33.3622 29.386C33.3722 29.3562 33.3709 29.3237 33.3584 29.2948C33.3459 29.266 33.3232 29.2427 33.2946 29.2296C31.2807 28.3163 29.5082 26.6132 28.7165 24.5916C27.0811 20.4074 28.5485 16.2656 32.2462 13.769C32.3092 13.7253 32.3189 13.6718 32.2751 13.6088C31.3998 12.3691 30.3101 11.4307 29.0061 10.7935C26.3299 9.48568 23.5643 9.41038 20.7091 10.5676C20.0591 10.8315 19.3826 11.0941 18.6798 11.3554C17.8701 11.6566 17.0347 11.6463 16.1735 11.3245C15.4745 11.0619 14.8245 10.807 14.2233 10.5599C12.0041 9.64852 9.81254 9.6453 7.64867 10.5502C4.95058 11.6766 3.06283 13.6409 1.9854 16.4433C1.50396 17.6984 1.20854 19.0757 1.09912 20.5754" stroke="#1F1F1F" stroke-opacity="0.28" stroke-width="0.386176"/>
<path d="M99.938 9.90726C99.938 9.88626 99.9296 9.86613 99.9148 9.85128C99.8999 9.83644 99.8798 9.82809 99.8588 9.82809H97.1324C97.1114 9.82809 97.0913 9.83644 97.0764 9.85128C97.0616 9.86613 97.0532 9.88626 97.0532 9.90726V33.0585C97.0532 33.0795 97.0616 33.0996 97.0764 33.1145C97.0913 33.1293 97.1114 33.1377 97.1324 33.1377H99.8588C99.8798 33.1377 99.8999 33.1293 99.9148 33.1145C99.9296 33.0996 99.938 33.0795 99.938 33.0585V9.90726Z" stroke="#1F1F1F" stroke-opacity="0.28" stroke-width="0.386176"/>
<path d="M53.3332 26.1807C53.3461 26.1808 53.3586 26.185 53.3689 26.1926C53.3793 26.2003 53.3871 26.2109 53.3911 26.2232L55.7236 33.0952C55.7276 33.1074 55.7354 33.1181 55.7458 33.1257C55.7561 33.1333 55.7687 33.1375 55.7815 33.1376L58.7184 33.1454C58.7283 33.1456 58.738 33.1434 58.7469 33.139C58.7557 33.1346 58.7634 33.1282 58.7693 33.1203C58.7751 33.1123 58.779 33.1031 58.7806 33.0934C58.7821 33.0836 58.7813 33.0737 58.7783 33.0643L51.2729 11.0657C51.2689 11.0535 51.2612 11.0428 51.2508 11.0352C51.2404 11.0276 51.2279 11.0234 51.215 11.0233L47.8533 11.0194C47.8405 11.0196 47.828 11.0237 47.8176 11.0314C47.8072 11.039 47.7994 11.0497 47.7954 11.0619L40.321 33.0566C40.3179 33.0659 40.3171 33.0759 40.3186 33.0856C40.3202 33.0954 40.3241 33.1046 40.3299 33.1126C40.3358 33.1205 40.3435 33.1269 40.3523 33.1313C40.3612 33.1357 40.371 33.1378 40.3808 33.1376L43.2115 33.1415C43.2244 33.1413 43.2369 33.1372 43.2473 33.1296C43.2577 33.1219 43.2654 33.1113 43.2694 33.099L45.5382 26.2232C45.5422 26.2109 45.55 26.2003 45.5604 26.1926C45.5708 26.185 45.5833 26.1808 45.5961 26.1807H53.3332Z" stroke="#1F1F1F" stroke-opacity="0.28" stroke-width="0.386176"/>
<path d="M63.8996 31.1584C63.8996 31.0258 63.9375 31.0143 64.0135 31.1237C65.0002 32.5525 66.4869 33.3268 68.19 33.4774C71.7235 33.7883 74.6295 31.6238 75.6123 28.2583C76.404 25.5512 76.2398 22.1528 74.6198 19.774C73.4381 18.0387 71.8484 17.0881 69.8505 16.922C67.3771 16.7154 65.1489 17.7156 63.7702 19.8531C63.6749 20.0012 63.6235 19.987 63.6157 19.8106L63.5115 17.399C63.5076 17.3114 63.4619 17.2677 63.3744 17.2677L61.0148 17.2657C60.9376 17.2657 60.8996 17.3037 60.9009 17.3797C60.9164 18.4513 61.0148 19.5114 61.0187 20.583C61.0393 26.8197 61.0425 33.1324 61.0283 39.5211C61.0283 39.6047 61.0702 39.6466 61.1539 39.6466L63.805 39.6447C63.8693 39.6447 63.9015 39.6131 63.9015 39.55L63.8996 31.1584Z" stroke="#1F1F1F" stroke-opacity="0.28" stroke-width="0.386176"/>
<path d="M81.6229 19.8629L81.509 17.345C81.5085 17.3228 81.4993 17.3017 81.4834 17.2862C81.4676 17.2707 81.4462 17.262 81.424 17.262L79.0452 17.2697C78.9577 17.2697 78.9158 17.3135 78.9197 17.401C78.9956 19.1852 79.0342 20.8496 79.0355 22.3943C79.0407 28.0453 79.0413 33.7453 79.0375 39.4942C79.0375 39.5959 79.0883 39.6467 79.19 39.6467H81.8102C81.8358 39.6467 81.8604 39.6365 81.8785 39.6184C81.8966 39.6003 81.9068 39.5758 81.9068 39.5502L81.9048 31.1566C81.9048 31.0047 81.9473 30.9925 82.0323 31.1199C82.9552 32.5314 84.5192 33.3347 86.1585 33.4718C90.4374 33.8328 93.3685 30.8496 93.9458 26.7755C94.3667 23.8096 93.7817 20.4962 91.5148 18.4843C90.5648 17.6398 89.5254 17.1417 88.3964 16.9898C85.5091 16.601 83.288 17.569 81.733 19.8938C81.6647 19.9955 81.6281 19.9852 81.6229 19.8629Z" stroke="#1F1F1F" stroke-opacity="0.28" stroke-width="0.386176"/>
<path d="M24.2637 39.7916C23.5377 39.744 22.9919 39.6468 22.6263 39.5001C21.6358 39.1023 20.514 38.5617 19.5717 38.3666C18.3321 38.1118 17.1008 38.1568 15.8779 38.5018C14.8623 38.7876 13.4875 39.5676 12.0837 39.7916" stroke="#1F1F1F" stroke-opacity="0.28" stroke-width="0.386176"/>
<path d="M10.7458 39.7915C9.14317 39.4227 8.01747 38.3627 6.97286 37.1057C3.50629 32.9272 1.54837 28.1406 1.09912 22.7457" stroke="#1F1F1F" stroke-opacity="0.28" stroke-width="0.386176"/>
<path d="M48.0374 18.3741C47.4221 20.2007 46.8074 22.0177 46.1934 23.825C46.1891 23.8381 46.1879 23.8521 46.1899 23.8658C46.192 23.8794 46.1972 23.8923 46.2051 23.9035C46.213 23.9146 46.2235 23.9237 46.2355 23.9298C46.2476 23.936 46.261 23.9391 46.2745 23.9389L52.7372 23.9486C52.7432 23.9485 52.7492 23.9471 52.7546 23.9443C52.7599 23.9416 52.7646 23.9376 52.7682 23.9327C52.7718 23.9279 52.7741 23.9222 52.7751 23.9162C52.7761 23.9103 52.7757 23.9041 52.7738 23.8984C51.6269 20.5251 50.4047 17.1596 49.5126 13.6917C49.4778 13.5527 49.4431 13.5527 49.4083 13.6917C48.9745 15.3883 48.5175 16.9491 48.0374 18.3741Z" stroke="#1F1F1F" stroke-opacity="0.28" stroke-width="0.386176"/>
<path d="M71.2415 30.228C73.6204 28.2044 73.7401 23.5085 72.0197 21.0601C70.5329 18.942 67.6655 18.5963 65.6767 20.2472C64.8259 20.9539 64.2691 21.9104 64.0065 23.1165C63.798 24.0665 63.9351 25.1034 63.8945 26.1017C63.8385 27.5807 64.1398 28.8435 65.1457 29.8688C66.7464 31.5023 69.4535 31.7495 71.2415 30.228Z" stroke="#1F1F1F" stroke-opacity="0.28" stroke-width="0.386176"/>
<path d="M82.2527 22.323C81.7816 23.5453 81.9148 24.7617 81.8917 26.0284C81.8762 26.9179 81.9618 27.6407 82.1485 28.1967C83.1989 31.3325 87.3657 32.3404 89.6422 29.8515C91.492 27.828 91.6272 23.9874 90.3991 21.6549C88.4625 17.9824 83.6758 18.6215 82.2527 22.323Z" stroke="#1F1F1F" stroke-opacity="0.28" stroke-width="0.386176"/>
<path d="M106.382 21.5739C106.072 22.1969 105.879 22.8753 105.805 23.609C105.804 23.6166 105.804 23.6243 105.807 23.6315C105.809 23.6388 105.813 23.6455 105.818 23.6511C105.823 23.6568 105.829 23.6613 105.835 23.6643C105.842 23.6674 105.849 23.6689 105.857 23.6689H114.092C114.164 23.6689 114.2 23.6328 114.2 23.5607C114.214 21.4812 113.24 19.3958 111.035 19.0541C108.933 18.7284 107.382 19.5683 106.382 21.5739Z" stroke="#1F1F1F" stroke-opacity="0.28" stroke-width="0.386176"/>
<path d="M24.7515 0.208466H25.1454C25.2702 1.81367 24.9227 3.4015 24.1027 4.97195C22.7936 7.47823 20.1869 9.42456 17.3137 9.3396C17.2326 9.33703 17.1869 9.29519 17.1766 9.21409C17.0981 8.57561 17.1155 7.98734 17.2288 7.44927C18.0146 3.69564 20.8878 0.74332 24.7515 0.208466Z" fill="#1F1F1F" fill-opacity="0.28"/>
<path d="M24.6452 39.7915H24.2629C23.5369 39.7439 22.9911 39.6467 22.6255 39.4999C21.635 39.1022 20.5131 38.5615 19.5709 38.3665C18.3313 38.1116 17.1 38.1567 15.8771 38.5017C14.8615 38.7874 13.4867 39.5675 12.0829 39.7915H10.7448C9.14219 39.4227 8.01649 38.3626 6.97188 37.1056C3.50531 32.9272 1.5474 28.1406 1.09814 22.7457V20.5754C1.20756 19.0757 1.50299 17.6984 1.98442 16.4433C3.06185 13.6409 4.94961 11.6766 7.64769 10.5502C9.81157 9.6453 12.0031 9.64852 14.2223 10.5599C14.8235 10.807 15.4736 11.0619 16.1725 11.3245C17.0337 11.6463 17.8691 11.6566 18.6788 11.3554C19.3817 11.0941 20.0581 10.8315 20.7082 10.5676C23.5633 9.41038 26.329 9.48568 29.0052 10.7935C30.3092 11.4307 31.3988 12.3691 32.2741 13.6088C32.3179 13.6718 32.3083 13.7253 32.2452 13.769C28.5475 16.2656 27.0801 20.4074 28.7155 24.5916C29.5072 26.6132 31.2797 28.3163 33.2937 29.2296C33.3222 29.2427 33.3449 29.266 33.3574 29.2948C33.3699 29.3237 33.3713 29.3562 33.3612 29.386C32.5618 31.7326 31.402 33.9441 29.8818 36.0205C28.5147 37.8857 27.055 39.6119 24.6452 39.7915Z" fill="#1F1F1F" fill-opacity="0.28"/>
<path d="M99.8578 9.82809H97.1314C97.0877 9.82809 97.0522 9.86354 97.0522 9.90726V33.0585C97.0522 33.1022 97.0877 33.1377 97.1314 33.1377H99.8578C99.9015 33.1377 99.937 33.1022 99.937 33.0585V9.90726C99.937 9.86354 99.9015 9.82809 99.8578 9.82809Z" fill="#1F1F1F" fill-opacity="0.28"/>
<path d="M53.3322 26.1807H45.5952C45.5823 26.1808 45.5698 26.185 45.5594 26.1926C45.549 26.2003 45.5413 26.2109 45.5372 26.2232L43.2684 33.099C43.2644 33.1113 43.2567 33.1219 43.2463 33.1296C43.2359 33.1372 43.2234 33.1413 43.2105 33.1415L40.3799 33.1376C40.37 33.1378 40.3602 33.1357 40.3514 33.1313C40.3425 33.1269 40.3348 33.1205 40.329 33.1126C40.3231 33.1046 40.3192 33.0954 40.3177 33.0856C40.3161 33.0759 40.3169 33.0659 40.32 33.0566L47.7944 11.0619C47.7985 11.0497 47.8062 11.039 47.8166 11.0314C47.827 11.0237 47.8395 11.0196 47.8524 11.0194L51.214 11.0233C51.2269 11.0234 51.2394 11.0276 51.2498 11.0352C51.2602 11.0428 51.2679 11.0535 51.272 11.0657L58.7773 33.0643C58.7804 33.0737 58.7812 33.0836 58.7796 33.0934C58.778 33.1031 58.7742 33.1123 58.7683 33.1203C58.7624 33.1282 58.7548 33.1346 58.7459 33.139C58.7371 33.1434 58.7273 33.1456 58.7174 33.1454L55.7806 33.1376C55.7677 33.1375 55.7552 33.1333 55.7448 33.1257C55.7344 33.1181 55.7267 33.1074 55.7226 33.0952L53.3901 26.2232C53.3861 26.2109 53.3784 26.2003 53.368 26.1926C53.3576 26.185 53.3451 26.1808 53.3322 26.1807ZM48.0358 18.3741C47.4205 20.2007 46.8058 22.0177 46.1918 23.825C46.1875 23.8381 46.1863 23.8521 46.1883 23.8658C46.1904 23.8794 46.1956 23.8924 46.2035 23.9035C46.2114 23.9146 46.2219 23.9237 46.2339 23.9298C46.246 23.936 46.2594 23.9391 46.2729 23.9389L52.7356 23.9486C52.7416 23.9486 52.7476 23.9471 52.753 23.9444C52.7583 23.9416 52.763 23.9376 52.7666 23.9328C52.7702 23.9279 52.7725 23.9222 52.7735 23.9162C52.7745 23.9103 52.7741 23.9042 52.7722 23.8984C51.6253 20.5251 50.4031 17.1596 49.511 13.6917C49.4762 13.5527 49.4415 13.5527 49.4067 13.6917C48.9729 15.3883 48.5159 16.9491 48.0358 18.3741Z" fill="#1F1F1F" fill-opacity="0.28"/>
<path d="M63.8986 31.1584L63.9005 39.55C63.9005 39.6131 63.8683 39.6447 63.804 39.6447L61.1529 39.6466C61.0692 39.6466 61.0274 39.6047 61.0274 39.5211C61.0415 33.1324 61.0383 26.8197 61.0177 20.583C61.0139 19.5114 60.9154 18.4513 60.8999 17.3797C60.8986 17.3037 60.9366 17.2657 61.0139 17.2657L63.3734 17.2677C63.4609 17.2677 63.5066 17.3114 63.5105 17.399L63.6148 19.8106C63.6225 19.987 63.674 20.0012 63.7692 19.8531C65.1479 17.7156 67.3761 16.7154 69.8496 16.922C71.8474 17.0881 73.4371 18.0387 74.6188 19.774C76.2389 22.1528 76.403 25.5512 75.6113 28.2583C74.6285 31.6238 71.7225 33.7883 68.189 33.4774C66.486 33.3268 64.9992 32.5525 64.0125 31.1237C63.9366 31.0143 63.8986 31.0258 63.8986 31.1584ZM71.2417 30.2277C73.6206 28.2042 73.7403 23.5083 72.0199 21.0599C70.5331 18.9418 67.6657 18.5961 65.6769 20.247C64.8261 20.9537 64.2693 21.9102 64.0067 23.1163C63.7982 24.0663 63.9353 25.1032 63.8947 26.1015C63.8387 27.5805 64.14 28.8433 65.1459 29.8686C66.7466 31.5021 69.4537 31.7493 71.2417 30.2277Z" fill="#1F1F1F" fill-opacity="0.28"/>
<path d="M81.6219 19.8629C81.6271 19.9852 81.6638 19.9955 81.732 19.8938C83.287 17.569 85.5082 16.601 88.3955 16.9898C89.5244 17.1417 90.5638 17.6398 91.5138 18.4843C93.7807 20.4962 94.3657 23.8096 93.9448 26.7755C93.3675 30.8496 90.4364 33.8328 86.1576 33.4718C84.5183 33.3347 82.9542 32.5314 82.0313 31.1199C81.9463 30.9925 81.9038 31.0047 81.9038 31.1566L81.9058 39.5502C81.9058 39.5758 81.8956 39.6003 81.8775 39.6184C81.8594 39.6365 81.8348 39.6467 81.8092 39.6467H79.189C79.0873 39.6467 79.0365 39.5959 79.0365 39.4942C79.0404 33.7453 79.0397 28.0453 79.0346 22.3943C79.0333 20.8496 78.9946 19.1852 78.9187 17.401C78.9148 17.3135 78.9567 17.2697 79.0442 17.2697L81.4231 17.262C81.4453 17.262 81.4666 17.2707 81.4825 17.2862C81.4983 17.3017 81.5075 17.3228 81.508 17.345L81.6219 19.8629ZM82.2514 22.3229C81.7803 23.5451 81.9135 24.7616 81.8903 26.0282C81.8749 26.9177 81.9605 27.6405 82.1471 28.1966C83.1975 31.3323 87.3644 32.3403 89.6409 29.8514C91.4907 27.8278 91.6258 23.9873 90.3978 21.6548C88.4611 17.9822 83.6745 18.6214 82.2514 22.3229Z" fill="#1F1F1F" fill-opacity="0.28"/>
<path d="M116.95 23.196V25.71L105.859 25.737C105.845 25.737 105.831 25.7399 105.818 25.7455C105.805 25.7511 105.793 25.7593 105.783 25.7696C105.774 25.7799 105.766 25.7921 105.761 25.8054C105.756 25.8187 105.754 25.8329 105.755 25.8471C105.913 28.9423 107.52 31.0334 110.796 31.2207C112.427 31.3134 114.006 31.0572 115.533 30.4522C115.541 30.4492 115.549 30.4479 115.557 30.4484C115.565 30.4489 115.573 30.4511 115.581 30.455C115.588 30.4588 115.594 30.4642 115.6 30.4707C115.605 30.4772 115.608 30.4847 115.61 30.4928L116.058 32.3734C116.076 32.4532 116.048 32.5086 115.975 32.5395C114.371 33.2269 112.581 33.4818 110.827 33.4798C104.776 33.476 102.055 28.5503 103.243 23.0318C104.087 19.1179 107.11 16.5866 111.217 16.9341C114.11 17.1774 116.081 19.2473 116.705 21.9814C116.796 22.3805 116.878 22.7853 116.95 23.196ZM106.381 21.574C106.07 22.1971 105.878 22.8754 105.803 23.6092C105.802 23.6168 105.803 23.6244 105.805 23.6317C105.808 23.639 105.811 23.6456 105.816 23.6513C105.821 23.6569 105.827 23.6614 105.834 23.6645C105.841 23.6676 105.848 23.6691 105.855 23.669H114.091C114.163 23.669 114.199 23.633 114.199 23.5609C114.212 21.4813 113.239 19.396 111.034 19.0542C108.932 18.7286 107.381 19.5685 106.381 21.574Z" fill="#1F1F1F" fill-opacity="0.28"/>
</svg>
