<svg width="30" height="30" viewBox="0 0 30 30" fill="none" xmlns="http://www.w3.org/2000/svg">
<rect x="0.947957" y="1.20443" width="28.4375" height="28.4375" rx="14.2188" fill="url(#paint0_linear_1_282)"/>
<rect x="0.947957" y="1.20443" width="28.4375" height="28.4375" rx="14.2188" stroke="url(#paint1_linear_1_282)" stroke-width="0.729167"/>
<path fill-rule="evenodd" clip-rule="evenodd" d="M19.5231 19.0522C19.5243 19.1966 19.4778 19.2381 19.3373 19.2348C18.938 19.2271 18.5388 19.2211 18.1402 19.237C17.94 19.2452 17.8798 19.1932 17.8825 18.9849C17.8946 18.0875 17.8869 17.1895 17.8885 16.2916C17.8885 16.0455 17.8722 15.8016 17.7819 15.5697C17.6288 15.1781 17.3646 14.9129 16.9266 14.8746C16.4606 14.8336 16.1222 15.0457 15.8936 15.439C15.7437 15.6966 15.7093 15.9842 15.7098 16.2784C15.712 17.1857 15.7049 18.0924 15.7153 18.9991C15.718 19.1944 15.6584 19.243 15.4713 19.2364C15.0727 19.2228 14.6735 19.2261 14.2743 19.2354C14.1212 19.2392 14.0746 19.1932 14.0746 19.0379C14.0796 17.1698 14.079 15.3017 14.0758 13.4336C14.0758 13.2996 14.1031 13.2394 14.254 13.2428C14.68 13.252 15.1066 13.252 15.5326 13.2428C15.6803 13.24 15.7191 13.2936 15.7131 13.4314C15.7038 13.6551 15.7109 13.8793 15.7109 14.1614C16.3426 13.3805 17.1032 13.1241 18.0067 13.3062C18.8817 13.4828 19.4838 14.2703 19.5089 15.3253C19.5385 16.5666 19.5166 17.8097 19.5231 19.0522ZM12.1705 12.5477C11.6405 12.5465 11.226 12.1265 11.2271 11.5928C11.2281 11.0656 11.6553 10.6358 12.1759 10.6368C12.6971 10.6385 13.1204 11.07 13.1187 11.5977C13.1176 12.1326 12.702 12.5487 12.1705 12.5477ZM12.7567 19.237C12.3585 19.2211 11.9588 19.2271 11.5602 19.2348C11.4174 19.2376 11.3529 19.2113 11.3534 19.045C11.3589 17.178 11.3583 15.3116 11.3539 13.4445C11.3534 13.2947 11.3895 13.2383 11.5492 13.2428C11.9566 13.2531 12.3651 13.2559 12.772 13.2416C12.9596 13.235 12.994 13.3045 12.993 13.474C12.9859 14.3982 12.9896 15.3225 12.9896 16.2472C12.9896 17.1621 12.9842 18.0777 12.9935 18.9931C12.9957 19.179 12.953 19.2447 12.7567 19.237ZM21.6696 11.0755C21.6324 10.7785 21.6275 10.4728 21.4635 10.207C20.9325 9.34572 20.1996 8.85512 19.1491 8.86064C16.4913 8.87431 13.8335 8.86064 11.1756 8.86994C10.7765 8.87098 10.3658 8.8841 10.0032 9.09848C9.1183 9.62238 8.59877 10.3546 8.60429 11.4282C8.61682 14.0948 8.60429 16.7613 8.61299 19.4284C8.61463 19.8041 8.62015 20.1973 8.81697 20.5358C9.28182 21.3365 9.89437 21.931 10.9006 21.9271C10.9295 21.9271 10.952 21.9407 10.9761 21.9533H19.3569C19.4034 21.9118 19.4603 21.9325 19.5128 21.926C19.8141 21.8882 20.1253 21.8866 20.3927 21.7138C21.1403 21.2304 21.6899 20.6217 21.673 19.6597C21.673 19.6428 21.6849 19.6275 21.6976 19.6133V11.2324C21.6603 11.1849 21.6762 11.1285 21.6696 11.0755Z" fill="#FAFAFA"/>
<defs>
<linearGradient id="paint0_linear_1_282" x1="0.583374" y1="0.839844" x2="26.4668" y2="32.6758" gradientUnits="userSpaceOnUse">
<stop stop-color="#2755F3"/>
<stop offset="0.5" stop-color="#1475EE"/>
<stop offset="1" stop-color="#0095E9"/>
</linearGradient>
<linearGradient id="paint1_linear_1_282" x1="0.583374" y1="0.839844" x2="26.4668" y2="32.6758" gradientUnits="userSpaceOnUse">
<stop stop-color="#2755F3"/>
<stop offset="0.5" stop-color="#1475EE"/>
<stop offset="1" stop-color="#0095E9"/>
</linearGradient>
</defs>
</svg>
