<svg width="19" height="18" viewBox="0 0 19 18" fill="none" xmlns="http://www.w3.org/2000/svg">
<path d="M9.45842 8.55868C8.97495 8.55868 8.51128 8.36662 8.16942 8.02476C7.82755 7.68289 7.6355 7.21923 7.6355 6.73576C7.6355 6.25229 7.82755 5.78863 8.16942 5.44676C8.51128 5.1049 8.97495 4.91284 9.45842 4.91284C9.94188 4.91284 10.4055 5.1049 10.7474 5.44676C11.0893 5.78863 11.2813 6.25229 11.2813 6.73576C11.2813 6.97515 11.2342 7.21219 11.1426 7.43336C11.051 7.65453 10.9167 7.85548 10.7474 8.02476C10.5781 8.19403 10.3772 8.3283 10.156 8.41991C9.93485 8.51152 9.6978 8.55868 9.45842 8.55868ZM9.45842 1.63159C8.10471 1.63159 6.80644 2.16935 5.84922 3.12657C4.89201 4.08378 4.35425 5.38205 4.35425 6.73576C4.35425 10.5639 9.45842 16.2149 9.45842 16.2149C9.45842 16.2149 14.5626 10.5639 14.5626 6.73576C14.5626 5.38205 14.0248 4.08378 13.0676 3.12657C12.1104 2.16935 10.8121 1.63159 9.45842 1.63159Z" fill="#4E4D4D"/>
</svg>
