<svg width="53" height="46" viewBox="0 0 53 46" fill="none" xmlns="http://www.w3.org/2000/svg">
<path d="M38.2412 2.34061C30.7 1.70703 22.3707 4.75903 25.0209 14.2705C25.0395 14.341 25.0765 14.4053 25.1282 14.4567C25.1799 14.5082 25.2445 14.5452 25.3156 14.564C25.3867 14.5827 25.4618 14.5826 25.5335 14.5637C25.6052 14.5447 25.6709 14.5076 25.7241 14.4559C28.2893 11.9474 30.7438 9.22244 33.0875 6.28118C33.4275 5.84849 33.8138 5.8047 34.2465 6.14982L34.5092 6.36617C35.0604 6.80401 35.1119 7.29336 34.6637 7.83423C30.5532 12.8256 25.7859 19.4164 18.6233 19.4782C18.2576 19.4782 18.0721 19.2954 18.067 18.9296L18.0593 18.1183C18.0576 17.9704 18.1097 17.8267 18.2061 17.7133C18.3025 17.5998 18.4369 17.5242 18.5847 17.5002C20.0939 17.253 21.544 16.8692 22.9348 16.3489C23.0582 16.3021 23.1581 16.2085 23.2131 16.0885C23.268 15.9685 23.2735 15.8317 23.2284 15.7076C18.9169 3.42233 30.0973 -0.804122 39.7788 0.12307C40.3608 0.179732 40.6828 0.499097 40.7446 1.08117C41.6486 9.31 38.9752 19.3237 28.7143 18.5278C28.0446 18.4763 27.9364 18.2033 28.3897 17.7088C28.5649 17.5234 28.7529 17.3482 28.9538 17.1834C29.4843 16.7456 30.0896 16.488 30.7695 16.4108C37.4453 15.6535 38.9366 8.49099 38.6661 2.78875C38.6558 2.51059 38.5142 2.36121 38.2412 2.34061Z" fill="url(#paint0_linear_1_162)"/>
<path d="M8.03786 26.0536L9.645 26.0458C9.77514 26.0446 9.90415 26.07 10.024 26.1207C10.1439 26.1713 10.2521 26.246 10.342 26.3402C10.4318 26.4344 10.5013 26.546 10.5462 26.6681C10.5912 26.7903 10.6105 26.9204 10.6031 27.0503L10.5876 27.2975C10.5464 27.9569 10.1962 28.2762 9.53682 28.2556L7.95287 28.2016C7.50473 28.1861 7.28066 28.4024 7.28066 28.8506L7.2652 43.2684C7.26502 43.5509 7.1669 43.8243 6.98776 44.0415C6.80862 44.2587 6.5597 44.4061 6.28392 44.4583L1.35435 45.3932C0.906208 45.4808 0.684711 45.2954 0.689862 44.8369L0.705316 44.0102C0.707943 43.8402 0.769459 43.6765 0.87937 43.5469C0.98928 43.4172 1.14077 43.3297 1.30799 43.2993L4.29046 42.7894C4.5385 42.7456 4.76303 42.616 4.92426 42.4237C5.08548 42.2313 5.173 41.9886 5.17129 41.7386L5.03994 25.5281C5.03479 24.9873 4.76436 24.6653 4.22865 24.5623L1.34662 24.006C1.16106 23.9704 0.993527 23.8717 0.872422 23.7266C0.751318 23.5816 0.68409 23.3991 0.682134 23.2102L0.66668 22.3602C0.665591 22.2857 0.680862 22.2118 0.711385 22.1439C0.741907 22.076 0.786915 22.0159 0.843142 21.9678C0.899369 21.9197 0.965406 21.8849 1.03645 21.8659C1.1075 21.8469 1.18178 21.8442 1.2539 21.858C2.78892 22.1413 4.4759 22.4555 6.31483 22.8007C6.71146 22.8779 6.98962 23.0865 7.1493 23.4265C7.36565 23.8953 7.39398 24.4207 7.23429 25.0027C7.0437 25.7033 7.31156 26.0536 8.03786 26.0536Z" fill="url(#paint1_linear_1_162)"/>
<path d="M44.2447 25.9686C45.3033 25.5745 46.1841 24.8482 47.3122 24.5932C49.3263 24.1451 50.8175 24.807 51.7859 26.579C53.0762 28.9433 51.4691 30.9831 49.4138 32.1267C44.6594 34.7898 39.9693 37.5018 35.3437 40.2628C34.2929 40.8912 33.2163 41.2054 32.114 41.2054C25.3712 41.2209 18.0026 41.2157 10.0081 41.19C9.51364 41.19 9.25867 40.9427 9.24321 40.4482L9.23549 40.2396C9.21488 39.5236 9.56 39.1656 10.2709 39.1656H31.7817C32.4752 39.1655 33.1546 38.9843 33.752 38.6402C38.9597 35.6474 43.9846 32.7474 48.8266 29.94C49.9856 29.2704 50.2483 28.3921 49.6147 27.3053C49.4241 26.9781 49.1168 26.7353 48.7552 26.6263C48.3936 26.5172 48.0048 26.55 47.6676 26.718L44.5229 28.2711C44.2637 28.4007 44.0585 28.6168 43.9434 28.8815C43.3021 30.3727 42.0426 31.4776 40.3582 31.4776C35.3257 31.4828 30.2287 31.4751 25.0673 31.4545C24.7891 31.4545 24.6423 31.3179 24.6269 31.0449L24.5342 29.8087C24.5084 29.443 24.6784 29.2601 25.0441 29.2601L40.196 29.2292C40.4791 29.2291 40.7593 29.1517 41.0073 29.0051C42.2538 28.2428 42.2873 27.3465 41.1077 26.3163C40.7879 26.0363 40.3812 25.8753 39.9565 25.8604C35.0011 25.7059 29.2963 25.4045 22.842 24.9564C17.7657 24.601 13.9255 26.2931 13.7324 31.9412C13.7283 32.0518 13.7028 32.1606 13.6571 32.2612C13.6114 32.3618 13.5465 32.4524 13.4662 32.5278C13.3858 32.6031 13.2915 32.6617 13.1887 32.7003C13.0859 32.7389 12.9766 32.7566 12.867 32.7525L12.4652 32.7371C12.3438 32.7341 12.2241 32.7071 12.1132 32.6576C12.0023 32.6081 11.9023 32.5371 11.8189 32.4487C11.7356 32.3604 11.6706 32.2564 11.6277 32.1427C11.5848 32.0291 11.5648 31.9081 11.5689 31.7867C11.7466 25.4045 16.2976 22.4916 22.2548 22.8238C28.7091 23.1844 34.741 23.4909 40.3505 23.7433C41.8083 23.8051 42.9055 24.4747 43.6421 25.7522C43.7811 25.9943 43.982 26.0664 44.2447 25.9686Z" fill="url(#paint2_linear_1_162)"/>
<path d="M2.338 28.334L1.45733 28.3171C1.09041 28.3101 0.787252 28.6018 0.780207 28.9687L0.723544 31.9197C0.716499 32.2867 1.00823 32.5898 1.37515 32.5969L2.25582 32.6138C2.62274 32.6208 2.9259 32.3291 2.93295 31.9622L2.98961 29.0111C2.99665 28.6442 2.70492 28.3411 2.338 28.334Z" fill="url(#paint3_linear_1_162)"/>
<defs>
<linearGradient id="paint0_linear_1_162" x1="0.666626" y1="0" x2="39.6368" y2="54.442" gradientUnits="userSpaceOnUse">
<stop stop-color="#2755F3"/>
<stop offset="0.5" stop-color="#1475EE"/>
<stop offset="1" stop-color="#0095E9"/>
</linearGradient>
<linearGradient id="paint1_linear_1_162" x1="0.666626" y1="0" x2="39.6368" y2="54.442" gradientUnits="userSpaceOnUse">
<stop stop-color="#2755F3"/>
<stop offset="0.5" stop-color="#1475EE"/>
<stop offset="1" stop-color="#0095E9"/>
</linearGradient>
<linearGradient id="paint2_linear_1_162" x1="0.666626" y1="0" x2="39.6368" y2="54.442" gradientUnits="userSpaceOnUse">
<stop stop-color="#2755F3"/>
<stop offset="0.5" stop-color="#1475EE"/>
<stop offset="1" stop-color="#0095E9"/>
</linearGradient>
<linearGradient id="paint3_linear_1_162" x1="0.666626" y1="0" x2="39.6368" y2="54.442" gradientUnits="userSpaceOnUse">
<stop stop-color="#2755F3"/>
<stop offset="0.5" stop-color="#1475EE"/>
<stop offset="1" stop-color="#0095E9"/>
</linearGradient>
</defs>
</svg>
