<svg width="159" height="38" viewBox="0 0 159 38" fill="none" xmlns="http://www.w3.org/2000/svg">
<g clip-path="url(#clip0_1_65)">
<path d="M138.388 -0.00787354H138.829C139.023 0.0119717 139.214 0.0404993 139.402 0.0777093C139.965 0.189339 140.437 0.4434 140.819 0.839892C141.109 1.14067 141.237 1.52704 141.199 1.95247C140.905 5.26291 140.618 8.50245 140.341 11.6711C140.311 12.0215 140.057 12.3117 139.754 12.4891C139.375 12.7107 138.945 12.8083 138.463 12.7818C137.916 12.752 137.259 12.517 136.988 12.0177C136.929 11.9098 136.892 11.7674 136.876 11.5905C136.581 8.2887 136.294 5.0595 136.014 1.90286C135.965 1.34471 136.288 0.837412 136.728 0.540352C137.21 0.215386 137.764 0.0326439 138.388 -0.00787354Z" fill="#1F1F1F" fill-opacity="0.28"/>
<path d="M131.22 16.7492C128.273 15.3823 125.327 14.0161 122.381 12.6474C121.946 12.4452 121.7 11.8579 121.656 11.391C121.559 10.3695 122.056 9.32022 122.806 8.63122C123.409 8.07741 124.334 7.69911 125.079 8.22129C127.911 10.2062 130.586 12.0783 133.106 13.8375C133.462 14.0862 133.564 14.5426 133.527 14.9519C133.456 15.716 132.964 16.4806 132.266 16.7963C132.082 16.8794 131.901 16.916 131.722 16.9061C131.599 16.8995 131.432 16.8472 131.22 16.7492Z" fill="#1F1F1F" fill-opacity="0.28"/>
<path d="M153.623 8.12517C154.863 8.64425 155.731 10.1847 155.545 11.5001C155.477 11.9807 155.224 12.47 154.783 12.6753C151.756 14.0843 148.786 15.4661 145.872 16.8205C145.624 16.9359 145.324 16.9433 145.07 16.841C144.524 16.6206 144.124 16.2169 143.871 15.6298C143.627 15.0605 143.564 14.2121 144.136 13.8133C146.777 11.971 149.423 10.1211 152.074 8.26347C152.253 8.13819 152.414 8.05695 152.557 8.01974C152.893 7.93292 153.248 7.96806 153.623 8.12517Z" fill="#1F1F1F" fill-opacity="0.28"/>
<path d="M8.57937 25.1814C8.60129 25.1826 8.6139 25.1725 8.6172 25.151C8.7892 24.0938 8.96946 23.1239 9.15799 22.2412C9.50032 20.6391 9.88048 18.9386 10.2985 17.1397C10.9988 14.1257 11.705 11.1032 12.417 8.07227C12.4215 8.0516 12.4343 8.04126 12.4554 8.04126H17.2952C17.3208 8.04126 17.3361 8.05366 17.3411 8.07847C18.017 11.2426 18.7071 14.4782 19.4112 17.7853C19.8961 20.0632 20.3879 22.6151 20.7241 25.0487C20.7247 25.0527 20.7261 25.0566 20.7282 25.0601C20.7303 25.0636 20.7331 25.0666 20.7365 25.0691C20.7398 25.0715 20.7436 25.0732 20.7477 25.0742C20.7517 25.0752 20.7559 25.0753 20.76 25.0747C20.784 25.0706 20.7977 25.0569 20.801 25.0338C21.139 22.7894 21.5861 20.5804 22.0531 18.2448C22.1391 17.814 22.222 17.4084 22.3018 17.0281C22.9509 13.9272 23.5779 10.9376 24.1827 8.05925C24.1852 8.04726 24.1926 8.04126 24.2051 8.04126H28.8693C28.8722 8.04123 28.875 8.04188 28.8776 8.04317C28.8802 8.04446 28.8824 8.04635 28.8842 8.0487C28.8859 8.05104 28.8871 8.05377 28.8876 8.05668C28.8882 8.05958 28.8881 8.06258 28.8873 8.06545L23.0664 30.0794C23.0619 30.0976 23.0503 30.1086 23.0317 30.1123C22.1424 30.2953 21.258 30.3957 20.4109 30.2686C18.6006 29.9963 17.7826 28.7262 17.4149 27.0667C16.8898 24.7006 16.3707 22.3375 15.8576 19.9776C15.3968 17.8616 14.9541 15.6426 14.7159 13.4621C14.7134 13.4386 14.7035 13.4197 14.6861 13.4057C14.6819 13.4023 14.6768 13.4 14.6713 13.3992C14.6659 13.3983 14.6604 13.3989 14.6552 13.4008C14.6501 13.4028 14.6456 13.406 14.6421 13.4102C14.6386 13.4145 14.6362 13.4195 14.6353 13.4249C14.3674 15.0985 14.03 16.7628 13.6232 18.4179C12.6454 22.3968 11.6889 26.2832 10.7537 30.077C10.752 30.084 10.7483 30.0905 10.7432 30.0955C10.738 30.1006 10.7315 30.104 10.7245 30.1055C10.0428 30.2531 9.3674 30.3277 8.69845 30.3294C7.34525 30.3331 6.24073 29.8394 5.58212 28.5886C5.31296 28.078 5.09591 27.4824 4.93094 26.8019C3.47025 20.7846 1.99012 14.7138 0.490561 8.58949C0.44715 8.41212 0.408079 8.23889 0.37335 8.06979C0.369629 8.05077 0.377278 8.04126 0.396296 8.04126H5.3049C5.31317 8.04126 5.31793 8.0454 5.31917 8.05366C6.03649 11.6837 6.72157 15.1986 7.37439 18.5983C7.76799 20.6474 8.15766 22.8308 8.5434 25.1485C8.54478 25.1572 8.54907 25.1651 8.5556 25.1711C8.56212 25.1771 8.5705 25.1807 8.57937 25.1814Z" fill="#1F1F1F" fill-opacity="0.28"/>
<path d="M48.9455 8.06616V30.0777C48.9455 30.0838 48.9431 30.0896 48.9388 30.0939C48.9345 30.0982 48.9287 30.1006 48.9226 30.1006H44.4872C44.4811 30.1006 44.4753 30.0982 44.471 30.0939C44.4667 30.0896 44.4642 30.0838 44.4642 30.0777V8.06616C44.4642 8.06007 44.4667 8.05424 44.471 8.04993C44.4753 8.04563 44.4811 8.04321 44.4872 8.04321H48.9226C48.9287 8.04321 48.9345 8.04563 48.9388 8.04993C48.9431 8.05424 48.9455 8.06007 48.9455 8.06616Z" fill="#1F1F1F" fill-opacity="0.28"/>
<path d="M110.487 13.2637H114.321C114.345 13.2637 114.357 13.2752 114.357 13.2984V17.4436C114.357 17.4655 114.346 17.4765 114.324 17.4765H110.489C110.467 17.4765 110.456 17.4876 110.456 17.5099C110.451 19.9753 110.452 22.1484 110.46 24.0291C110.46 24.2768 110.483 24.549 110.526 24.8459C110.704 26.0664 111.294 26.7213 112.579 26.694C113.165 26.6811 113.691 26.6177 114.157 26.5036C114.184 26.497 114.198 26.5077 114.198 26.5358L114.251 29.948C114.251 29.9893 114.232 30.0156 114.192 30.0267C113.006 30.3649 111.839 30.5109 110.69 30.4646C109.583 30.4199 108.624 30.0983 107.815 29.4996C106.744 28.7076 106.295 27.396 106.128 26.0626C106.059 25.5132 106.024 24.9844 106.024 24.4763C106.023 19.1222 106.022 13.655 106.024 8.07475C106.024 8.05242 106.035 8.04126 106.056 8.04126H110.418C110.442 8.04126 110.454 8.05325 110.454 8.07723V13.2314C110.454 13.2529 110.465 13.2637 110.487 13.2637Z" fill="#1F1F1F" fill-opacity="0.28"/>
<path d="M37.3942 19.1455C37.4742 17.0512 35.9021 16.3368 34.0565 16.3913C32.4846 16.4376 31.0226 16.8534 29.6707 17.6385C29.6624 17.643 29.657 17.641 29.6545 17.6323L28.7857 14.658C28.7845 14.6535 28.7847 14.6488 28.7864 14.6446C28.7881 14.6404 28.7911 14.6371 28.795 14.635C29.2312 14.3878 29.6827 14.1778 30.1494 14.0049C31.9438 13.3405 33.8258 13.066 35.7954 13.1814C37.9728 13.3091 39.9772 14.1358 41.0829 16.0794C41.7651 17.2788 42.02 18.756 42.0181 20.1502C42.0157 22.41 42.0186 24.6546 42.0268 26.8839C42.031 27.9572 42.112 29.0206 42.2699 30.074C42.2728 30.0939 42.2648 30.1067 42.2457 30.1125C40.4262 30.6613 38.5272 30.3475 37.8184 28.3754C37.8142 28.3634 37.8068 28.3528 37.7971 28.3446C37.7874 28.3364 37.7757 28.3309 37.7632 28.3288C37.7507 28.3266 37.7378 28.3279 37.7259 28.3324C37.714 28.3368 37.7036 28.3444 37.6956 28.3543C36.3213 30.0443 34.0862 30.6905 31.9888 30.4145C28.6747 29.9785 26.9072 26.8696 27.8387 23.7446C28.5686 21.2956 30.929 20.0832 33.3098 19.5746C34.596 19.2999 35.9591 19.1808 37.3508 19.187C37.3789 19.187 37.3934 19.1732 37.3942 19.1455ZM37.5213 22.1179C36.4249 22.1074 35.2273 22.2035 34.1886 22.544C32.9985 22.9341 32.1631 23.7155 32.165 25.0116C32.1662 26.2997 32.9792 27.1655 34.2748 27.1952C35.169 27.2163 35.9366 26.942 36.5774 26.3723C37.0839 25.922 37.3907 25.3815 37.4978 24.7505C37.5346 24.5327 37.549 24.1196 37.5412 23.5114C37.5354 23.06 37.536 22.6029 37.543 22.1403C37.543 22.1344 37.5408 22.1289 37.5367 22.1247C37.5327 22.1205 37.5271 22.1181 37.5213 22.1179Z" fill="#1F1F1F" fill-opacity="0.28"/>
<path d="M87.6346 19.1513C87.661 18.6986 87.5994 18.2845 87.4498 17.9091C86.9468 16.6458 85.5024 16.3537 84.3043 16.3903C82.734 16.4391 81.2758 16.8527 79.9296 17.6313C79.9127 17.6412 79.9013 17.6366 79.8955 17.6176L79.036 14.6737C79.0334 14.6647 79.0338 14.6551 79.0373 14.6465C79.0408 14.6378 79.0471 14.6306 79.0552 14.6259C79.4993 14.3762 79.9582 14.1643 80.432 13.9903C82.027 13.4044 83.7095 13.1266 85.4795 13.1568C87.0516 13.1828 88.633 13.5127 89.8752 14.4287C91.6799 15.759 92.2616 17.9971 92.2622 20.1392C92.2631 22.2511 92.2643 24.3683 92.266 26.4909C92.2672 27.7114 92.3516 28.9085 92.519 30.0823C92.5215 30.0993 92.5144 30.11 92.4979 30.1146C91.4839 30.4017 90.2945 30.517 89.3419 29.9651C88.7354 29.6133 88.3126 29.0845 88.0736 28.3787C88.0695 28.3665 88.0622 28.3556 88.0525 28.3472C88.0427 28.3388 88.0309 28.3332 88.0182 28.3309C88.0056 28.3286 87.9925 28.3298 87.9804 28.3343C87.9684 28.3387 87.9577 28.3464 87.9496 28.3564C86.6845 29.8913 84.7514 30.5629 82.77 30.4662C81.183 30.388 79.6611 29.6866 78.7451 28.3626C78.1494 27.5022 77.8494 26.5519 77.8453 25.5117C77.8248 20.2421 83.5495 19.1587 87.5961 19.1879C87.6201 19.1879 87.6329 19.1757 87.6346 19.1513ZM87.7524 22.1181C86.5108 22.1076 85.1322 22.2292 84.0351 22.6999C83.1613 23.0744 82.525 23.7393 82.4301 24.7067C82.2751 26.2757 83.25 27.2754 84.8184 27.1936C86.3465 27.1136 87.7679 25.947 87.784 24.3321C87.7902 23.6715 87.7913 22.945 87.7871 22.1529C87.7871 22.1301 87.7756 22.1186 87.7524 22.1181Z" fill="#1F1F1F" fill-opacity="0.28"/>
<path d="M55.8757 15.7836C55.896 15.7819 55.9119 15.7718 55.9235 15.7532C56.6435 14.5891 57.6513 13.7389 58.9753 13.3885C60.0786 13.097 61.3667 13.066 62.4644 13.4412C63.7907 13.8944 64.735 14.7793 65.2973 16.0961C65.3006 16.1043 65.3062 16.1115 65.3133 16.1168C65.3204 16.1221 65.3288 16.1254 65.3376 16.1263C65.3465 16.1273 65.3555 16.1258 65.3636 16.1222C65.3718 16.1185 65.3789 16.1127 65.3841 16.1055C66.3398 14.7628 67.5671 13.729 69.1752 13.347C70.3206 13.0753 71.6192 13.089 72.738 13.5163C75.4543 14.5544 76.3108 17.5058 76.3145 20.1384C76.3199 23.7143 76.3201 27.0259 76.3151 30.0734C76.3151 30.0945 76.3044 30.1051 76.2829 30.1051H71.8537C71.8301 30.1051 71.8183 30.0933 71.8183 30.0697C71.8229 27.0086 71.822 23.9253 71.8158 20.8199C71.8134 19.3886 71.4307 17.396 69.7991 16.996C68.1494 16.5917 66.6486 17.6168 66.2995 19.2453C66.23 19.5682 66.1951 19.8959 66.1947 20.2283C66.1926 23.3196 66.1922 26.6003 66.1934 30.0703C66.1934 30.0935 66.1818 30.1051 66.1587 30.1051H61.7289C61.7053 30.1051 61.6935 30.0931 61.6935 30.0691C61.6943 26.9079 61.6937 23.7473 61.6916 20.5874C61.691 19.0915 61.1887 17.1231 59.3753 16.9321C58.4893 16.8383 57.7428 17.0942 57.1359 17.6999C56.5947 18.2399 56.2588 18.8658 56.1281 19.5778C56.0814 19.8316 56.0585 20.2256 56.0593 20.7598C56.0643 23.9371 56.0649 27.0443 56.0612 30.0815C56.0612 30.0877 56.0587 30.0937 56.0543 30.0982C56.0498 30.1026 56.0438 30.1051 56.0376 30.1051H51.573C51.5664 30.1051 51.5601 30.1025 51.5555 30.098C51.5508 30.0934 51.5482 30.0873 51.5482 30.0809V13.5541C51.5482 13.5487 51.5504 13.5435 51.5542 13.5396C51.5581 13.5358 51.5633 13.5336 51.5687 13.5336H55.7994C55.8234 13.5336 55.8354 13.5456 55.8354 13.5696V15.747C55.8354 15.7521 55.8364 15.7571 55.8385 15.7618C55.8406 15.7664 55.8436 15.7706 55.8474 15.774C55.8512 15.7775 55.8556 15.7801 55.8605 15.7817C55.8654 15.7834 55.8706 15.784 55.8757 15.7836Z" fill="#1F1F1F" fill-opacity="0.28"/>
<path d="M98.5331 16.6693C98.5525 16.6775 98.5722 16.6786 98.592 16.6724C98.6168 16.6645 98.6333 16.6482 98.6416 16.6234C99.464 14.2885 101.61 12.7821 104.126 13.2565C104.147 13.2602 104.158 13.273 104.158 13.295V17.5623C104.158 17.5921 104.144 17.6045 104.115 17.5995C103.192 17.4426 102.217 17.4004 101.341 17.7372C99.6878 18.3722 99.0683 19.865 99.0683 21.5512C99.0683 24.3176 99.0683 27.1608 99.0683 30.081C99.0683 30.0967 99.0604 30.1045 99.0447 30.1045H94.4716C94.4489 30.1045 94.4375 30.0934 94.4375 30.071L94.4369 13.5554C94.4369 13.541 94.4441 13.5337 94.4586 13.5337L98.4828 13.5331C98.4973 13.5331 98.5046 13.5403 98.5046 13.5548L98.5052 16.6265C98.5051 16.6356 98.5078 16.6446 98.5127 16.6522C98.5177 16.6598 98.5248 16.6657 98.5331 16.6693Z" fill="#1F1F1F" fill-opacity="0.28"/>
<path d="M131.726 21.0969C132.356 21.0653 132.921 21.5912 133.231 22.132C133.563 22.7137 133.744 23.7208 133.098 24.1723C130.327 26.1114 127.639 27.9894 125.034 29.8065C124.57 30.1302 123.975 30.0639 123.481 29.8319C122.505 29.373 121.852 28.3274 121.674 27.3048C121.573 26.7218 121.675 25.9788 122.121 25.5534C122.229 25.4509 122.381 25.3541 122.579 25.2632C125.481 23.9236 128.37 22.5822 131.246 21.2389C131.435 21.1509 131.595 21.1035 131.726 21.0969Z" fill="#1F1F1F" fill-opacity="0.28"/>
<path d="M145.982 21.2489C148.952 22.6219 151.909 23.9993 154.841 25.3618C155.015 25.4429 155.175 25.6047 155.321 25.8474C155.537 26.2059 155.604 26.6853 155.561 27.0995C155.471 27.9723 155.101 28.7178 154.453 29.3359C153.896 29.8673 152.901 30.3201 152.186 29.8208C149.534 27.9669 146.856 26.0918 144.151 24.1953C143.376 23.6527 143.707 22.4545 144.188 21.8356C144.501 21.4331 145.035 21.0374 145.553 21.1013C145.653 21.1137 145.796 21.1629 145.982 21.2489Z" fill="#1F1F1F" fill-opacity="0.28"/>
<path d="M138.819 38.0083H138.378C137.979 37.9752 137.598 37.8853 137.234 37.7386C136.595 37.4806 135.944 36.8926 136.01 36.1404C136.301 32.8382 136.593 29.5606 136.884 26.3077C136.912 25.9951 137.151 25.716 137.411 25.5511C138.118 25.1027 139.139 25.1045 139.841 25.5759C140.128 25.7681 140.314 26.036 140.344 26.3784C140.63 29.652 140.914 32.8711 141.196 36.0356C141.215 36.2373 141.203 36.4126 141.16 36.5615C140.946 37.3218 140.105 37.7875 139.369 37.9277C139.188 37.962 139.005 37.9889 138.819 38.0083Z" fill="#1F1F1F" fill-opacity="0.28"/>
<path d="M158.817 28.8536C158.819 29.1495 158.7 29.4339 158.488 29.6443C158.276 29.8546 157.987 29.9737 157.686 29.9752C157.536 29.976 157.388 29.9479 157.25 29.8926C157.112 29.8372 156.986 29.7557 156.88 29.6527C156.773 29.5496 156.689 29.4271 156.631 29.292C156.573 29.157 156.543 29.012 156.542 28.8655C156.541 28.5696 156.659 28.2852 156.871 28.0749C157.084 27.8646 157.372 27.7455 157.674 27.7439C157.823 27.7431 157.971 27.7712 158.11 27.8266C158.248 27.8819 158.374 27.9634 158.48 28.0665C158.586 28.1695 158.67 28.2921 158.728 28.4271C158.786 28.5622 158.816 28.7071 158.817 28.8536ZM157.699 29.7474C157.812 29.7449 157.923 29.7193 158.026 29.6722C158.129 29.625 158.222 29.5573 158.3 29.4727C158.377 29.3882 158.438 29.2885 158.479 29.1794C158.52 29.0704 158.539 28.954 158.537 28.837C158.531 28.6007 158.436 28.3762 158.271 28.2127C158.107 28.0493 157.886 27.9604 157.659 27.9655C157.546 27.9681 157.435 27.9937 157.332 28.0408C157.229 28.0879 157.136 28.1557 157.058 28.2402C156.981 28.3248 156.92 28.4244 156.879 28.5335C156.839 28.6426 156.819 28.7589 156.822 28.8759C156.827 29.1122 156.922 29.3368 157.087 29.5002C157.252 29.6637 157.472 29.7526 157.699 29.7474Z" fill="#1F1F1F" fill-opacity="0.28"/>
<path d="M157.961 28.9052C158.037 28.9362 158.106 28.9989 158.128 29.0795C158.158 29.1911 158.184 29.3031 158.206 29.4156C158.208 29.4251 158.204 29.4299 158.194 29.4299L157.947 29.4261C157.942 29.4262 157.936 29.4243 157.932 29.4208C157.927 29.4174 157.924 29.4125 157.922 29.4069L157.841 29.1037C157.834 29.0776 157.819 29.0541 157.799 29.0364C157.779 29.0186 157.754 29.0073 157.727 29.0038L157.587 28.9852C157.537 28.9786 157.512 29.0005 157.511 29.0509V29.4063C157.511 29.4204 157.504 29.4274 157.49 29.4274L157.28 29.4293C157.277 29.4293 157.273 29.4287 157.27 29.4275C157.267 29.4263 157.264 29.4244 157.262 29.422C157.259 29.4197 157.257 29.4168 157.256 29.4137C157.255 29.4106 157.254 29.4072 157.254 29.4038L157.253 28.3663C157.253 28.3423 157.265 28.3282 157.289 28.3241C157.52 28.2832 157.729 28.2805 157.916 28.3161C158.224 28.3743 158.272 28.7502 157.962 28.8624C157.924 28.8756 157.924 28.8899 157.961 28.9052ZM157.514 28.5157L157.516 28.7737C157.516 28.784 157.52 28.7938 157.527 28.801C157.535 28.8082 157.544 28.8122 157.555 28.8122L157.666 28.8116C157.695 28.8114 157.724 28.8073 157.751 28.7993C157.778 28.7913 157.802 28.7797 157.823 28.7652C157.843 28.7506 157.86 28.7333 157.871 28.7144C157.882 28.6954 157.887 28.6751 157.887 28.6547V28.6299C157.887 28.5886 157.863 28.5492 157.822 28.5202C157.78 28.4913 157.724 28.4752 157.665 28.4754L157.553 28.4761C157.548 28.4761 157.543 28.4771 157.538 28.4791C157.534 28.4811 157.529 28.484 157.526 28.4877C157.522 28.4914 157.519 28.4958 157.517 28.5006C157.515 28.5054 157.514 28.5106 157.514 28.5157Z" fill="#1F1F1F" fill-opacity="0.28"/>
</g>
<defs>
<clipPath id="clip0_1_65">
<rect width="158.762" height="38.0161" fill="white" transform="translate(0.206421 -0.00805664)"/>
</clipPath>
</defs>
</svg>
