<svg width="77" height="38" viewBox="0 0 77 38" fill="none" xmlns="http://www.w3.org/2000/svg">
<path d="M9.16522 13.9499C10.9497 13.9563 12.7074 13.9144 14.4382 13.8242C14.591 13.8165 14.7486 13.7963 14.9111 13.7635C15.7632 13.5925 16.3746 13.4546 16.596 12.4948C16.8143 11.5489 17.0454 10.6124 17.2892 9.68529C17.2938 9.66785 17.3051 9.65913 17.323 9.65913H18.9045C18.927 9.65913 18.9377 9.6704 18.9364 9.69295C18.859 11.0762 18.7781 12.4794 18.6939 13.9027C18.6684 14.3299 18.6622 14.7419 18.6754 15.1389C18.7209 16.5473 18.7641 17.9843 18.8049 19.4501C18.8054 19.4727 18.7945 19.4839 18.7724 19.4839H17.1826C17.1596 19.4839 17.1456 19.4727 17.1404 19.4501C17.0324 18.9629 16.9266 18.4609 16.8233 17.9439C16.7179 17.418 16.5667 16.9476 16.2884 16.5373C15.8634 15.9086 15.1377 15.7759 14.4191 15.7242C14.0357 15.6965 13.6526 15.6767 13.2696 15.6648C11.9111 15.6214 10.5355 15.6001 9.14288 15.601C9.13797 15.601 9.13326 15.6029 9.12979 15.6062C9.12632 15.6096 9.12437 15.6141 9.12437 15.6189C9.12309 18.4462 9.12373 21.2803 9.12628 24.1213C9.12692 25.1169 9.402 25.9868 10.4442 26.3321C10.8442 26.4648 11.305 26.5312 11.8266 26.5312C13.8374 26.532 15.8493 26.5316 17.8623 26.5299C19.0851 26.5293 20.2665 26.3774 21.1759 25.5726C21.6278 25.1726 21.9941 24.6672 22.275 24.0562C22.7643 22.9937 23.305 21.8 23.8973 20.4751C23.9067 20.4538 23.9228 20.4432 23.9458 20.4432H25.2574C25.2833 20.4432 25.2946 20.4564 25.2912 20.4827C25.0329 22.4034 24.7813 24.497 24.5362 26.7635C24.4651 27.4175 24.3987 28.0161 24.337 28.5595C24.3345 28.5812 24.3224 28.5918 24.3007 28.5914C21.1274 28.5101 18.7907 28.4671 17.2904 28.4625C14.09 28.4531 10.8669 28.4505 7.62136 28.4548C7.1963 28.4552 6.76954 28.4603 6.34108 28.4701C4.61915 28.5093 2.84 28.549 1.00362 28.5895C1.00047 28.5895 0.997329 28.589 0.99439 28.5878C0.991451 28.5867 0.988772 28.585 0.986511 28.5828C0.98425 28.5806 0.982453 28.5779 0.981227 28.575C0.98 28.5721 0.979369 28.569 0.97937 28.5658L0.980008 27.1266C0.980008 27.1003 0.992773 27.0843 1.0183 27.0788C1.78715 26.9158 2.5728 26.7405 3.37526 26.5529C4.13857 26.3742 4.6817 25.9504 4.70723 25.1105C4.91274 18.3547 4.91252 11.5417 4.70659 4.67142C4.70106 4.4774 4.66085 4.28231 4.58597 4.08616C4.39322 3.58324 3.85775 3.37838 3.36313 3.26796C2.61045 3.09905 1.82906 2.93247 1.01894 2.76823C0.992986 2.76313 0.980008 2.74739 0.980008 2.72101L0.97937 1.27288C0.97937 1.25416 0.988518 1.24501 1.00681 1.24543C2.48281 1.27224 4.09198 1.30543 5.83433 1.345C6.26449 1.35478 6.69019 1.35989 7.11141 1.36031C11.4292 1.36499 14.9928 1.36436 17.8023 1.3584C19.754 1.35457 21.7561 1.17012 23.7595 0.967808C23.7613 0.967516 23.7631 0.967634 23.7648 0.968153C23.7666 0.968672 23.7682 0.969578 23.7696 0.970805C23.7709 0.972031 23.772 0.973547 23.7726 0.975238C23.7733 0.976929 23.7736 0.978752 23.7735 0.980572C23.6578 3.54197 23.5678 6.14656 23.5035 8.79434C23.5027 8.81859 23.4901 8.83071 23.4659 8.83071H22.026C22.0001 8.83071 21.9833 8.81837 21.9756 8.7937C21.711 7.90954 21.4538 6.98433 21.204 6.01806C21.0802 5.5394 20.9011 5.07158 20.6666 4.61461C20.218 3.74089 19.53 3.16521 18.5203 3.16521C15.6104 3.16563 12.701 3.1667 9.79195 3.1684C9.48177 3.1684 9.12437 3.15946 9.12437 3.58771C9.12437 7.03539 9.12437 10.4758 9.12437 13.9091C9.12437 13.9199 9.12867 13.9303 9.13633 13.9379C9.14399 13.9456 9.15438 13.9499 9.16522 13.9499Z" fill="#1F1F1F" fill-opacity="0.25"/>
<path d="M33.0476 12.5809C33.0472 16.0154 33.0472 19.4465 33.0476 22.8741C33.0482 24.7135 33.4669 26.9243 35.8513 26.8075C36.9675 26.7526 38.0781 26.2325 38.6901 25.3224C38.7063 25.299 38.7235 25.2981 38.7418 25.3198L39.5204 26.2376C39.525 26.243 39.528 26.2495 39.529 26.2565C39.53 26.2635 39.529 26.2707 39.5262 26.2772C38.4693 28.5933 35.4971 29.3904 33.2091 29.0796C31.4584 28.8422 30.0033 27.791 29.4352 26.0851C29.2548 25.5434 29.1644 24.9524 29.164 24.3121C29.1636 20.3942 29.1636 16.5304 29.164 12.7207C29.164 12.7075 29.1576 12.7009 29.1449 12.7009L25.9084 12.7015C25.8808 12.7015 25.8669 12.6877 25.8669 12.66V11.3625C25.8669 11.3336 25.8814 11.3174 25.9103 11.314C27.4733 11.1474 28.7709 10.5226 29.7218 9.32787C30.7098 8.08589 31.2312 6.44949 31.5088 4.85776C31.5131 4.83308 31.5278 4.82074 31.5529 4.82074H33.1484C33.1701 4.82074 33.181 4.83159 33.181 4.85329V10.5992C33.181 10.6209 33.192 10.6313 33.2142 10.6305L38.8152 10.3535C38.8429 10.3522 38.8552 10.3654 38.8522 10.3931L38.5803 12.9626C38.5791 12.9757 38.5718 12.9817 38.5586 12.9804L33.0718 12.5586C33.0557 12.5573 33.0476 12.5647 33.0476 12.5809Z" fill="#1F1F1F" fill-opacity="0.25"/>
<path d="M46.5606 20.4023C45.1603 19.7838 43.6464 18.9663 42.8244 17.6024C42.1504 16.4848 42.0241 15.0431 42.3055 13.7852C42.9208 11.0338 45.5924 9.9252 48.1497 9.81223C49.4313 9.75522 50.8024 9.85116 52.2631 10.1001C52.8994 10.2086 53.5625 10.3579 54.1586 10.6113C54.1829 10.6219 54.1926 10.6402 54.188 10.6662C53.9182 12.1379 53.7806 13.6324 53.775 15.1497C53.775 15.1769 53.7614 15.1918 53.7342 15.1944L52.4411 15.3163C52.4165 15.3188 52.4001 15.3084 52.392 15.285C52.0848 14.4089 51.774 13.522 51.4596 12.6242C51.2221 11.9458 50.3573 11.5705 49.6655 11.4225C48.6948 11.2144 47.4892 11.305 46.6212 11.7543C45.7672 12.1964 45.3416 12.8889 45.3441 13.8318C45.3467 14.687 45.7928 15.435 46.4533 15.9424C47.0307 16.3853 47.674 16.7665 48.3833 17.0861C49.1245 17.4201 49.8836 17.7662 50.6605 18.1244C52.4577 18.9541 54.2384 20.1521 54.7349 22.1778C54.9608 23.0975 54.9404 24.1384 54.6615 25.0543C54.1184 26.8362 52.6377 28.0003 50.8794 28.5639C49.2137 29.098 47.4196 29.1166 45.6543 28.8332C44.448 28.6392 43.2501 28.3326 42.0604 27.9135C42.0375 27.9054 42.0277 27.8895 42.0311 27.8656C42.1804 26.8398 42.2202 25.7274 42.1504 24.5284C42.1083 23.8025 42.0658 23.187 42.0228 22.682C42.0211 22.6599 42.0313 22.6488 42.0534 22.6488H43.3937C43.3994 22.6488 43.4049 22.6504 43.4097 22.6536C43.4145 22.6568 43.4182 22.6613 43.4205 22.6667C43.749 23.4308 44.0732 24.2067 44.3932 24.9943C44.611 25.5304 44.8048 25.912 44.9746 26.1392C45.766 27.1974 46.9926 27.5357 48.2991 27.4987C48.8994 27.4816 49.4247 27.377 49.8748 27.1847C50.9234 26.7366 51.4468 25.8144 51.434 24.7013C51.42 23.4734 50.7524 22.6316 49.7702 21.9825C49.4068 21.7425 49.0428 21.537 48.6782 21.366C47.9753 21.0367 47.2694 20.7154 46.5606 20.4023Z" fill="#1F1F1F" fill-opacity="0.25"/>
<path d="M67.1841 24.8393C67.1851 24.8415 67.1866 24.8434 67.1887 24.8447C67.1907 24.846 67.1931 24.8467 67.1955 24.8467C67.198 24.8467 67.2005 24.846 67.2026 24.8447C67.2048 24.8434 67.2066 24.8415 67.2077 24.8393C67.3834 24.4661 67.5545 24.0911 67.7209 23.7141C68.973 20.877 70.2335 17.8497 71.5023 14.6322C71.573 14.453 71.6366 14.2724 71.6932 14.0903C71.7697 13.8421 71.8699 13.6027 71.884 13.3423C71.921 12.6326 71.4972 12.2114 70.8788 12.0008C70.4929 11.8689 70.0578 11.7402 69.5736 11.6147C69.5617 11.6115 69.5512 11.6045 69.5437 11.5947C69.5362 11.5849 69.5321 11.5728 69.5321 11.5604L69.5315 10.2501C69.5315 10.2297 69.5419 10.2197 69.5628 10.2201C70.6197 10.2542 71.6806 10.2914 72.7456 10.3318C73.1689 10.348 73.5901 10.3478 74.0093 10.3312C74.9853 10.2933 75.9714 10.2563 76.9674 10.2201C76.9891 10.2193 77 10.2297 77 10.2514V11.57C77 11.5938 76.9904 11.6127 76.9712 11.6268C76.7102 11.8221 76.4422 12.0959 76.139 12.2178C75.5825 12.4412 75.0017 12.6779 74.6698 13.1662C74.4535 13.4847 74.2805 13.8478 74.1292 14.2014C72.149 18.843 70.1638 23.4905 68.1733 28.144C67.4164 29.9131 66.401 31.7838 65.219 33.311C63.7511 35.2066 61.8805 36.6802 59.4265 36.9623C58.4862 37.0704 57.595 37.0534 56.753 36.9113C55.8931 36.7662 55.0545 36.4417 54.2371 35.938C54.2146 35.9244 54.2067 35.9048 54.2135 35.8793C54.6513 34.1733 54.9111 32.4194 55.1657 30.702C55.1687 30.6803 55.1813 30.6684 55.2034 30.6662L56.6432 30.5399C56.6713 30.5373 56.6881 30.5499 56.6936 30.5775C56.8464 31.346 56.9957 32.125 57.1417 32.9147C57.2383 33.438 57.3244 33.7725 57.4002 33.918C57.732 34.5569 58.3766 34.71 59.0608 34.6781C61.8639 34.5492 63.9387 32.0167 65.2414 29.7453C65.2545 29.7223 65.2562 29.6985 65.2465 29.6738C63.4582 25.2165 61.7203 20.7917 59.8024 16.3369C59.3999 15.4012 58.9778 14.4513 58.5362 13.4872C58.2694 12.9051 57.9956 12.339 57.3261 12.1246C56.9798 12.014 56.6364 11.8902 56.296 11.7532C56.2735 11.7442 56.2622 11.7276 56.2622 11.7034L56.2628 10.3797C56.2628 10.3601 56.2724 10.3508 56.2916 10.3516C57.4021 10.3903 58.6047 10.4327 59.8994 10.4786C60.267 10.4918 60.6347 10.488 61.0023 10.4671C62.4949 10.3825 63.9917 10.2999 65.4928 10.2195C65.5154 10.2182 65.5266 10.2289 65.5266 10.2514V11.5591C65.5266 11.5851 65.5139 11.601 65.4883 11.607C65.1446 11.6853 64.8163 11.758 64.5036 11.8253C64.0368 11.9257 63.7728 11.9897 63.7115 12.0174C63.2488 12.2286 62.9074 12.5899 62.9061 13.1081C62.9057 13.2421 62.9378 13.4017 63.0025 13.5868C64.1628 16.9034 65.373 20.1926 66.6333 23.4543C66.8129 23.919 66.9965 24.3806 67.1841 24.8393Z" fill="#1F1F1F" fill-opacity="0.25"/>
</svg>
