<svg width="179" height="28" viewBox="0 0 179 28" fill="none" xmlns="http://www.w3.org/2000/svg">
<path d="M171.579 16.3218L169.964 16.3269C169.932 16.3269 169.916 16.3109 169.916 16.2789V12.7794C169.916 12.7514 169.93 12.7375 169.958 12.7375L178.11 12.7354C178.118 12.7354 178.126 12.7385 178.131 12.7441C178.137 12.7497 178.14 12.7572 178.14 12.7651C178.151 15.1185 178.149 17.6393 178.134 20.3276C178.132 20.7722 178.094 21.2776 178.021 21.8436C177.948 22.4082 177.835 22.8897 177.682 23.288C177.126 24.7262 175.838 25.6376 174.374 26.1143C173.1 26.5296 171.906 26.7646 170.791 26.8191C169.354 26.89 167.909 26.7352 166.455 26.3547C164.213 25.7675 162.296 24.406 161.761 22.0226C161.665 21.5964 161.617 20.9342 161.619 20.0361C161.624 16.3024 161.626 12.5343 161.625 8.73168C161.625 8.38866 161.617 8.04393 161.602 7.6975C161.457 4.31774 163.598 1.95069 166.793 1.27146C168.817 0.839785 170.857 0.842513 172.911 1.27965C175.396 1.8085 177.506 3.15876 177.885 5.85316C178.025 6.85017 178.06 7.95119 177.989 9.1562C177.986 9.20325 177.961 9.22678 177.914 9.22678H171.65C171.608 9.22678 171.587 9.20598 171.587 9.16438C171.584 8.64541 171.583 8.0528 171.586 7.38653C171.589 6.69503 171.335 6.03115 170.683 5.73655C170.042 5.44604 169.222 5.60254 168.685 6.01274C168.359 6.26233 168.197 6.61524 168.197 7.07147C168.203 11.2962 168.203 15.6269 168.197 20.0637C168.197 20.4674 168.239 20.7736 168.326 20.9823C168.514 21.4378 168.83 21.7474 169.272 21.9111C170.456 22.3489 171.584 21.6257 171.64 20.3798C171.668 19.751 171.676 18.426 171.663 16.4047C171.662 16.3488 171.634 16.3211 171.579 16.3218Z" fill="#1F1F1F" fill-opacity="0.28"/>
<path d="M10.2377 21.2932C10.9056 20.0698 10.3256 18.8392 9.34668 18.0291C9.10186 17.8259 8.78271 17.6237 8.38922 17.4225C6.74503 16.5796 5.2594 15.7926 3.93232 15.0616C3.50746 14.8277 3.03009 14.4788 2.50022 14.0151C1.10597 12.7948 0.571995 11.4056 0.52801 9.58787C0.500049 8.48107 0.511984 7.46018 0.563813 6.52522C0.599956 5.86919 0.719979 5.26395 0.923883 4.70953C1.33612 3.58737 2.46646 2.7097 3.55997 2.21563C5.15574 1.49412 6.86744 1.132 8.69508 1.12928C11.3721 1.12518 14.8224 1.6121 16.2893 4.13975C16.7343 4.90695 16.8724 5.68745 16.8611 6.59888C16.8495 7.53588 16.8529 8.44594 16.8713 9.32907C16.8715 9.33628 16.8702 9.34344 16.8675 9.35014C16.8649 9.35683 16.8609 9.36293 16.8558 9.36807C16.8508 9.37321 16.8448 9.3773 16.8381 9.38009C16.8315 9.38288 16.8243 9.38431 16.8171 9.38431L10.5374 9.37817C10.4937 9.37817 10.4722 9.35635 10.4729 9.31271C10.4777 8.72077 10.4787 8.13361 10.476 7.55122C10.4739 7.18979 10.4296 6.91598 10.343 6.72981C10.075 6.15288 9.42135 5.84907 8.81169 5.78258C7.96675 5.69154 7.21387 6.10787 6.90904 6.94769C6.56738 7.89084 7.03588 8.90763 7.77239 9.49888C8.06495 9.73347 8.40763 9.96159 8.80044 10.1832C9.69652 10.6879 10.5793 11.1373 11.4488 11.5314C12.7868 12.1391 13.8905 12.746 14.76 13.3523C16.0888 14.28 16.9276 15.7623 17.1956 17.3724C17.3583 18.3523 17.2713 19.4274 17.2969 20.4544C17.3092 20.942 17.2795 21.3959 17.2079 21.816C16.7169 24.7037 14.1555 26.1644 11.5429 26.7137C9.21199 27.2034 6.94314 27.1587 4.73634 26.5797C2.52477 25.9987 0.517781 24.45 0.0840587 22.0635C0.0213191 21.7225 -0.00629978 21.2769 0.0012017 20.7265C0.0121129 19.9184 0.0117717 19.1291 0.000178554 18.3585C-2.75569e-05 18.3412 0.00604329 18.3243 0.0172966 18.311C0.0285498 18.2977 0.0442452 18.2888 0.0615541 18.2858C0.0956518 18.2797 0.129749 18.2875 0.163847 18.3094C0.167812 18.312 0.172805 18.3135 0.178168 18.3135H6.7914C6.79579 18.3135 6.80013 18.3143 6.80417 18.316C6.80821 18.3178 6.81187 18.3203 6.81492 18.3234C6.81797 18.3265 6.82036 18.3303 6.82195 18.3344C6.82353 18.3385 6.82427 18.3428 6.82414 18.3472C6.81118 19.0421 6.80675 19.6948 6.81084 20.3051C6.81834 21.3867 7.35129 22.0148 8.40968 22.1893C9.11448 22.3059 9.8786 21.952 10.2377 21.2932Z" fill="#1F1F1F" fill-opacity="0.28"/>
<path d="M91.3866 17.2343C89.8584 16.4555 88.4641 15.7142 87.2039 15.0104C86.7088 14.7342 86.1588 14.3087 85.5539 13.7338C84.2374 12.4817 83.8609 10.9207 83.8793 9.17971C83.8906 8.00436 83.8333 6.85766 84.0246 5.6639C84.49 2.74856 87.2785 1.60697 89.8819 1.27042C93.1471 0.847954 99.0985 1.12517 100.09 5.26394C100.185 5.66288 100.227 6.21151 100.216 6.90983C100.201 7.79978 100.198 8.61062 100.207 9.34236C100.207 9.34768 100.207 9.35298 100.205 9.35794C100.203 9.3629 100.2 9.36742 100.196 9.37123C100.192 9.37504 100.188 9.37807 100.183 9.38014C100.178 9.38221 100.173 9.38328 100.167 9.38327L93.8815 9.38225C93.8461 9.38225 93.828 9.36452 93.8273 9.32906C93.8185 8.88647 93.8205 8.41797 93.8335 7.92355C93.8485 7.36162 93.8096 6.97393 93.7168 6.76048C93.5511 6.38132 93.2245 6.09967 92.7369 5.91554C91.8142 5.56775 90.7238 5.85008 90.3176 6.80958C89.7898 8.0596 90.5785 9.2329 91.6526 9.87837C92.7894 10.5617 94.0391 11.2044 95.4016 11.8066C95.9567 12.0514 96.6867 12.4487 97.5917 12.9983C98.6726 13.655 99.4544 14.4798 99.9373 15.4728C100.397 16.418 100.631 17.3727 100.64 18.337C100.648 19.1792 100.648 20.0378 100.64 20.9127C100.612 23.913 98.4571 25.7092 95.7852 26.4866C93.6527 27.1065 91.4228 27.2139 89.0953 26.8089C86.5543 26.368 84.2466 25.0361 83.5193 22.4174C83.4054 22.0083 83.3536 21.4716 83.3638 20.8073C83.3754 20.0149 83.3771 19.1969 83.3689 18.3533C83.3689 18.3428 83.3731 18.3326 83.3806 18.3251C83.3881 18.3176 83.3982 18.3134 83.4088 18.3134H90.0987C90.1465 18.3134 90.1703 18.3373 90.1703 18.385C90.1717 18.9217 90.1703 19.4598 90.1663 19.9992C90.1622 20.5373 90.2106 20.9236 90.3115 21.1582C90.6532 21.951 91.5615 22.3407 92.384 22.1678C93.768 21.8773 94.2211 20.2836 93.6033 19.1195C93.1041 18.1805 92.3124 17.7068 91.3866 17.2343Z" fill="#1F1F1F" fill-opacity="0.28"/>
<path d="M62.9266 15.1598C63.6134 10.8512 64.2912 6.6098 64.9602 2.43557C64.9868 2.26781 65.0066 2.1055 65.0196 1.94865C65.0243 1.88932 65.0564 1.85966 65.1157 1.85966L75.5496 1.85864C75.5647 1.85864 75.5792 1.86461 75.5901 1.8753C75.601 1.88598 75.6074 1.90055 75.6079 1.91592L76.2871 26.1511C76.2874 26.158 76.2862 26.1649 76.2837 26.1713C76.2812 26.1778 76.2775 26.1837 76.2726 26.1886C76.2677 26.1936 76.2619 26.1976 76.2554 26.2003C76.2489 26.203 76.242 26.2043 76.2349 26.2043L69.991 26.2054C69.9758 26.2054 69.9612 26.1993 69.9505 26.1886C69.9397 26.1778 69.9337 26.1633 69.9337 26.1481L69.7833 8.02383C69.7833 7.98291 69.7629 7.96177 69.722 7.96041L69.4979 7.95325C69.4086 7.95052 69.3561 7.99314 69.3404 8.08111L66.066 26.1706C66.0643 26.18 66.0593 26.1886 66.0518 26.1947C66.0444 26.2009 66.0349 26.2043 66.0251 26.2043L59.4405 26.2054C59.433 26.2053 59.4257 26.2027 59.4199 26.1981C59.4141 26.1934 59.4102 26.187 59.4088 26.1798L56.0853 8.03508C56.0764 7.98803 56.0481 7.9645 56.0004 7.9645L55.6546 7.96245C55.613 7.96245 55.5919 7.98359 55.5912 8.02587L55.5165 26.1419C55.5165 26.1835 55.4954 26.2043 55.4531 26.2043L49.2552 26.2054C49.2163 26.2054 49.1972 26.1859 49.1979 26.1471L49.7288 2.03356C49.7291 2.01637 49.7361 1.99998 49.7483 1.98793C49.7606 1.97587 49.7771 1.96911 49.7943 1.96911L60.3529 1.97014C60.3775 1.97014 60.3918 1.98241 60.3959 2.00696L62.4223 15.1721C62.4248 15.1895 62.4337 15.2055 62.4472 15.217C62.4608 15.2285 62.4781 15.2347 62.496 15.2345L62.8458 15.2304C62.8655 15.2301 62.8844 15.2228 62.8992 15.2099C62.914 15.197 62.9237 15.1792 62.9266 15.1598Z" fill="#1F1F1F" fill-opacity="0.28"/>
<path d="M115.112 20.2713C115.113 21.4037 115.966 22.1781 117.07 22.13C118.243 22.0799 118.804 21.2922 118.803 20.1455C118.795 14.1764 118.795 8.09815 118.803 1.9108C118.803 1.90157 118.807 1.89272 118.813 1.8862C118.82 1.87968 118.829 1.87602 118.838 1.87602H125.539C125.576 1.87602 125.594 1.89443 125.594 1.93125C125.594 7.72444 125.596 13.67 125.602 19.7681C125.602 20.5871 125.559 21.2196 125.473 21.6656C124.896 24.6433 122.302 26.1389 119.459 26.6872C117.639 27.0377 115.756 27.0073 113.811 26.5961C111.122 26.0274 108.864 24.4019 108.273 21.5909C108.19 21.1968 108.149 20.6324 108.15 19.898C108.161 13.7611 108.162 7.77184 108.153 1.93023C108.153 1.91585 108.159 1.90206 108.169 1.89189C108.179 1.88173 108.193 1.87602 108.207 1.87602L115.059 1.87499C115.089 1.87431 115.103 1.88863 115.103 1.91795C115.104 7.82366 115.107 13.9415 115.112 20.2713Z" fill="#1F1F1F" fill-opacity="0.28"/>
<path d="M148.738 16.6072L148.288 1.90362C148.288 1.89789 148.289 1.89219 148.291 1.88686C148.293 1.88152 148.296 1.87667 148.3 1.87257C148.304 1.86847 148.308 1.86521 148.314 1.86299C148.319 1.86077 148.324 1.85963 148.33 1.85963L154.646 1.85759C154.659 1.85759 154.672 1.86287 154.681 1.87227C154.69 1.88167 154.696 1.89442 154.696 1.90771L154.697 26.1716C154.697 26.2036 154.68 26.2197 154.647 26.2197L147.222 26.2207C147.203 26.2206 147.185 26.2152 147.169 26.2051C147.154 26.1949 147.141 26.1805 147.133 26.1634C144.923 21.2874 142.712 16.4122 140.501 11.5376C140.458 11.4435 140.382 11.3596 140.265 11.3913C140.239 11.3986 140.215 11.4146 140.199 11.4368C140.182 11.4591 140.173 11.4862 140.174 11.514L140.548 26.1542C140.549 26.1627 140.547 26.1712 140.544 26.1791C140.541 26.187 140.537 26.1943 140.531 26.2004C140.525 26.2065 140.518 26.2113 140.51 26.2146C140.502 26.218 140.494 26.2197 140.485 26.2197H134.29C134.272 26.2197 134.255 26.2124 134.242 26.1996C134.23 26.1867 134.223 26.1693 134.223 26.1511V1.9026C134.223 1.8912 134.227 1.88027 134.236 1.87222C134.244 1.86416 134.255 1.85963 134.267 1.85963L141.937 1.85861C141.973 1.85861 141.999 1.87566 142.014 1.90976C144.154 6.79595 146.291 11.677 148.425 16.553C148.473 16.6621 148.556 16.7057 148.676 16.6839C148.719 16.6764 148.739 16.6508 148.738 16.6072Z" fill="#1F1F1F" fill-opacity="0.28"/>
<path d="M33.1104 7.40597L32.6623 7.407C32.649 7.40713 32.6362 7.41207 32.6262 7.42091C32.6163 7.42974 32.6098 7.44187 32.6081 7.45508L30.1377 26.1317C30.136 26.1449 30.1296 26.157 30.1196 26.1659C30.1096 26.1747 30.0968 26.1797 30.0835 26.1798L23.3936 26.1808C23.3855 26.1808 23.3776 26.179 23.3704 26.1756C23.3631 26.1722 23.3567 26.1673 23.3515 26.1611C23.3464 26.155 23.3426 26.1478 23.3405 26.1401C23.3384 26.1324 23.338 26.1243 23.3393 26.1164L27.517 2.00389C27.5191 1.99106 27.5258 1.97941 27.5357 1.97099C27.5456 1.96256 27.5582 1.95791 27.5712 1.95786L38.2025 1.95683C38.2155 1.95689 38.2281 1.96154 38.238 1.96996C38.2479 1.97838 38.2545 1.99004 38.2567 2.00286L42.4313 26.1153C42.4326 26.1232 42.4322 26.1313 42.4301 26.1391C42.428 26.1468 42.4242 26.154 42.4191 26.1601C42.4139 26.1662 42.4075 26.1712 42.4002 26.1746C42.393 26.178 42.3851 26.1798 42.3771 26.1798L35.6902 26.1808C35.6769 26.1807 35.664 26.1757 35.6541 26.1669C35.6441 26.1581 35.6377 26.1459 35.636 26.1327L33.1646 7.45405C33.1628 7.44085 33.1564 7.42872 33.1464 7.41988C33.1365 7.41105 33.1237 7.40611 33.1104 7.40597Z" fill="#1F1F1F" fill-opacity="0.28"/>
</svg>
