<svg width="132" height="42" viewBox="0 0 132 42" fill="none" xmlns="http://www.w3.org/2000/svg">
<g clip-path="url(#clip0_1_81)">
<path d="M21.161 0.670288C9.98193 0.670288 0.918945 9.73302 0.918945 20.9121C0.918945 32.0916 9.98193 41.1536 21.161 41.1536C32.3413 41.1536 41.4033 32.0916 41.4033 20.9121C41.4033 9.73378 32.3413 0.671305 21.1607 0.671305L21.161 0.670288ZM30.444 29.8648C30.3576 30.0063 30.2442 30.1294 30.1102 30.2271C29.9761 30.3247 29.8242 30.395 29.663 30.4339C29.5017 30.4727 29.3344 30.4794 29.1707 30.4535C29.0069 30.4276 28.8498 30.3697 28.7084 30.283C23.9558 27.38 17.9728 26.7226 10.9268 28.3324C10.6005 28.4066 10.2581 28.3482 9.97488 28.1701C9.69164 27.992 9.49071 27.7087 9.41625 27.3825C9.37915 27.221 9.37427 27.0537 9.4019 26.8903C9.42953 26.7269 9.48912 26.5706 9.57726 26.4303C9.6654 26.2899 9.78037 26.1684 9.91557 26.0725C10.0508 25.9767 10.2035 25.9085 10.3651 25.8718C18.0759 24.1099 24.69 24.8685 30.0257 28.1294C30.1672 28.2158 30.2903 28.3293 30.3879 28.4634C30.4855 28.5974 30.5557 28.7494 30.5945 28.9106C30.6333 29.0717 30.64 29.239 30.6141 29.4028C30.5883 29.5666 30.5304 29.7236 30.4438 29.865L30.444 29.8648ZM32.9217 24.3531C32.4646 25.0957 31.493 25.3302 30.7508 24.8733C25.31 21.5291 17.0158 20.5604 10.5801 22.514C10.1795 22.6353 9.74718 22.5927 9.37796 22.3955C9.00874 22.1984 8.7328 21.8628 8.61069 21.4625C8.48993 21.062 8.53288 20.6299 8.73013 20.261C8.92739 19.892 9.26285 19.6163 9.66301 19.4943C17.0145 17.2636 26.1534 18.3442 32.4018 22.1837C33.1438 22.6406 33.3784 23.6124 32.9215 24.3534L32.9217 24.3531ZM33.1342 18.6138C26.6106 14.739 15.8465 14.3827 9.61777 16.2733C8.61755 16.5768 7.5599 16.0121 7.25699 15.0119C7.11126 14.5314 7.1623 14.0127 7.3989 13.5698C7.63549 13.1269 8.03828 12.7961 8.5187 12.6501C15.6689 10.4794 27.5554 10.8987 35.0665 15.3577C35.2806 15.4844 35.4675 15.652 35.6167 15.851C35.7659 16.05 35.8744 16.2765 35.9359 16.5175C35.9974 16.7585 36.0108 17.0093 35.9752 17.2554C35.9397 17.5016 35.8559 17.7383 35.7287 17.9521C35.1971 18.8517 34.032 19.1482 33.1352 18.614L33.1342 18.6138ZM55.9908 19.3563C52.4957 18.5228 51.8746 17.9381 51.8746 16.7089C51.8746 15.5476 52.9671 14.7661 54.5937 14.7661C56.1698 14.7661 57.7313 15.3598 59.3702 16.5813C59.4184 16.6182 59.4812 16.6329 59.5417 16.6233C59.5721 16.6189 59.6013 16.6084 59.6275 16.5924C59.6538 16.5763 59.6764 16.5551 59.6942 16.53L61.4006 14.1245C61.4343 14.0768 61.4486 14.0181 61.4405 13.9602C61.4324 13.9024 61.4026 13.8498 61.3571 13.8132C59.4065 12.2486 57.2117 11.488 54.6445 11.488C50.8713 11.488 48.2343 13.7525 48.2343 16.9928C48.2343 20.4674 50.5087 21.6978 54.4392 22.6475C57.7822 23.4177 58.3476 24.0629 58.3476 25.2166C58.3476 26.4954 57.2066 27.2905 55.3698 27.2905C53.3297 27.2905 51.6642 26.6018 49.803 24.9917C49.7566 24.9526 49.6969 24.9327 49.6363 24.9363C49.6061 24.9384 49.5766 24.9465 49.5496 24.9601C49.5226 24.9738 49.4986 24.9928 49.479 25.0159L47.5647 27.2928C47.5263 27.3385 47.507 27.3973 47.5111 27.4568C47.5152 27.5163 47.5422 27.572 47.5866 27.612C49.7522 29.5458 52.4159 30.5659 55.2923 30.5659C59.3582 30.5659 61.9856 28.3444 61.9856 24.9048C61.9927 22.0025 60.255 20.3952 55.9982 19.3596L55.9908 19.3563ZM71.1853 15.9094C69.4232 15.9094 67.9778 16.6037 66.7836 18.0263V16.4253C66.7836 16.2987 66.682 16.1958 66.5564 16.1958H63.4262C63.3657 16.1962 63.3078 16.2205 63.2652 16.2635C63.2226 16.3064 63.1988 16.3645 63.199 16.425V34.2158C63.199 34.3414 63.3007 34.4453 63.4262 34.4453H66.5564C66.617 34.4448 66.6748 34.4204 66.7174 34.3774C66.76 34.3344 66.7838 34.2763 66.7836 34.2158V28.6005C67.9778 29.9372 69.4232 30.5923 71.185 30.5923C74.4606 30.5923 77.7769 28.0714 77.7769 23.2518C77.7818 18.4311 74.4652 15.9092 71.1876 15.9092L71.1853 15.9094ZM74.1366 23.2518C74.1366 25.7048 72.6259 27.4186 70.46 27.4186C68.3208 27.4186 66.7061 25.6275 66.7061 23.2518C66.7061 20.8757 68.3208 19.0849 70.46 19.0849C72.5896 19.0849 74.1366 20.8368 74.1366 23.2518ZM86.2732 15.9094C82.0553 15.9094 78.751 19.1571 78.751 23.3044C78.751 27.4066 82.0335 30.619 86.2224 30.619C90.4548 30.619 93.7688 27.3825 93.7688 23.2518C93.7688 19.135 90.4766 15.9102 86.2732 15.9102V15.9094ZM86.2732 27.4427C84.0301 27.4427 82.3382 25.6395 82.3382 23.2505C82.3382 20.8506 83.9721 19.1088 86.2224 19.1088C88.48 19.1088 90.1816 20.9113 90.1816 23.3028C90.1816 25.7025 88.5379 27.4427 86.2732 27.4427ZM102.775 16.1958H99.3307V12.675C99.3307 12.5487 99.2291 12.4458 99.1035 12.4458H95.973C95.9122 12.4459 95.854 12.4701 95.8109 12.513C95.7679 12.556 95.7436 12.6142 95.7433 12.675V16.1958H94.2399C94.1794 16.1962 94.1215 16.2205 94.0789 16.2635C94.0363 16.3064 94.0125 16.3645 94.0127 16.425V19.1147C94.0125 19.1752 94.0363 19.2333 94.0789 19.2763C94.1215 19.3194 94.1794 19.3437 94.2399 19.3441H95.7433V26.3045C95.7433 29.1156 97.143 30.5417 99.9058 30.5417C101.027 30.5417 101.958 30.3095 102.835 29.8117C102.871 29.7922 102.9 29.7635 102.921 29.7286C102.941 29.6937 102.952 29.6539 102.951 29.6134V27.0511C102.951 27.0123 102.941 26.9742 102.922 26.9404C102.903 26.9066 102.876 26.8783 102.843 26.858C102.81 26.8369 102.772 26.8248 102.733 26.8231C102.694 26.8213 102.655 26.83 102.62 26.8481C102.018 27.1505 101.436 27.2905 100.783 27.2905C99.78 27.2905 99.3305 26.8336 99.3305 25.8136V19.3457H102.775C102.835 19.3453 102.893 19.321 102.936 19.2779C102.979 19.2349 103.002 19.1767 103.002 19.1162V16.4266C103.003 16.3966 102.998 16.3667 102.987 16.3387C102.976 16.3107 102.96 16.2852 102.939 16.2637C102.918 16.2423 102.893 16.2253 102.865 16.2139C102.837 16.2024 102.807 16.1967 102.777 16.1971L102.775 16.1958ZM114.774 16.2096V15.777C114.774 14.5049 115.262 13.9377 116.355 13.9377C117.008 13.9377 117.532 14.0673 118.119 14.263C118.154 14.2745 118.191 14.2777 118.226 14.2722C118.262 14.2667 118.296 14.2527 118.326 14.2313C118.355 14.21 118.379 14.1819 118.395 14.1495C118.411 14.1171 118.42 14.0812 118.419 14.0449L118.419 11.4079C118.42 11.3587 118.404 11.3106 118.375 11.2709C118.346 11.2312 118.304 11.2022 118.257 11.1881C117.638 11.0036 116.846 10.8146 115.656 10.8146C112.768 10.8146 111.238 12.4422 111.238 15.5199V16.1821H109.734C109.673 16.1822 109.615 16.2064 109.572 16.2494C109.529 16.2923 109.505 16.3505 109.504 16.4113V19.1147C109.504 19.241 109.609 19.3441 109.734 19.3441H111.238V30.0775C111.238 30.2055 111.342 30.3072 111.467 30.3072H114.595C114.723 30.3072 114.825 30.2055 114.825 30.0775V19.3449H117.747L122.224 30.0775C121.716 31.204 121.216 31.4286 120.534 31.4286C119.983 31.4286 119.4 31.2645 118.808 30.9382C118.752 30.9098 118.687 30.9037 118.627 30.9211C118.597 30.9312 118.57 30.9473 118.546 30.9686C118.523 30.9898 118.504 31.0156 118.491 31.0444L117.431 33.3721C117.406 33.425 117.403 33.4852 117.421 33.5405C117.44 33.5957 117.478 33.6418 117.53 33.6695C118.637 34.2689 119.635 34.5251 120.87 34.5251C123.181 34.5251 124.46 33.4471 125.584 30.5514L131.013 16.5229C131.027 16.4882 131.032 16.4505 131.028 16.4133C131.023 16.3761 131.01 16.3406 130.988 16.3099C130.968 16.2792 130.94 16.2541 130.908 16.2367C130.875 16.2193 130.839 16.2102 130.802 16.2103H127.544C127.496 16.2101 127.449 16.2247 127.41 16.2523C127.371 16.2799 127.342 16.3189 127.326 16.3641L123.988 25.8959L120.333 16.3577C120.317 16.3145 120.288 16.2773 120.25 16.2509C120.212 16.2246 120.167 16.2105 120.121 16.2103H114.774V16.2096ZM107.817 16.1958H104.687C104.626 16.1961 104.568 16.2203 104.525 16.2632C104.482 16.3062 104.458 16.3643 104.458 16.425V30.0775C104.458 30.2055 104.562 30.3072 104.687 30.3072H107.817C107.943 30.3072 108.047 30.2055 108.047 30.0775V16.4261C108.047 16.3959 108.041 16.366 108.03 16.3381C108.018 16.3102 108.001 16.2848 107.98 16.2635C107.959 16.2422 107.933 16.2253 107.905 16.2138C107.877 16.2023 107.848 16.1965 107.817 16.1966V16.1958ZM106.27 9.97901C105.03 9.97901 104.025 10.9828 104.025 12.2224C104.025 12.5173 104.083 12.8093 104.196 13.0817C104.309 13.3542 104.474 13.6017 104.682 13.8102C104.891 14.0187 105.139 14.1841 105.411 14.297C105.683 14.4098 105.975 14.4678 106.27 14.4678C107.51 14.4678 108.513 13.463 108.513 12.2224C108.513 11.6275 108.277 11.057 107.856 10.6363C107.436 10.2156 106.865 9.97921 106.27 9.97901Z" fill="#1F1F1F" fill-opacity="0.28"/>
</g>
<defs>
<clipPath id="clip0_1_81">
<rect width="130.11" height="40.6594" fill="white" transform="translate(0.918945 0.670288)"/>
</clipPath>
</defs>
</svg>
