<svg width="30" height="30" viewBox="0 0 30 30" fill="none" xmlns="http://www.w3.org/2000/svg">
<rect x="0.614583" y="1.20443" width="28.4375" height="28.4375" rx="14.2188" fill="url(#paint0_linear_1_286)"/>
<rect x="0.614583" y="1.20443" width="28.4375" height="28.4375" rx="14.2188" stroke="url(#paint1_linear_1_286)" stroke-width="0.729167"/>
<path d="M14.8334 13.145C13.579 13.145 12.5553 14.1687 12.5553 15.4231C12.5553 16.6775 13.579 17.7012 14.8334 17.7012C16.0878 17.7012 17.1115 16.6775 17.1115 15.4231C17.1115 14.1687 16.0878 13.145 14.8334 13.145ZM21.6659 15.4231C21.6659 14.4798 21.6745 13.5449 21.6215 12.6033C21.5685 11.5095 21.319 10.5388 20.5192 9.73903C19.7177 8.93752 18.7487 8.68972 17.6549 8.63674C16.7116 8.58376 15.7768 8.59231 14.8351 8.59231C13.8917 8.59231 12.9569 8.58376 12.0153 8.63674C10.9215 8.68972 9.95083 8.93923 9.15102 9.73903C8.34951 10.5405 8.1017 11.5095 8.04873 12.6033C7.99575 13.5467 8.00429 14.4815 8.00429 15.4231C8.00429 16.3648 7.99575 17.3013 8.04873 18.2429C8.1017 19.3367 8.35122 20.3074 9.15102 21.1072C9.95253 21.9087 10.9215 22.1565 12.0153 22.2095C12.9586 22.2625 13.8935 22.2539 14.8351 22.2539C15.7785 22.2539 16.7133 22.2625 17.6549 22.2095C18.7487 22.1565 19.7194 21.907 20.5192 21.1072C21.3207 20.3057 21.5685 19.3367 21.6215 18.2429C21.6762 17.3013 21.6659 16.3665 21.6659 15.4231ZM14.8334 18.9282C12.8937 18.9282 11.3283 17.3628 11.3283 15.4231C11.3283 13.4834 12.8937 11.918 14.8334 11.918C16.7731 11.918 18.3385 13.4834 18.3385 15.4231C18.3385 17.3628 16.7731 18.9282 14.8334 18.9282ZM18.4821 12.593C18.0292 12.593 17.6635 12.2273 17.6635 11.7744C17.6635 11.3216 18.0292 10.9558 18.4821 10.9558C18.935 10.9558 19.3007 11.3216 19.3007 11.7744C19.3008 11.882 19.2797 11.9885 19.2386 12.0879C19.1976 12.1872 19.1373 12.2775 19.0612 12.3536C18.9852 12.4296 18.8949 12.4899 18.7955 12.531C18.6961 12.5721 18.5896 12.5932 18.4821 12.593Z" fill="#FAFAFA"/>
<defs>
<linearGradient id="paint0_linear_1_286" x1="0.25" y1="0.839844" x2="26.1334" y2="32.6758" gradientUnits="userSpaceOnUse">
<stop stop-color="#2755F3"/>
<stop offset="0.5" stop-color="#1475EE"/>
<stop offset="1" stop-color="#0095E9"/>
</linearGradient>
<linearGradient id="paint1_linear_1_286" x1="0.25" y1="0.839844" x2="26.1334" y2="32.6758" gradientUnits="userSpaceOnUse">
<stop stop-color="#2755F3"/>
<stop offset="0.5" stop-color="#1475EE"/>
<stop offset="1" stop-color="#0095E9"/>
</linearGradient>
</defs>
</svg>
