<svg width="19" height="18" viewBox="0 0 19 18" fill="none" xmlns="http://www.w3.org/2000/svg">
<path d="M5.53546 8.04105C6.58546 10.1046 8.27712 11.789 10.3407 12.8463L11.9448 11.2421C12.1417 11.0452 12.4334 10.9796 12.6886 11.0671C13.5052 11.3369 14.3875 11.4827 15.2917 11.4827C15.6927 11.4827 16.0209 11.8108 16.0209 12.2119V14.7567C16.0209 15.1577 15.6927 15.4858 15.2917 15.4858C8.44483 15.4858 2.89587 9.93688 2.89587 3.09001C2.89587 2.68896 3.224 2.36084 3.62504 2.36084H6.17712C6.57817 2.36084 6.90629 2.68896 6.90629 3.09001C6.90629 4.00146 7.05212 4.87647 7.32192 5.69313C7.40212 5.94834 7.34379 6.23272 7.13962 6.43688L5.53546 8.04105Z" fill="#4E4D4D"/>
</svg>
